<svg width="167" height="37" viewBox="0 0 167 37" fill="none" xmlns="http://www.w3.org/2000/svg">
<path d="M22 1V36" stroke="#407BAF" stroke-opacity="0.3" stroke-width="1.3669" stroke-linecap="round"/>
<path d="M18.5 12.0525V24.9468" stroke="#407BAF" stroke-opacity="0.3" stroke-width="1.3669" stroke-linecap="round"/>
<path d="M1 13.8948V23.105" stroke="#407BAF" stroke-opacity="0.3" stroke-width="1.3669" stroke-linecap="round"/>
<path d="M4.5 13.8948V23.105" stroke="#407BAF" stroke-opacity="0.3" stroke-width="1.3669" stroke-linecap="round"/>
<path d="M8 13.8948V23.105" stroke="#407BAF" stroke-opacity="0.3" stroke-width="1.3669" stroke-linecap="round"/>
<path d="M11.5 13.8948V23.105" stroke="#407BAF" stroke-opacity="0.3" stroke-width="1.3669" stroke-linecap="round"/>
<path d="M15 13.8948V23.105" stroke="#407BAF" stroke-opacity="0.3" stroke-width="1.3669" stroke-linecap="round"/>
<path d="M60.5 10.2102V26.7886" stroke="#407BAF" stroke-opacity="0.3" stroke-width="1.3669" stroke-linecap="round"/>
<path d="M64 10.2102V26.7886" stroke="#407BAF" stroke-opacity="0.3" stroke-width="1.3669" stroke-linecap="round"/>
<path d="M67.5 10.2102V26.7886" stroke="#407BAF" stroke-opacity="0.3" stroke-width="1.3669" stroke-linecap="round"/>
<path d="M71 6.52686V30.4742" stroke="#407BAF" stroke-opacity="0.3" stroke-width="1.3669" stroke-linecap="round"/>
<path d="M74.5 1V36" stroke="#407BAF" stroke-opacity="0.3" stroke-width="1.3669" stroke-linecap="round"/>
<path d="M102.5 1V36" stroke="#407BAF" stroke-opacity="0.3" stroke-width="1.3669" stroke-linecap="round"/>
<path d="M78 12.0525V24.9468" stroke="#407BAF" stroke-opacity="0.3" stroke-width="1.3669" stroke-linecap="round"/>
<path d="M99 12.0525V24.9468" stroke="#407BAF" stroke-opacity="0.3" stroke-width="1.3669" stroke-linecap="round"/>
<path d="M81.5 13.8948V23.105" stroke="#407BAF" stroke-opacity="0.3" stroke-width="1.3669" stroke-linecap="round"/>
<path d="M57 13.8948V23.105" stroke="#407BAF" stroke-opacity="0.3" stroke-width="1.3669" stroke-linecap="round"/>
<path d="M53.5 15.7371V21.2629" stroke="#407BAF" stroke-opacity="0.3" stroke-width="1.3669" stroke-linecap="round"/>
<path d="M36 15.7371V21.2629" stroke="#407BAF" stroke-opacity="0.3" stroke-width="1.3669" stroke-linecap="round"/>
<path d="M32.5 13.8948V23.105" stroke="#407BAF" stroke-opacity="0.3" stroke-width="1.3669" stroke-linecap="round"/>
<path d="M29 13.8948V23.105" stroke="#407BAF" stroke-opacity="0.3" stroke-width="1.3669" stroke-linecap="round"/>
<path d="M50 17.5793V19.4211" stroke="#407BAF" stroke-opacity="0.3" stroke-width="1.3669" stroke-linecap="round"/>
<path d="M46.5 17.5793V19.4211" stroke="#407BAF" stroke-opacity="0.3" stroke-width="1.3669" stroke-linecap="round"/>
<path d="M43 17.5793V19.4211" stroke="#407BAF" stroke-opacity="0.3" stroke-width="1.3669" stroke-linecap="round"/>
<path d="M39.5 17.5793V19.4211" stroke="#407BAF" stroke-opacity="0.3" stroke-width="1.3669" stroke-linecap="round"/>
<path d="M25.5 17.5793V19.4211" stroke="#407BAF" stroke-opacity="0.3" stroke-width="1.3669" stroke-linecap="round"/>
<path d="M137.5 1V36" stroke="#407BAF" stroke-opacity="0.3" stroke-width="1.3669" stroke-linecap="round"/>
<path d="M134 12.0525V24.9468" stroke="#407BAF" stroke-opacity="0.3" stroke-width="1.3669" stroke-linecap="round"/>
<path d="M151.5 15.7371V21.2629" stroke="#407BAF" stroke-opacity="0.3" stroke-width="1.3669" stroke-linecap="round"/>
<path d="M148 13.8948V23.105" stroke="#407BAF" stroke-opacity="0.3" stroke-width="1.3669" stroke-linecap="round"/>
<path d="M144.5 13.8948V23.105" stroke="#407BAF" stroke-opacity="0.3" stroke-width="1.3669" stroke-linecap="round"/>
<path d="M165.5 17.5793V19.4211" stroke="#407BAF" stroke-opacity="0.3" stroke-width="1.3669" stroke-linecap="round"/>
<path d="M162 17.5793V19.4211" stroke="#407BAF" stroke-opacity="0.3" stroke-width="1.3669" stroke-linecap="round"/>
<path d="M158.5 17.5793V19.4211" stroke="#407BAF" stroke-opacity="0.3" stroke-width="1.3669" stroke-linecap="round"/>
<path d="M155 17.5793V19.4211" stroke="#407BAF" stroke-opacity="0.3" stroke-width="1.3669" stroke-linecap="round"/>
<path d="M141 17.5793V19.4211" stroke="#407BAF" stroke-opacity="0.3" stroke-width="1.3669" stroke-linecap="round"/>
<path d="M85 13.8948V23.105" stroke="#407BAF" stroke-opacity="0.3" stroke-width="1.3669" stroke-linecap="round"/>
<path d="M88.5 13.8948V23.105" stroke="#407BAF" stroke-opacity="0.3" stroke-width="1.3669" stroke-linecap="round"/>
<path d="M92 13.8948V23.105" stroke="#407BAF" stroke-opacity="0.3" stroke-width="1.3669" stroke-linecap="round"/>
<path d="M95.5 13.8948V23.105" stroke="#407BAF" stroke-opacity="0.3" stroke-width="1.3669" stroke-linecap="round"/>
<path d="M130.5 1V36" stroke="#407BAF" stroke-opacity="0.3" stroke-width="1.3669" stroke-linecap="round"/>
<path d="M106 12.0525V24.9468" stroke="#407BAF" stroke-opacity="0.3" stroke-width="1.3669" stroke-linecap="round"/>
<path d="M127 12.0525V24.9468" stroke="#407BAF" stroke-opacity="0.3" stroke-width="1.3669" stroke-linecap="round"/>
<path d="M109.5 13.8948V23.105" stroke="#407BAF" stroke-opacity="0.3" stroke-width="1.3669" stroke-linecap="round"/>
<path d="M113 13.8948V23.105" stroke="#407BAF" stroke-opacity="0.3" stroke-width="1.3669" stroke-linecap="round"/>
<path d="M116.5 13.8948V23.105" stroke="#407BAF" stroke-opacity="0.3" stroke-width="1.3669" stroke-linecap="round"/>
<path d="M120 13.8948V23.105" stroke="#407BAF" stroke-opacity="0.3" stroke-width="1.3669" stroke-linecap="round"/>
<path d="M123.5 13.8948V23.105" stroke="#407BAF" stroke-opacity="0.3" stroke-width="1.3669" stroke-linecap="round"/>
</svg>
