<svg width="30" height="30" viewBox="0 0 30 30" fill="none" xmlns="http://www.w3.org/2000/svg">
<path d="M29.7586 18.9437C29.7586 21.0614 29.3182 22.902 28.4375 24.4656C27.5667 26.039 26.3247 27.2512 24.7117 28.1023C23.0987 28.9632 21.1888 29.3937 18.982 29.3937H15.182C14.5586 29.3937 14.0391 29.1809 13.6234 28.7554C13.2078 28.3398 13 27.8351 13 27.2413C13 26.6476 13.2078 26.138 13.6234 25.7124C14.0391 25.2968 14.5586 25.089 15.182 25.089H18.7148C20.1398 25.089 21.362 24.8218 22.3812 24.2874C23.4005 23.7531 24.1823 23.0208 24.7266 22.0906C25.2708 21.1505 25.543 20.0718 25.543 18.8546C25.543 17.6473 25.2708 16.5786 24.7266 15.6484C24.1823 14.7083 23.4005 13.976 22.3812 13.4515C21.362 12.9171 20.1398 12.6499 18.7148 12.6499H10.5656L4.88047 12.3976L5.69687 11.2398L9.46719 14.357L12.4656 17.2663C12.6635 17.4643 12.8268 17.6869 12.9555 17.9343C13.0841 18.1718 13.1484 18.4588 13.1484 18.7953C13.1484 19.3791 12.9555 19.8689 12.5695 20.2648C12.1836 20.6507 11.6789 20.8437 11.0555 20.8437C10.4716 20.8437 9.95703 20.621 9.51172 20.1757L1.33281 12.0859C1.125 11.888 0.961719 11.6505 0.842969 11.3734C0.734115 11.0864 0.679687 10.7945 0.679687 10.4976C0.679687 10.2106 0.734115 9.92364 0.842969 9.63666C0.961719 9.34968 1.125 9.10723 1.33281 8.90931L9.51172 0.819471C9.95703 0.374158 10.4716 0.151502 11.0555 0.151502C11.6789 0.151502 12.1836 0.344471 12.5695 0.730408C12.9555 1.11635 13.1484 1.60619 13.1484 2.19994C13.1484 2.5265 13.0841 2.81348 12.9555 3.06088C12.8268 3.30827 12.6635 3.53093 12.4656 3.72885L9.46719 6.65306L5.69687 9.75541L4.88047 8.61244L10.5656 8.34525H18.8484C21.075 8.34525 23.0047 8.79551 24.6375 9.69603C26.2802 10.5867 27.5419 11.8286 28.4227 13.4218C29.3133 15.0051 29.7586 16.8458 29.7586 18.9437Z" fill="#B5CAB0"/>
</svg>
