<svg width="31" height="31" viewBox="0 0 31 31" fill="none" xmlns="http://www.w3.org/2000/svg">
<path d="M0.960159 11.2817C0.960159 9.16402 1.40052 7.32339 2.28125 5.75985C3.15209 4.18641 4.39401 2.97417 6.00703 2.12313C7.62006 1.2622 9.52995 0.831727 11.7367 0.831727L15.5367 0.831728C16.1602 0.831728 16.6797 1.04449 17.0953 1.47001C17.5109 1.88563 17.7188 2.39032 17.7188 2.98407C17.7188 3.57782 17.5109 4.08746 17.0953 4.51298C16.6797 4.9286 16.1602 5.13642 15.5367 5.13642L12.0039 5.13641C10.5789 5.13641 9.35677 5.4036 8.3375 5.93798C7.31823 6.47235 6.53646 7.20464 5.99219 8.13485C5.44792 9.07496 5.17578 10.1536 5.17578 11.3708C5.17578 12.5781 5.44792 13.6468 5.99219 14.577C6.53646 15.5171 7.31823 16.2494 8.3375 16.7739C9.35677 17.3083 10.5789 17.5755 12.0039 17.5755L20.1531 17.5755L25.8383 17.8278L25.0219 18.9856L21.2516 15.8684L18.2531 12.9591C18.0552 12.7612 17.8919 12.5385 17.7633 12.2911C17.6346 12.0536 17.5703 11.7666 17.5703 11.4302C17.5703 10.8463 17.7633 10.3565 18.1492 9.96063C18.5352 9.5747 19.0398 9.38173 19.6633 9.38173C20.2471 9.38173 20.7617 9.60438 21.207 10.0497L29.3859 18.1395C29.5938 18.3375 29.757 18.575 29.8758 18.852C29.9846 19.139 30.0391 19.4309 30.0391 19.7278C30.0391 20.0148 29.9846 20.3018 29.8758 20.5888C29.757 20.8757 29.5938 21.1182 29.3859 21.3161L21.207 29.4059C20.7617 29.8513 20.2471 30.0739 19.6633 30.0739C19.0398 30.0739 18.5352 29.8809 18.1492 29.495C17.7633 29.1091 17.5703 28.6192 17.5703 28.0255C17.5703 27.6989 17.6346 27.4119 17.7633 27.1645C17.8919 26.9171 18.0552 26.6945 18.2531 26.4966L21.2516 23.5724L25.0219 20.47L25.8383 21.613L20.1531 21.8802L11.8703 21.8802C9.64375 21.8802 7.71406 21.4299 6.08125 20.5294C4.43854 19.6388 3.17682 18.3968 2.2961 16.8036C1.40547 15.2203 0.960159 13.3796 0.960159 11.2817Z" fill="#5A7EB5"/>
</svg>
