<svg width="193" height="153" viewBox="0 0 193 153" fill="none" xmlns="http://www.w3.org/2000/svg">
<g clip-path="url(#clip0_956_10642)">
<rect width="193" height="153" fill="white"/>
<path d="M76.6786 25.5075C77.2468 22.0981 77.8151 6.18762 77.8151 6.18762H95.431V236.321H91.4526C91.4526 236.321 90.3154 281.779 89.7479 288.598C89.1805 295.417 83.4974 325.533 83.4974 325.533L80.088 342.012C80.088 342.012 83.4966 369.855 83.4974 378.947C83.4982 388.038 77.2469 427.814 77.2469 427.814C78.3576 432.464 78.4263 435.187 77.2469 440.316L80.088 458.499C80.3283 468.31 78.2638 470.304 72.701 471C62.5251 470.798 50.5408 471 51.6765 462.477C52.8122 453.953 55.7131 446.436 60.2 436.906C59.7638 433.165 59.6047 431.046 61.9047 426.678C61.9047 426.678 62.4737 423.269 61.9047 419.859C61.3356 416.45 51.6765 378.947 51.6765 369.855C51.6765 360.763 52.813 342.012 52.813 342.012L51.6765 325.533C51.6765 325.533 46.5624 288.598 45.426 280.643C44.2895 272.688 46.5624 225.525 46.5624 225.525C46.5624 225.525 47.6997 180.634 48.2671 174.384C48.8346 168.133 51.1083 153.927 51.1083 153.927C49.8487 134.295 47.8788 123.959 44.2895 106.764L39.1754 138.017C39.1754 138.017 39.7429 155.064 39.1754 160.746C38.608 166.429 25.5379 206.205 25.5379 206.205C25.5379 206.205 31.7877 217.001 32.9249 219.842C34.0622 222.683 34.0622 238.594 33.4931 240.298C32.9241 242.003 30.6528 240.867 30.0838 239.73C29.5147 238.594 26.1061 227.797 26.1061 227.797C26.1061 227.797 23.265 234.616 24.4015 238.026C25.5379 241.435 33.4931 249.39 33.4931 249.39L30.0838 251.095C30.0838 251.095 17.5835 244.276 16.4462 242.571C15.309 240.867 11.9012 234.048 11.3321 228.934C10.7631 223.82 13.0368 207.909 13.0368 207.909C12.2792 189.726 10.1957 161.314 11.3321 152.223C12.4686 143.131 14.5521 140.858 15.878 135.744C15.878 135.744 14.7415 115.856 14.7415 109.037C14.7415 102.219 19.2874 84.0352 19.2874 84.0352C19.2874 84.0352 17.5827 73.807 18.1509 69.8294C18.7191 65.8518 20.992 55.0554 26.6744 51.646C32.3567 48.2367 52.813 38.5767 52.813 38.5767C52.813 38.5767 76.1104 28.9168 76.6786 25.5075Z" fill="#F2CDAF"/>
<path d="M114.185 25.5075C113.616 22.0981 113.048 6.18762 113.048 6.18762H95.4323V236.321H99.4107C99.4107 236.321 100.548 281.779 101.115 288.598C101.683 295.417 107.366 325.533 107.366 325.533L110.442 342.58C110.442 342.58 107.367 369.855 107.366 378.947C107.365 388.038 113.616 427.814 113.616 427.814C112.506 432.464 112.437 435.187 113.616 440.316L110.775 458.499C110.535 468.31 112.599 470.304 118.162 471C128.338 470.798 140.322 471 139.187 462.477C138.051 453.953 135.15 446.436 130.663 436.906C131.1 433.165 131.259 431.046 128.959 426.678C128.959 426.678 128.39 423.269 128.959 419.859C129.528 416.45 137.717 378.947 137.717 369.855V342.012L138.285 325.533C138.285 325.533 143.164 288.598 144.301 280.643C145.437 272.688 145.104 225.525 145.104 225.525C145.104 225.525 143.164 180.634 142.596 174.384C142.029 168.133 139.755 153.927 139.755 153.927C141.015 134.295 142.984 123.959 146.574 106.764L151.688 138.017C151.688 138.017 151.12 155.064 151.688 160.746C152.255 166.429 165.325 206.205 165.325 206.205C165.325 206.205 159.076 217.001 157.938 219.842C156.801 222.683 156.801 238.594 157.37 240.298C157.939 242.003 160.211 240.867 160.78 239.73C161.349 238.594 164.757 227.797 164.757 227.797C164.757 227.797 167.598 234.616 166.462 238.026C165.325 241.435 157.37 249.39 157.37 249.39L160.78 251.095C160.78 251.095 173.28 244.276 174.417 242.571C175.554 240.867 178.962 234.048 179.531 228.934C180.1 223.82 177.826 207.909 177.826 207.909C178.584 189.726 180.668 161.314 179.531 152.223C178.395 143.131 176.311 140.858 174.985 135.744C174.985 135.744 176.122 115.856 176.122 109.037C176.122 102.219 171.576 84.0352 171.576 84.0352C171.576 84.0352 173.281 73.807 172.712 69.8294C172.144 65.8518 169.871 55.0554 164.189 51.646C158.507 48.2367 138.05 38.5767 138.05 38.5767C138.05 38.5767 114.753 28.9168 114.185 25.5075Z" fill="#F2CDAF"/>
<g filter="url(#filter0_f_956_10642)">
<path d="M133.285 92.7097C131.58 93.278 130.32 93.278 129.752 94.4144C129.184 95.5508 131.133 96.1192 133.285 96.1191C135.437 96.1191 137.831 95.5508 137.263 94.4144C136.694 93.278 134.99 92.1415 133.285 92.7097Z" fill="#DEB9A1"/>
</g>
<g filter="url(#filter1_f_956_10642)">
<path d="M55.9767 92.7097C57.6813 93.278 58.9414 93.278 59.5096 94.4144C60.0778 95.5508 58.1283 96.1192 55.9767 96.1191C53.825 96.1191 51.4308 95.5508 51.999 94.4144C52.5673 93.278 54.272 92.1415 55.9767 92.7097Z" fill="#DEB9A1"/>
</g>
<g filter="url(#filter2_f_956_10642)">
<path d="M32.025 79.4893C32.025 79.4893 37.1391 77.2164 38.8438 75.5117C40.5485 73.807 47.5236 64.6619 47.5236 64.6619C47.5236 64.6619 41.6849 75.5117 41.6849 77.7846C41.6849 80.0575 43.6358 93.3731 46.2308 95.968C48.8257 98.5629 56.4589 99.3774 60.4365 99.3774C64.4141 99.3774 91.121 96.5362 92.2574 95.3998C93.3939 94.2633 95.6668 89.7175 95.6668 89.7175C95.6668 89.7175 96.8033 97.6727 95.6668 98.8091C94.5303 99.9456 60.4365 102.219 56.4589 103.923C52.4813 105.628 56.4589 152.223 57.5954 155.064C58.7318 157.905 68.3917 172.679 68.3917 172.679C68.3917 172.679 54.186 160.746 52.4813 161.314C50.7766 161.883 47.9355 172.679 47.9355 172.679C47.9355 172.679 51.3448 155.632 51.3448 152.791C51.3448 149.95 44.5261 107.901 44.5261 107.901L45.2593 112.447C45.2593 112.447 40.5485 130.63 39.9802 134.608C39.412 138.585 39.412 161.314 39.412 161.314C39.412 161.314 34.2979 141.995 33.7297 138.017C33.1615 134.039 30.3203 130.062 30.3203 130.062C30.3203 130.062 34.2979 135.176 35.4344 134.608C36.5708 134.039 41.1167 118.697 41.6849 114.151C42.2531 109.606 38.8438 79.4893 38.8438 79.4893H32.025Z" fill="#DDB8A0"/>
</g>
<g filter="url(#filter3_f_956_10642)">
<path d="M159.245 79.4893C159.245 79.4893 154.13 77.2164 152.426 75.5117C150.721 73.807 143.746 64.6619 143.746 64.6619C143.746 64.6619 149.585 75.5117 149.585 77.7846C149.585 80.0575 147.634 93.3731 145.039 95.968C142.444 98.5629 134.811 99.3774 130.833 99.3774C126.855 99.3774 100.149 96.5362 99.0121 95.3998C97.8757 94.2633 95.6649 89.7175 95.6649 89.7175C95.6649 89.7175 94.5284 97.6727 95.6649 98.8091C96.8013 99.9456 130.833 102.219 134.811 103.923C138.788 105.628 134.811 152.223 133.674 155.064C132.538 157.905 122.878 172.679 122.878 172.679C122.878 172.679 137.084 160.746 138.788 161.314C140.493 161.883 142.26 172.679 142.26 172.679C142.26 172.679 139.925 155.632 139.925 152.791C139.925 149.95 146.743 107.901 146.743 107.901L146.01 112.447C146.01 112.447 150.721 130.63 151.289 134.608C151.858 138.585 151.858 161.314 151.858 161.314C151.858 161.314 156.972 141.995 157.54 138.017C158.108 134.039 160.949 130.062 160.949 130.062C160.949 130.062 156.972 135.176 155.835 134.608C154.699 134.039 150.153 118.697 149.585 114.151C149.016 109.606 152.426 79.4893 152.426 79.4893H159.245Z" fill="#DDB8A0"/>
</g>
<path d="M64.6092 -39.3047C64.1258 -33.7133 64.0885 -29.3328 65.0052 -21.7954L72.9605 2.07025H116.714L124.669 -20.0907C125.42 -26.5855 125.483 -31.0232 125.075 -37.1334C124.849 -40.5172 123.98 -43.876 122.089 -46.6912C107.836 -67.9084 78.2728 -66.1673 66.8676 -47.0462C65.4745 -44.7107 64.8434 -42.014 64.6092 -39.3047Z" fill="#262626"/>
<path d="M69.4924 -28.6998L69.0128 -8.58632C68.6942 -19.0404 66.4176 -23.6506 62.174 -21.0874C61.9557 -11.9929 64.2968 -8.30102 71.2341 -0.631092C74.6813 7.89433 75.6058 15.2579 81.427 22.8509C83.7895 25.9325 87.639 27.3518 91.522 27.3518H98.2801C102.761 27.3518 107.11 25.412 109.548 21.6517C114.145 14.5595 116.49 7.5352 120.154 -2.33578C127.929 -13.1627 127.175 -14.8021 124.677 -19.3827C121.957 -20.5474 120.26 -16.8775 120.154 -8.01809V-28.8315C120.154 -31.1709 119.334 -33.4362 117.837 -35.2333L117.47 -35.6726C115.571 -37.9525 112.756 -39.2708 109.788 -39.2708H80.2314C77.4283 -39.2708 74.7539 -38.0943 72.8598 -36.028L72.118 -35.2187C70.4829 -33.435 69.55 -31.1189 69.4924 -28.6998Z" fill="#DEB9A1"/>
<path d="M70.0294 -30.9728L69.5499 -10.8593C69.2312 -21.3133 66.4072 -23.0824 62.1636 -20.5192C61.9454 -11.4247 63.1816 -7.73282 70.1189 -0.0628929C73.557 8.44007 75.6348 13.8114 81.7966 20.727C84.3798 23.6261 88.176 25.0788 92.0591 25.0788H98.8172C103.298 25.0788 107.62 23.1292 110.236 19.491C114.734 13.2354 117.067 7.99484 120.691 -1.76758C128.466 -12.5945 128.303 -15.9386 125.805 -20.5192C123.085 -21.6839 120.797 -19.1504 120.691 -10.291V-31.1044C120.691 -33.4438 119.871 -35.7091 118.374 -37.5063L118.008 -37.9455C116.108 -40.2255 113.293 -41.5437 110.325 -41.5437H80.7684C77.9653 -41.5437 75.291 -40.3672 73.3969 -38.3009L72.655 -37.4917C71.0199 -35.7079 70.0871 -33.3918 70.0294 -30.9728Z" fill="#F2CDAF"/>
<path d="M93.0753 -0.378523C93.0753 -0.378523 92.5085 -0.946799 91.9403 -0.378569C91.372 0.189662 91.9394 0.757999 91.9394 0.757999C91.9394 0.757999 94.2129 2.46275 95.3488 2.46269C96.4847 2.46263 98.1911 1.32621 98.1911 1.32621C98.1911 1.32621 99.8958 0.189751 99.3275 -0.37848C98.7593 -0.94671 97.6228 -0.378511 97.6228 -0.378511C97.6228 -0.378511 95.9165 0.141068 95.3488 0.141068C94.7811 0.141068 93.0753 -0.378523 93.0753 -0.378523Z" fill="#DFBAA2"/>
<path d="M92.8268 10.1653L87.1445 11.3017H102.487L97.3727 10.1653L95.0998 10.7335L92.8268 10.1653Z" fill="#DFBAA2"/>
<path d="M92.8258 14.1428L91.1211 13.0064H99.6445L97.3716 14.1428L95.0987 14.7111L92.8258 14.1428Z" fill="#DFBAA2"/>
<g filter="url(#filter4_f_956_10642)">
<path d="M52.4792 41.4179C53.6157 40.4708 58.0479 36.0765 59.8662 35.1674L38.2734 45.3955C44.3346 45.0167 56.5705 44.259 57.025 44.259H75.2084C76.1176 44.259 68.7685 42.3649 64.9803 41.4179H52.4792Z" fill="#DEB9A1"/>
</g>
<g filter="url(#filter5_f_956_10642)">
<path d="M138.365 41.4179C137.228 40.4708 132.796 36.0765 130.978 35.1674L152.57 45.3955C146.509 45.0167 134.273 44.259 133.819 44.259H115.635C114.726 44.259 122.075 42.3649 125.863 41.4179H138.365Z" fill="#DEB9A1"/>
</g>
<g filter="url(#filter6_f_956_10642)">
<path d="M88.4433 41.3305C87.7939 39.9318 87.1445 35.7356 87.1445 35.7356L89.7422 40.6311L91.6904 44.8273C91.6904 44.8273 89.0927 42.7292 88.4433 41.3305Z" fill="#DEB9A1"/>
</g>
<g filter="url(#filter7_f_956_10642)">
<path d="M100.619 41.3305C101.269 39.9318 101.918 35.7356 101.918 35.7356L99.3203 40.6311L97.3721 44.8273C97.3721 44.8273 99.9698 42.7292 100.619 41.3305Z" fill="#DEB9A1"/>
</g>
<path d="M94.5331 147.677C94.3437 135.744 93.5061 114.492 93.9606 113.583C94.7467 110.729 95.2651 111.289 96.2354 113.583V147.677C96.2354 147.677 95.6651 157.905 95.0969 156.769C94.5287 155.632 94.5331 147.677 94.5331 147.677Z" fill="#DEB9A1"/>
<path d="M93.3922 160.746C91.6875 161.315 91.6875 164.724 91.6875 164.724C91.6875 164.724 92.8284 162.451 93.9604 162.451C95.0924 162.451 99.0745 164.156 99.0745 164.156C99.0745 164.156 95.0969 160.178 93.3922 160.746Z" fill="#DEB9A1"/>
<rect x="118" y="71" width="20.6576" height="21.8727" rx="10.3288" fill="#FF4F42" fill-opacity="0.5"/>
<g opacity="0.7">
<rect x="121" y="73.9364" width="15" height="16" rx="7.5" fill="#FF0200"/>
</g>
</g>
<defs>
<filter id="filter0_f_956_10642" x="129.152" y="92.0586" width="8.69531" height="4.56055" filterUnits="userSpaceOnUse" color-interpolation-filters="sRGB">
<feFlood flood-opacity="0" result="BackgroundImageFix"/>
<feBlend mode="normal" in="SourceGraphic" in2="BackgroundImageFix" result="shape"/>
<feGaussianBlur stdDeviation="0.25" result="effect1_foregroundBlur_956_10642"/>
</filter>
<filter id="filter1_f_956_10642" x="51.4141" y="92.0586" width="8.69531" height="4.56055" filterUnits="userSpaceOnUse" color-interpolation-filters="sRGB">
<feFlood flood-opacity="0" result="BackgroundImageFix"/>
<feBlend mode="normal" in="SourceGraphic" in2="BackgroundImageFix" result="shape"/>
<feGaussianBlur stdDeviation="0.25" result="effect1_foregroundBlur_956_10642"/>
</filter>
<filter id="filter2_f_956_10642" x="29.8203" y="64.162" width="66.8516" height="109.017" filterUnits="userSpaceOnUse" color-interpolation-filters="sRGB">
<feFlood flood-opacity="0" result="BackgroundImageFix"/>
<feBlend mode="normal" in="SourceGraphic" in2="BackgroundImageFix" result="shape"/>
<feGaussianBlur stdDeviation="0.25" result="effect1_foregroundBlur_956_10642"/>
</filter>
<filter id="filter3_f_956_10642" x="94.6602" y="64.162" width="66.7891" height="109.017" filterUnits="userSpaceOnUse" color-interpolation-filters="sRGB">
<feFlood flood-opacity="0" result="BackgroundImageFix"/>
<feBlend mode="normal" in="SourceGraphic" in2="BackgroundImageFix" result="shape"/>
<feGaussianBlur stdDeviation="0.25" result="effect1_foregroundBlur_956_10642"/>
</filter>
<filter id="filter4_f_956_10642" x="37.7734" y="34.6674" width="38.0117" height="11.2281" filterUnits="userSpaceOnUse" color-interpolation-filters="sRGB">
<feFlood flood-opacity="0" result="BackgroundImageFix"/>
<feBlend mode="normal" in="SourceGraphic" in2="BackgroundImageFix" result="shape"/>
<feGaussianBlur stdDeviation="0.25" result="effect1_foregroundBlur_956_10642"/>
</filter>
<filter id="filter5_f_956_10642" x="115.059" y="34.6674" width="38.0117" height="11.2281" filterUnits="userSpaceOnUse" color-interpolation-filters="sRGB">
<feFlood flood-opacity="0" result="BackgroundImageFix"/>
<feBlend mode="normal" in="SourceGraphic" in2="BackgroundImageFix" result="shape"/>
<feGaussianBlur stdDeviation="0.25" result="effect1_foregroundBlur_956_10642"/>
</filter>
<filter id="filter6_f_956_10642" x="86.6445" y="35.2356" width="5.54688" height="10.0917" filterUnits="userSpaceOnUse" color-interpolation-filters="sRGB">
<feFlood flood-opacity="0" result="BackgroundImageFix"/>
<feBlend mode="normal" in="SourceGraphic" in2="BackgroundImageFix" result="shape"/>
<feGaussianBlur stdDeviation="0.25" result="effect1_foregroundBlur_956_10642"/>
</filter>
<filter id="filter7_f_956_10642" x="96.8711" y="35.2356" width="5.54688" height="10.0917" filterUnits="userSpaceOnUse" color-interpolation-filters="sRGB">
<feFlood flood-opacity="0" result="BackgroundImageFix"/>
<feBlend mode="normal" in="SourceGraphic" in2="BackgroundImageFix" result="shape"/>
<feGaussianBlur stdDeviation="0.25" result="effect1_foregroundBlur_956_10642"/>
</filter>
<clipPath id="clip0_956_10642">
<rect width="193" height="153" fill="white"/>
</clipPath>
</defs>
</svg>
