<svg width="193" height="153" viewBox="0 0 193 153" fill="none" xmlns="http://www.w3.org/2000/svg">
<g clip-path="url(#clip0_956_10711)">
<rect width="193" height="153" fill="white"/>
<path d="M76.6786 27.5075C77.2468 24.0981 77.8151 8.18762 77.8151 8.18762H95.431V238.321H91.4526C91.4526 238.321 90.3154 283.779 89.7479 290.598C89.1805 297.417 83.4974 327.533 83.4974 327.533L80.088 344.012C80.088 344.012 83.4966 371.855 83.4974 380.947C83.4982 390.038 77.2469 429.814 77.2469 429.814C78.3576 434.464 78.4263 437.187 77.2469 442.316L80.088 460.499C80.3283 470.31 78.2638 472.304 72.701 473C62.5251 472.798 50.5408 473 51.6765 464.477C52.8122 455.953 55.7131 448.436 60.2 438.906C59.7638 435.165 59.6047 433.046 61.9047 428.678C61.9047 428.678 62.4737 425.269 61.9047 421.859C61.3356 418.45 51.6765 380.947 51.6765 371.855C51.6765 362.763 52.813 344.012 52.813 344.012L51.6765 327.533C51.6765 327.533 46.5624 290.598 45.426 282.643C44.2895 274.688 46.5624 227.525 46.5624 227.525C46.5624 227.525 47.6997 182.634 48.2671 176.384C48.8346 170.133 51.1083 155.927 51.1083 155.927C49.8487 136.295 47.8788 125.959 44.2895 108.764L39.1754 140.017C39.1754 140.017 39.7429 157.064 39.1754 162.746C38.608 168.429 25.5379 208.205 25.5379 208.205C25.5379 208.205 31.7877 219.001 32.9249 221.842C34.0622 224.683 34.0622 240.594 33.4931 242.298C32.9241 244.003 30.6528 242.867 30.0838 241.73C29.5147 240.594 26.1061 229.797 26.1061 229.797C26.1061 229.797 23.265 236.616 24.4015 240.026C25.5379 243.435 33.4931 251.39 33.4931 251.39L30.0838 253.095C30.0838 253.095 17.5835 246.276 16.4462 244.571C15.309 242.867 11.9012 236.048 11.3321 230.934C10.7631 225.82 13.0368 209.909 13.0368 209.909C12.2792 191.726 10.1957 163.314 11.3321 154.223C12.4686 145.131 14.5521 142.858 15.878 137.744C15.878 137.744 14.7415 117.856 14.7415 111.037C14.7415 104.219 19.2874 86.0352 19.2874 86.0352C19.2874 86.0352 17.5827 75.807 18.1509 71.8294C18.7191 67.8518 20.992 57.0554 26.6744 53.646C32.3567 50.2367 52.813 40.5767 52.813 40.5767C52.813 40.5767 76.1104 30.9168 76.6786 27.5075Z" fill="#F2CDAF"/>
<path d="M114.185 27.5075C113.616 24.0981 113.048 8.18762 113.048 8.18762H95.4323V238.321H99.4107C99.4107 238.321 100.548 283.779 101.115 290.598C101.683 297.417 107.366 327.533 107.366 327.533L110.442 344.58C110.442 344.58 107.367 371.855 107.366 380.947C107.365 390.038 113.616 429.814 113.616 429.814C112.506 434.464 112.437 437.187 113.616 442.316L110.775 460.499C110.535 470.31 112.599 472.304 118.162 473C128.338 472.798 140.322 473 139.187 464.477C138.051 455.953 135.15 448.436 130.663 438.906C131.1 435.165 131.259 433.046 128.959 428.678C128.959 428.678 128.39 425.269 128.959 421.859C129.528 418.45 137.717 380.947 137.717 371.855V344.012L138.285 327.533C138.285 327.533 143.164 290.598 144.301 282.643C145.437 274.688 145.104 227.525 145.104 227.525C145.104 227.525 143.164 182.634 142.596 176.384C142.029 170.133 139.755 155.927 139.755 155.927C141.015 136.295 142.984 125.959 146.574 108.764L151.688 140.017C151.688 140.017 151.12 157.064 151.688 162.746C152.255 168.429 165.325 208.205 165.325 208.205C165.325 208.205 159.076 219.001 157.938 221.842C156.801 224.683 156.801 240.594 157.37 242.298C157.939 244.003 160.211 242.867 160.78 241.73C161.349 240.594 164.757 229.797 164.757 229.797C164.757 229.797 167.598 236.616 166.462 240.026C165.325 243.435 157.37 251.39 157.37 251.39L160.78 253.095C160.78 253.095 173.28 246.276 174.417 244.571C175.554 242.867 178.962 236.048 179.531 230.934C180.1 225.82 177.826 209.909 177.826 209.909C178.584 191.726 180.668 163.314 179.531 154.223C178.395 145.131 176.311 142.858 174.985 137.744C174.985 137.744 176.122 117.856 176.122 111.037C176.122 104.219 171.576 86.0352 171.576 86.0352C171.576 86.0352 173.281 75.807 172.712 71.8294C172.144 67.8518 169.871 57.0554 164.189 53.646C158.507 50.2367 138.05 40.5767 138.05 40.5767C138.05 40.5767 114.753 30.9168 114.185 27.5075Z" fill="#F2CDAF"/>
<g filter="url(#filter0_f_956_10711)">
<path d="M133.285 94.7097C131.58 95.278 130.32 95.278 129.752 96.4144C129.184 97.5508 131.133 98.1192 133.285 98.1191C135.437 98.1191 137.831 97.5508 137.263 96.4144C136.694 95.278 134.99 94.1415 133.285 94.7097Z" fill="#DEB9A1"/>
</g>
<g filter="url(#filter1_f_956_10711)">
<path d="M55.9767 94.7097C57.6813 95.278 58.9414 95.278 59.5096 96.4144C60.0778 97.5508 58.1283 98.1192 55.9767 98.1191C53.825 98.1191 51.4308 97.5508 51.999 96.4144C52.5673 95.278 54.272 94.1415 55.9767 94.7097Z" fill="#DEB9A1"/>
</g>
<g filter="url(#filter2_f_956_10711)">
<path d="M32.025 81.4893C32.025 81.4893 37.1391 79.2164 38.8438 77.5117C40.5485 75.807 47.5236 66.6619 47.5236 66.6619C47.5236 66.6619 41.6849 77.5117 41.6849 79.7846C41.6849 82.0575 43.6358 95.3731 46.2308 97.968C48.8257 100.563 56.4589 101.377 60.4365 101.377C64.4141 101.377 91.121 98.5362 92.2574 97.3998C93.3939 96.2633 95.6668 91.7175 95.6668 91.7175C95.6668 91.7175 96.8033 99.6727 95.6668 100.809C94.5303 101.946 60.4365 104.219 56.4589 105.923C52.4813 107.628 56.4589 154.223 57.5954 157.064C58.7318 159.905 68.3917 174.679 68.3917 174.679C68.3917 174.679 54.186 162.746 52.4813 163.314C50.7766 163.883 47.9355 174.679 47.9355 174.679C47.9355 174.679 51.3448 157.632 51.3448 154.791C51.3448 151.95 44.5261 109.901 44.5261 109.901L45.2593 114.447C45.2593 114.447 40.5485 132.63 39.9802 136.608C39.412 140.585 39.412 163.314 39.412 163.314C39.412 163.314 34.2979 143.995 33.7297 140.017C33.1615 136.039 30.3203 132.062 30.3203 132.062C30.3203 132.062 34.2979 137.176 35.4344 136.608C36.5708 136.039 41.1167 120.697 41.6849 116.151C42.2531 111.606 38.8438 81.4893 38.8438 81.4893H32.025Z" fill="#DDB8A0"/>
</g>
<g filter="url(#filter3_f_956_10711)">
<path d="M159.245 81.4893C159.245 81.4893 154.13 79.2164 152.426 77.5117C150.721 75.807 143.746 66.6619 143.746 66.6619C143.746 66.6619 149.585 77.5117 149.585 79.7846C149.585 82.0575 147.634 95.3731 145.039 97.968C142.444 100.563 134.811 101.377 130.833 101.377C126.855 101.377 100.149 98.5362 99.0121 97.3998C97.8757 96.2633 95.6649 91.7175 95.6649 91.7175C95.6649 91.7175 94.5284 99.6727 95.6649 100.809C96.8013 101.946 130.833 104.219 134.811 105.923C138.788 107.628 134.811 154.223 133.674 157.064C132.538 159.905 122.878 174.679 122.878 174.679C122.878 174.679 137.084 162.746 138.788 163.314C140.493 163.883 142.26 174.679 142.26 174.679C142.26 174.679 139.925 157.632 139.925 154.791C139.925 151.95 146.743 109.901 146.743 109.901L146.01 114.447C146.01 114.447 150.721 132.63 151.289 136.608C151.858 140.585 151.858 163.314 151.858 163.314C151.858 163.314 156.972 143.995 157.54 140.017C158.108 136.039 160.949 132.062 160.949 132.062C160.949 132.062 156.972 137.176 155.835 136.608C154.699 136.039 150.153 120.697 149.585 116.151C149.016 111.606 152.426 81.4893 152.426 81.4893H159.245Z" fill="#DDB8A0"/>
</g>
<path d="M64.6092 -37.3047C64.1258 -31.7133 64.0885 -27.3328 65.0052 -19.7954L72.9605 4.07025H116.714L124.669 -18.0907C125.42 -24.5855 125.483 -29.0232 125.075 -35.1334C124.849 -38.5172 123.98 -41.876 122.089 -44.6912C107.836 -65.9084 78.2728 -64.1673 66.8676 -45.0462C65.4745 -42.7107 64.8434 -40.014 64.6092 -37.3047Z" fill="#262626"/>
<path d="M69.4924 -26.6998L69.0128 -6.58632C68.6942 -17.0404 66.4176 -21.6506 62.174 -19.0874C61.9557 -9.99291 64.2968 -6.30102 71.2341 1.36891C74.6813 9.89433 75.6058 17.2579 81.427 24.8509C83.7895 27.9325 87.639 29.3518 91.522 29.3518H98.2801C102.761 29.3518 107.11 27.412 109.548 23.6517C114.145 16.5595 116.49 9.5352 120.154 -0.335785C127.929 -11.1627 127.175 -12.8021 124.677 -17.3827C121.957 -18.5474 120.26 -14.8775 120.154 -6.01809V-26.8315C120.154 -29.1709 119.334 -31.4362 117.837 -33.2333L117.47 -33.6726C115.571 -35.9525 112.756 -37.2708 109.788 -37.2708H80.2314C77.4283 -37.2708 74.7539 -36.0943 72.8598 -34.028L72.118 -33.2187C70.4829 -31.435 69.55 -29.1189 69.4924 -26.6998Z" fill="#DEB9A1"/>
<path d="M70.0294 -28.9728L69.5499 -8.85927C69.2312 -19.3133 66.4072 -21.0824 62.1636 -18.5192C61.9454 -9.42471 63.1816 -5.73282 70.1189 1.93711C73.557 10.4401 75.6348 15.8114 81.7966 22.727C84.3798 25.6261 88.176 27.0788 92.0591 27.0788H98.8172C103.298 27.0788 107.62 25.1292 110.236 21.491C114.734 15.2354 117.067 9.99484 120.691 0.232418C128.466 -10.5945 128.303 -13.9386 125.805 -18.5192C123.085 -19.6839 120.797 -17.1504 120.691 -8.29104V-29.1044C120.691 -31.4438 119.871 -33.7091 118.374 -35.5063L118.008 -35.9455C116.108 -38.2255 113.293 -39.5437 110.325 -39.5437H80.7684C77.9653 -39.5437 75.291 -38.3672 73.3969 -36.3009L72.655 -35.4917C71.0199 -33.7079 70.0871 -31.3918 70.0294 -28.9728Z" fill="#F2CDAF"/>
<path d="M93.0753 1.62148C93.0753 1.62148 92.5085 1.0532 91.9403 1.62143C91.372 2.18966 91.9394 2.758 91.9394 2.758C91.9394 2.758 94.2129 4.46275 95.3488 4.46269C96.4847 4.46263 98.1911 3.32621 98.1911 3.32621C98.1911 3.32621 99.8958 2.18975 99.3275 1.62152C98.7593 1.05329 97.6228 1.62149 97.6228 1.62149C97.6228 1.62149 95.9165 2.14107 95.3488 2.14107C94.7811 2.14107 93.0753 1.62148 93.0753 1.62148Z" fill="#DFBAA2"/>
<path d="M92.8268 12.1653L87.1445 13.3017H102.487L97.3727 12.1653L95.0998 12.7335L92.8268 12.1653Z" fill="#DFBAA2"/>
<path d="M92.8258 16.1428L91.1211 15.0064H99.6445L97.3716 16.1428L95.0987 16.7111L92.8258 16.1428Z" fill="#DFBAA2"/>
<g filter="url(#filter4_f_956_10711)">
<path d="M52.4792 43.4179C53.6157 42.4708 58.0479 38.0765 59.8662 37.1674L38.2734 47.3955C44.3346 47.0167 56.5705 46.259 57.025 46.259H75.2084C76.1176 46.259 68.7685 44.3649 64.9803 43.4179H52.4792Z" fill="#DEB9A1"/>
</g>
<g filter="url(#filter5_f_956_10711)">
<path d="M138.365 43.4179C137.228 42.4708 132.796 38.0765 130.978 37.1674L152.57 47.3955C146.509 47.0167 134.273 46.259 133.819 46.259H115.635C114.726 46.259 122.075 44.3649 125.863 43.4179H138.365Z" fill="#DEB9A1"/>
</g>
<g filter="url(#filter6_f_956_10711)">
<path d="M88.4433 43.3305C87.7939 41.9318 87.1445 37.7356 87.1445 37.7356L89.7422 42.6311L91.6904 46.8273C91.6904 46.8273 89.0927 44.7292 88.4433 43.3305Z" fill="#DEB9A1"/>
</g>
<g filter="url(#filter7_f_956_10711)">
<path d="M100.619 43.3305C101.269 41.9318 101.918 37.7356 101.918 37.7356L99.3203 42.6311L97.3721 46.8273C97.3721 46.8273 99.9698 44.7292 100.619 43.3305Z" fill="#DEB9A1"/>
</g>
<path d="M94.5331 149.677C94.3437 137.744 93.5061 116.492 93.9606 115.583C94.7467 112.729 95.2651 113.289 96.2354 115.583V149.677C96.2354 149.677 95.6651 159.905 95.0969 158.769C94.5287 157.632 94.5331 149.677 94.5331 149.677Z" fill="#DEB9A1"/>
<path d="M93.3922 162.746C91.6875 163.315 91.6875 166.724 91.6875 166.724C91.6875 166.724 92.8284 164.451 93.9604 164.451C95.0924 164.451 99.0745 166.156 99.0745 166.156C99.0745 166.156 95.0969 162.178 93.3922 162.746Z" fill="#DEB9A1"/>
<rect x="153" y="92" width="20.6576" height="21.8727" rx="10.3288" fill="#FF4F42" fill-opacity="0.5"/>
<g opacity="0.7">
<rect x="156" y="94.9364" width="15" height="16" rx="7.5" fill="#FF0200"/>
</g>
</g>
<defs>
<filter id="filter0_f_956_10711" x="129.152" y="94.0586" width="8.69531" height="4.56055" filterUnits="userSpaceOnUse" color-interpolation-filters="sRGB">
<feFlood flood-opacity="0" result="BackgroundImageFix"/>
<feBlend mode="normal" in="SourceGraphic" in2="BackgroundImageFix" result="shape"/>
<feGaussianBlur stdDeviation="0.25" result="effect1_foregroundBlur_956_10711"/>
</filter>
<filter id="filter1_f_956_10711" x="51.4141" y="94.0586" width="8.69531" height="4.56055" filterUnits="userSpaceOnUse" color-interpolation-filters="sRGB">
<feFlood flood-opacity="0" result="BackgroundImageFix"/>
<feBlend mode="normal" in="SourceGraphic" in2="BackgroundImageFix" result="shape"/>
<feGaussianBlur stdDeviation="0.25" result="effect1_foregroundBlur_956_10711"/>
</filter>
<filter id="filter2_f_956_10711" x="29.8203" y="66.162" width="66.8516" height="109.017" filterUnits="userSpaceOnUse" color-interpolation-filters="sRGB">
<feFlood flood-opacity="0" result="BackgroundImageFix"/>
<feBlend mode="normal" in="SourceGraphic" in2="BackgroundImageFix" result="shape"/>
<feGaussianBlur stdDeviation="0.25" result="effect1_foregroundBlur_956_10711"/>
</filter>
<filter id="filter3_f_956_10711" x="94.6602" y="66.162" width="66.7891" height="109.017" filterUnits="userSpaceOnUse" color-interpolation-filters="sRGB">
<feFlood flood-opacity="0" result="BackgroundImageFix"/>
<feBlend mode="normal" in="SourceGraphic" in2="BackgroundImageFix" result="shape"/>
<feGaussianBlur stdDeviation="0.25" result="effect1_foregroundBlur_956_10711"/>
</filter>
<filter id="filter4_f_956_10711" x="37.7734" y="36.6674" width="38.0117" height="11.2281" filterUnits="userSpaceOnUse" color-interpolation-filters="sRGB">
<feFlood flood-opacity="0" result="BackgroundImageFix"/>
<feBlend mode="normal" in="SourceGraphic" in2="BackgroundImageFix" result="shape"/>
<feGaussianBlur stdDeviation="0.25" result="effect1_foregroundBlur_956_10711"/>
</filter>
<filter id="filter5_f_956_10711" x="115.059" y="36.6674" width="38.0117" height="11.2281" filterUnits="userSpaceOnUse" color-interpolation-filters="sRGB">
<feFlood flood-opacity="0" result="BackgroundImageFix"/>
<feBlend mode="normal" in="SourceGraphic" in2="BackgroundImageFix" result="shape"/>
<feGaussianBlur stdDeviation="0.25" result="effect1_foregroundBlur_956_10711"/>
</filter>
<filter id="filter6_f_956_10711" x="86.6445" y="37.2356" width="5.54688" height="10.0917" filterUnits="userSpaceOnUse" color-interpolation-filters="sRGB">
<feFlood flood-opacity="0" result="BackgroundImageFix"/>
<feBlend mode="normal" in="SourceGraphic" in2="BackgroundImageFix" result="shape"/>
<feGaussianBlur stdDeviation="0.25" result="effect1_foregroundBlur_956_10711"/>
</filter>
<filter id="filter7_f_956_10711" x="96.8711" y="37.2356" width="5.54688" height="10.0917" filterUnits="userSpaceOnUse" color-interpolation-filters="sRGB">
<feFlood flood-opacity="0" result="BackgroundImageFix"/>
<feBlend mode="normal" in="SourceGraphic" in2="BackgroundImageFix" result="shape"/>
<feGaussianBlur stdDeviation="0.25" result="effect1_foregroundBlur_956_10711"/>
</filter>
<clipPath id="clip0_956_10711">
<rect width="193" height="153" fill="white"/>
</clipPath>
</defs>
</svg>
