<svg width="193" height="153" viewBox="0 0 193 153" fill="none" xmlns="http://www.w3.org/2000/svg">
<g clip-path="url(#clip0_956_10898)">
<rect width="193" height="153" fill="white"/>
<path d="M76.6786 -75.4925C77.2468 -78.9019 77.8151 -94.8124 77.8151 -94.8124H95.431V135.321H91.4526C91.4526 135.321 90.3154 180.779 89.7479 187.598C89.1805 194.417 83.4974 224.533 83.4974 224.533L80.088 241.012C80.088 241.012 83.4966 268.855 83.4974 277.947C83.4982 287.038 77.2469 326.814 77.2469 326.814C78.3576 331.464 78.4263 334.187 77.2469 339.316L80.088 357.499C80.3283 367.31 78.2638 369.304 72.701 370C62.5251 369.798 50.5408 370 51.6765 361.477C52.8122 352.953 55.7131 345.436 60.2 335.906C59.7638 332.165 59.6047 330.046 61.9047 325.678C61.9047 325.678 62.4737 322.269 61.9047 318.859C61.3356 315.45 51.6765 277.947 51.6765 268.855C51.6765 259.763 52.813 241.012 52.813 241.012L51.6765 224.533C51.6765 224.533 46.5624 187.598 45.426 179.643C44.2895 171.688 46.5624 124.525 46.5624 124.525C46.5624 124.525 47.6997 79.6343 48.2671 73.3838C48.8346 67.1333 51.1083 52.9275 51.1083 52.9275C49.8487 33.2948 47.8788 22.9591 44.2895 5.76438L39.1754 37.017C39.1754 37.017 39.7429 54.0639 39.1754 59.7463C38.608 65.4286 25.5379 105.205 25.5379 105.205C25.5379 105.205 31.7877 116.001 32.9249 118.842C34.0622 121.683 34.0622 137.594 33.4931 139.298C32.9241 141.003 30.6528 139.867 30.0838 138.73C29.5147 137.594 26.1061 126.797 26.1061 126.797C26.1061 126.797 23.265 133.616 24.4015 137.026C25.5379 140.435 33.4931 148.39 33.4931 148.39L30.0838 150.095C30.0838 150.095 17.5835 143.276 16.4462 141.571C15.309 139.867 11.9012 133.048 11.3321 127.934C10.7631 122.82 13.0368 106.909 13.0368 106.909C12.2792 88.726 10.1957 60.3145 11.3321 51.2228C12.4686 42.1311 14.5521 39.8582 15.878 34.7441C15.878 34.7441 14.7415 14.8561 14.7415 8.0373C14.7415 1.21854 19.2874 -16.9648 19.2874 -16.9648C19.2874 -16.9648 17.5827 -27.193 18.1509 -31.1706C18.7191 -35.1482 20.992 -45.9446 26.6744 -49.354C32.3567 -52.7633 52.813 -62.4233 52.813 -62.4233C52.813 -62.4233 76.1104 -72.0832 76.6786 -75.4925Z" fill="#F2CDAF"/>
<path d="M114.185 -75.4925C113.616 -78.9019 113.048 -94.8124 113.048 -94.8124H95.4323V135.321H99.4107C99.4107 135.321 100.548 180.779 101.115 187.598C101.683 194.417 107.366 224.533 107.366 224.533L110.442 241.58C110.442 241.58 107.367 268.855 107.366 277.947C107.365 287.038 113.616 326.814 113.616 326.814C112.506 331.464 112.437 334.187 113.616 339.316L110.775 357.499C110.535 367.31 112.599 369.304 118.162 370C128.338 369.798 140.322 370 139.187 361.477C138.051 352.953 135.15 345.436 130.663 335.906C131.1 332.165 131.259 330.046 128.959 325.678C128.959 325.678 128.39 322.269 128.959 318.859C129.528 315.45 137.717 277.947 137.717 268.855V241.012L138.285 224.533C138.285 224.533 143.164 187.598 144.301 179.643C145.437 171.688 145.104 124.525 145.104 124.525C145.104 124.525 143.164 79.6343 142.596 73.3838C142.029 67.1333 139.755 52.9275 139.755 52.9275C141.015 33.2948 142.984 22.9591 146.574 5.76438L151.688 37.017C151.688 37.017 151.12 54.0639 151.688 59.7463C152.255 65.4286 165.325 105.205 165.325 105.205C165.325 105.205 159.076 116.001 157.938 118.842C156.801 121.683 156.801 137.594 157.37 139.298C157.939 141.003 160.211 139.867 160.78 138.73C161.349 137.594 164.757 126.797 164.757 126.797C164.757 126.797 167.598 133.616 166.462 137.026C165.325 140.435 157.37 148.39 157.37 148.39L160.78 150.095C160.78 150.095 173.28 143.276 174.417 141.571C175.554 139.867 178.962 133.048 179.531 127.934C180.1 122.82 177.826 106.909 177.826 106.909C178.584 88.726 180.668 60.3145 179.531 51.2228C178.395 42.1311 176.311 39.8582 174.985 34.7441C174.985 34.7441 176.122 14.8561 176.122 8.0373C176.122 1.21854 171.576 -16.9648 171.576 -16.9648C171.576 -16.9648 173.281 -27.193 172.712 -31.1706C172.144 -35.1482 169.871 -45.9446 164.189 -49.354C158.507 -52.7633 138.05 -62.4233 138.05 -62.4233C138.05 -62.4233 114.753 -72.0832 114.185 -75.4925Z" fill="#F2CDAF"/>
<g filter="url(#filter0_f_956_10898)">
<path d="M32.025 -21.5107C32.025 -21.5107 37.1391 -23.7836 38.8438 -25.4883C40.5485 -27.193 47.5236 -36.3381 47.5236 -36.3381C47.5236 -36.3381 41.6849 -25.4883 41.6849 -23.2154C41.6849 -20.9425 43.6358 -7.62693 46.2308 -5.03201C48.8257 -2.43709 56.4589 -1.62263 60.4365 -1.62263C64.4141 -1.62263 91.121 -4.46378 92.2574 -5.60024C93.3939 -6.7367 95.6668 -11.2825 95.6668 -11.2825C95.6668 -11.2825 96.8033 -3.32732 95.6668 -2.19086C94.5303 -1.0544 60.4365 1.21852 56.4589 2.92321C52.4813 4.6279 56.4589 51.2228 57.5954 54.0639C58.7318 56.9051 68.3917 71.6791 68.3917 71.6791C68.3917 71.6791 54.186 59.7462 52.4813 60.3145C50.7766 60.8827 47.9355 71.6791 47.9355 71.6791C47.9355 71.6791 51.3448 54.6322 51.3448 51.791C51.3448 48.9499 44.5261 6.90083 44.5261 6.90083L45.2593 11.4467C45.2593 11.4467 40.5485 29.63 39.9802 33.6077C39.412 37.5853 39.412 60.3145 39.412 60.3145C39.412 60.3145 34.2979 40.9946 33.7297 37.017C33.1615 33.0394 30.3203 29.0618 30.3203 29.0618C30.3203 29.0618 34.2979 34.1759 35.4344 33.6077C36.5708 33.0394 41.1167 17.6972 41.6849 13.1514C42.2531 8.60551 38.8438 -21.5107 38.8438 -21.5107H32.025Z" fill="#DDB8A0"/>
</g>
<g filter="url(#filter1_f_956_10898)">
<path d="M159.245 -21.5107C159.245 -21.5107 154.13 -23.7836 152.426 -25.4883C150.721 -27.193 143.746 -36.3381 143.746 -36.3381C143.746 -36.3381 149.585 -25.4883 149.585 -23.2154C149.585 -20.9425 147.634 -7.62693 145.039 -5.03201C142.444 -2.43709 134.811 -1.62263 130.833 -1.62263C126.855 -1.62263 100.149 -4.46378 99.0121 -5.60024C97.8757 -6.7367 95.6649 -11.2825 95.6649 -11.2825C95.6649 -11.2825 94.5284 -3.32732 95.6649 -2.19086C96.8013 -1.0544 130.833 1.21852 134.811 2.92321C138.788 4.6279 134.811 51.2228 133.674 54.0639C132.538 56.9051 122.878 71.6791 122.878 71.6791C122.878 71.6791 137.084 59.7462 138.788 60.3145C140.493 60.8827 142.26 71.6791 142.26 71.6791C142.26 71.6791 139.925 54.6322 139.925 51.791C139.925 48.9499 146.743 6.90083 146.743 6.90083L146.01 11.4467C146.01 11.4467 150.721 29.63 151.289 33.6077C151.858 37.5853 151.858 60.3145 151.858 60.3145C151.858 60.3145 156.972 40.9946 157.54 37.017C158.108 33.0394 160.949 29.0618 160.949 29.0618C160.949 29.0618 156.972 34.1759 155.835 33.6077C154.699 33.0394 150.153 17.6972 149.585 13.1514C149.016 8.60551 152.426 -21.5107 152.426 -21.5107H159.245Z" fill="#DDB8A0"/>
</g>
<path d="M94.5331 46.6769C94.3437 34.744 93.5061 13.4922 93.9606 12.5831C94.7467 9.72932 95.2651 10.2894 96.2354 12.5831V46.6769C96.2354 46.6769 95.6651 56.9051 95.0969 55.7687C94.5287 54.6322 94.5331 46.6769 94.5331 46.6769Z" fill="#DEB9A1"/>
<path d="M93.3922 59.7463C91.6875 60.3145 91.6875 63.7239 91.6875 63.7239C91.6875 63.7239 92.8284 61.451 93.9604 61.451C95.0924 61.451 99.0745 63.1557 99.0745 63.1557C99.0745 63.1557 95.0969 59.1781 93.3922 59.7463Z" fill="#DEB9A1"/>
<g filter="url(#filter2_f_956_10898)">
<path d="M23.5 103.5L34.2964 77.3615L25.7729 105.205L27.4776 109.182L23.5 103.5Z" fill="#DEB9A1"/>
</g>
<g filter="url(#filter3_f_956_10898)">
<path d="M18.3852 133.616C16.6805 130.775 11.5664 130.207 11.5664 130.207C11.5664 130.207 13.8393 138.73 16.6805 141.571C19.5216 144.413 30.318 150.095 30.318 150.095L30.8862 149.527C28.7324 147.808 22.5112 143.783 21.7946 142.708C20.6581 141.003 20.0899 136.457 18.3852 133.616Z" fill="#DEB9A1"/>
</g>
<g filter="url(#filter4_f_956_10898)">
<path d="M167.262 103.5L156.465 77.3615L164.989 105.205L163.284 109.182L167.262 103.5Z" fill="#DEB9A1"/>
</g>
<g filter="url(#filter5_f_956_10898)">
<path d="M172.377 133.616C174.081 130.775 179.195 130.207 179.195 130.207C179.195 130.207 176.922 138.73 174.081 141.571C171.24 144.413 160.444 150.095 160.444 150.095L159.875 149.527C162.029 147.808 168.251 143.783 168.967 142.708C170.104 141.003 170.672 136.457 172.377 133.616Z" fill="#DEB9A1"/>
</g>
<g filter="url(#filter6_f_956_10898)">
<path d="M46.2305 132.543C46.2305 132.543 46.2305 126.229 46.7987 125.661C47.3669 125.093 78.0514 128.565 82.5972 130.838C87.143 133.111 91.6889 137.657 91.6889 137.657C91.7778 158.748 90.5524 183.621 89.9842 189.303C89.416 194.985 84.3019 220.555 84.3019 220.555C84.3019 220.555 80.8925 236.466 80.3243 239.875C79.8118 242.95 81.1482 252.959 81.4153 254.892C81.434 255.007 81.4492 255.116 81.4607 255.217C81.4607 255.217 81.4444 255.103 81.4153 254.892C80.8839 251.63 77.5295 243.335 75.2102 243.853C76.3467 241.012 78.0514 235.898 78.0514 232.488C78.0514 229.079 74.0738 231.415 74.0738 231.415C74.0738 231.415 75.7784 225.669 76.9149 223.965C78.0514 222.26 82.5972 216.01 82.5972 216.01L86.0066 166.637C86.0066 166.637 87.143 147.885 84.8701 144.476C82.5972 141.066 68.9597 133.679 65.5503 131.974C62.1409 130.27 52.481 129.702 50.7763 129.702C49.0716 129.702 46.2305 132.543 46.2305 132.543Z" fill="#DEB9A1"/>
</g>
<g filter="url(#filter7_f_956_10898)">
<path d="M145.672 132.543C145.672 132.543 145.672 126.229 145.104 125.661C144.535 125.093 112.151 128.565 107.605 130.838C103.059 133.111 99.1715 137.026 99.1715 137.026C99.0826 158.116 100.308 182.989 100.876 188.672C101.444 194.354 105.9 220.555 105.9 220.555C105.9 220.555 109.31 236.466 109.878 239.875C110.39 242.95 109.054 252.959 108.787 254.892C108.768 255.007 108.753 255.116 108.741 255.217C108.741 255.217 108.758 255.103 108.787 254.892C109.318 251.63 112.673 243.335 114.992 243.853C113.855 241.012 112.151 235.898 112.151 232.488C112.151 229.079 116.128 231.415 116.128 231.415C116.128 231.415 114.424 225.669 113.287 223.965C112.151 222.26 107.605 216.01 107.605 216.01L104.196 166.637C104.196 166.637 103.059 147.885 105.332 144.476C107.605 141.066 121.242 133.679 124.652 131.974C128.061 130.27 137.721 129.702 139.426 129.702C141.13 129.702 145.672 132.543 145.672 132.543Z" fill="#DEB9A1"/>
</g>
<path d="M142.83 77.9297C106.668 87.4072 85.2353 84.5382 47.9352 77.9297C46.7353 97.4608 46.2735 108.406 46.2305 127.934C46.2305 127.934 80.0463 126.277 84.8701 133.616C89.694 140.955 102.132 140.228 106.463 133.616C110.793 127.004 145.103 127.934 145.103 127.934C145.35 108.075 145.052 97.0724 142.83 77.9297Z" fill="#5A7EB5"/>
<g filter="url(#filter8_f_956_10898)">
<path d="M109.302 122.252C109.395 126.811 108.169 129.693 106.461 133.616C109.341 131.197 114.111 129.709 124.076 128.502C124.076 128.502 113.28 129.639 111.575 127.366C109.87 125.093 109.302 122.252 109.302 122.252Z" fill="#5073A8"/>
</g>
<g filter="url(#filter9_f_956_10898)">
<path d="M82.5963 122.252C82.5035 126.811 83.7291 129.693 85.4375 133.616C82.5574 131.197 77.7873 129.709 67.8224 128.502C67.8224 128.502 78.6187 129.639 80.3234 127.366C82.0281 125.093 82.5963 122.252 82.5963 122.252Z" fill="#5073A8"/>
</g>
<g filter="url(#filter10_f_956_10898)">
<path d="M46.2344 127.934C46.442 101.459 46.9829 93.0569 47.9391 77.9297C47.9391 77.9297 47.9391 88.7261 49.0711 100.659C47.9391 110.319 49.0582 120.534 50.7758 122.252C54.7534 126.229 58.1628 125.093 64.4133 126.229C70.6638 127.366 84.3058 131.912 84.3058 131.912L67.2589 127.934H46.2344Z" fill="#5073A8"/>
</g>
<g filter="url(#filter11_f_956_10898)">
<path d="M144.535 127.934C144.328 101.459 143.787 93.0569 142.83 77.9297C142.83 77.9297 142.83 88.7261 141.698 100.659C142.83 110.319 141.711 120.534 139.994 122.252C136.016 126.229 132.607 125.093 126.356 126.229C120.106 127.366 106.464 131.912 106.464 131.912L123.511 127.934H144.535Z" fill="#5073A8"/>
</g>
<rect x="162" y="93" width="20.6576" height="21.8727" rx="10.3288" fill="#FF4F42" fill-opacity="0.5"/>
<g opacity="0.7">
<rect x="165" y="95.9364" width="15" height="16" rx="7.5" fill="#FF0200"/>
</g>
</g>
<defs>
<filter id="filter0_f_956_10898" x="29.8203" y="-36.838" width="66.8516" height="109.017" filterUnits="userSpaceOnUse" color-interpolation-filters="sRGB">
<feFlood flood-opacity="0" result="BackgroundImageFix"/>
<feBlend mode="normal" in="SourceGraphic" in2="BackgroundImageFix" result="shape"/>
<feGaussianBlur stdDeviation="0.25" result="effect1_foregroundBlur_956_10898"/>
</filter>
<filter id="filter1_f_956_10898" x="94.6602" y="-36.838" width="66.7891" height="109.017" filterUnits="userSpaceOnUse" color-interpolation-filters="sRGB">
<feFlood flood-opacity="0" result="BackgroundImageFix"/>
<feBlend mode="normal" in="SourceGraphic" in2="BackgroundImageFix" result="shape"/>
<feGaussianBlur stdDeviation="0.25" result="effect1_foregroundBlur_956_10898"/>
</filter>
<filter id="filter2_f_956_10898" x="23" y="76.8615" width="11.7969" height="32.8209" filterUnits="userSpaceOnUse" color-interpolation-filters="sRGB">
<feFlood flood-opacity="0" result="BackgroundImageFix"/>
<feBlend mode="normal" in="SourceGraphic" in2="BackgroundImageFix" result="shape"/>
<feGaussianBlur stdDeviation="0.25" result="effect1_foregroundBlur_956_10898"/>
</filter>
<filter id="filter3_f_956_10898" x="11.0664" y="129.707" width="20.3203" height="20.8881" filterUnits="userSpaceOnUse" color-interpolation-filters="sRGB">
<feFlood flood-opacity="0" result="BackgroundImageFix"/>
<feBlend mode="normal" in="SourceGraphic" in2="BackgroundImageFix" result="shape"/>
<feGaussianBlur stdDeviation="0.25" result="effect1_foregroundBlur_956_10898"/>
</filter>
<filter id="filter4_f_956_10898" x="155.965" y="76.8615" width="11.7969" height="32.8209" filterUnits="userSpaceOnUse" color-interpolation-filters="sRGB">
<feFlood flood-opacity="0" result="BackgroundImageFix"/>
<feBlend mode="normal" in="SourceGraphic" in2="BackgroundImageFix" result="shape"/>
<feGaussianBlur stdDeviation="0.25" result="effect1_foregroundBlur_956_10898"/>
</filter>
<filter id="filter5_f_956_10898" x="159.375" y="129.707" width="20.3203" height="20.8881" filterUnits="userSpaceOnUse" color-interpolation-filters="sRGB">
<feFlood flood-opacity="0" result="BackgroundImageFix"/>
<feBlend mode="normal" in="SourceGraphic" in2="BackgroundImageFix" result="shape"/>
<feGaussianBlur stdDeviation="0.25" result="effect1_foregroundBlur_956_10898"/>
</filter>
<filter id="filter6_f_956_10898" x="45.7305" y="125.099" width="46.4648" height="130.618" filterUnits="userSpaceOnUse" color-interpolation-filters="sRGB">
<feFlood flood-opacity="0" result="BackgroundImageFix"/>
<feBlend mode="normal" in="SourceGraphic" in2="BackgroundImageFix" result="shape"/>
<feGaussianBlur stdDeviation="0.25" result="effect1_foregroundBlur_956_10898"/>
</filter>
<filter id="filter7_f_956_10898" x="98.668" y="125.099" width="47.5039" height="130.618" filterUnits="userSpaceOnUse" color-interpolation-filters="sRGB">
<feFlood flood-opacity="0" result="BackgroundImageFix"/>
<feBlend mode="normal" in="SourceGraphic" in2="BackgroundImageFix" result="shape"/>
<feGaussianBlur stdDeviation="0.25" result="effect1_foregroundBlur_956_10898"/>
</filter>
<filter id="filter8_f_956_10898" x="105.961" y="121.752" width="18.6133" height="12.3646" filterUnits="userSpaceOnUse" color-interpolation-filters="sRGB">
<feFlood flood-opacity="0" result="BackgroundImageFix"/>
<feBlend mode="normal" in="SourceGraphic" in2="BackgroundImageFix" result="shape"/>
<feGaussianBlur stdDeviation="0.25" result="effect1_foregroundBlur_956_10898"/>
</filter>
<filter id="filter9_f_956_10898" x="67.3242" y="121.752" width="18.6133" height="12.3646" filterUnits="userSpaceOnUse" color-interpolation-filters="sRGB">
<feFlood flood-opacity="0" result="BackgroundImageFix"/>
<feBlend mode="normal" in="SourceGraphic" in2="BackgroundImageFix" result="shape"/>
<feGaussianBlur stdDeviation="0.25" result="effect1_foregroundBlur_956_10898"/>
</filter>
<filter id="filter10_f_956_10898" x="45.7344" y="77.4297" width="39.0703" height="54.9819" filterUnits="userSpaceOnUse" color-interpolation-filters="sRGB">
<feFlood flood-opacity="0" result="BackgroundImageFix"/>
<feBlend mode="normal" in="SourceGraphic" in2="BackgroundImageFix" result="shape"/>
<feGaussianBlur stdDeviation="0.25" result="effect1_foregroundBlur_956_10898"/>
</filter>
<filter id="filter11_f_956_10898" x="105.965" y="77.4297" width="39.0703" height="54.9819" filterUnits="userSpaceOnUse" color-interpolation-filters="sRGB">
<feFlood flood-opacity="0" result="BackgroundImageFix"/>
<feBlend mode="normal" in="SourceGraphic" in2="BackgroundImageFix" result="shape"/>
<feGaussianBlur stdDeviation="0.25" result="effect1_foregroundBlur_956_10898"/>
</filter>
<clipPath id="clip0_956_10898">
<rect width="193" height="153" fill="white"/>
</clipPath>
</defs>
</svg>
