<svg width="193" height="153" viewBox="0 0 193 153" fill="none" xmlns="http://www.w3.org/2000/svg">
<g clip-path="url(#clip0_956_11388)">
<rect width="193" height="153" fill="white"/>
<path d="M77.5102 -115.385C78.0856 -118.837 78.661 -134.949 78.661 -134.949H96.5V98.0978H92.4712C92.4712 98.0978 91.3196 144.132 90.7449 151.037C90.1703 157.942 84.4153 188.44 84.4153 188.44L80.9627 205.127C80.9627 205.127 84.4145 233.323 84.4153 242.529C84.4161 251.736 78.0856 292.016 78.0856 292.016C79.2104 296.725 79.28 299.482 78.0856 304.675L80.9627 323.089C81.206 333.024 79.1154 335.043 73.4822 335.748C63.1774 335.543 65.6653 334.597 53.3424 331.145C41.0194 327.692 37.7324 327.311 39.1958 323.089C39.478 322.275 42.1378 319.528 45.5255 318.485C49.2079 317.352 53.7503 317.869 57.034 315.608C61.4037 312.599 61.6261 306.636 62.5491 304.675C62.1074 300.887 60.22 295.289 62.5491 290.865C62.5491 290.865 63.1254 287.413 62.5491 283.96C61.9729 280.507 52.1915 242.529 52.1915 233.323C52.1915 224.116 53.3424 205.127 53.3424 205.127L52.1915 188.44C52.1915 188.44 47.0127 151.037 45.8618 142.981C44.711 134.925 47.0127 87.1648 47.0127 87.1648C47.0127 87.1648 48.1643 41.7062 48.739 35.3766C49.3136 29.0469 51.6161 14.6613 51.6161 14.6613C50.3406 -5.21999 48.3457 -15.6865 44.711 -33.099L39.5322 -1.45061C39.5322 -1.45061 40.1068 15.8121 39.5322 21.5664C38.9575 27.3206 25.722 67.6003 25.722 67.6003C25.722 67.6003 32.0508 78.5334 33.2025 81.4105C34.3541 84.2877 34.3541 100.4 33.7779 102.126C33.2017 103.852 30.9016 102.701 30.3254 101.55C29.7491 100.4 26.2974 89.4665 26.2974 89.4665C26.2974 89.4665 23.4203 96.3716 24.5711 99.8241C25.722 103.277 33.7779 111.333 33.7779 111.333L30.3254 113.059C30.3254 113.059 17.6668 106.154 16.5152 104.428C15.3635 102.701 11.9126 95.7961 11.3363 90.6173C10.7601 85.4385 13.0626 69.3266 13.0626 69.3266C12.2954 50.913 10.1855 22.1418 11.3363 12.935C12.4872 3.72823 14.5971 1.42653 15.9397 -3.7523C15.9397 -3.7523 14.7889 -23.8922 14.7889 -30.7973C14.7889 -37.7023 19.3923 -56.1159 19.3923 -56.1159C19.3923 -56.1159 17.666 -66.4736 18.2414 -70.5015C18.8168 -74.5295 21.1185 -85.4626 26.8728 -88.9151C32.6271 -92.3677 53.3423 -102.15 53.3423 -102.15C53.3423 -102.15 76.9348 -111.932 77.5102 -115.385Z" fill="#F2CDAF"/>
<path d="M115.49 -115.385C114.914 -118.837 114.339 -134.949 114.339 -134.949H96.5V98.0978H100.529C100.529 98.0978 101.68 144.132 102.255 151.037C102.83 157.942 108.585 188.44 108.585 188.44L111.699 205.702C111.699 205.702 108.586 233.323 108.585 242.529C108.584 251.736 114.914 292.016 114.914 292.016C113.79 296.725 113.72 299.482 114.914 304.675L112.037 323.089C111.794 333.024 113.885 335.043 119.518 335.748C129.823 335.543 127.236 335.173 134.141 332.296C141.046 329.419 154.291 324.406 153.13 320.787C152.533 318.927 147.376 317.335 143.923 317.335C139.32 316.184 136.675 316.275 134.141 314.728C131.134 312.893 132.106 306.465 131.264 304.675C131.705 300.887 132.78 295.289 130.451 290.865C130.451 290.865 129.875 287.413 130.451 283.96C131.027 280.507 139.32 242.529 139.32 233.323V205.127L139.895 188.44C139.895 188.44 144.836 151.037 145.987 142.981C147.138 134.925 146.8 87.1648 146.8 87.1648C146.8 87.1648 144.836 41.7062 144.261 35.3766C143.686 29.0469 141.384 14.6613 141.384 14.6613C142.659 -5.21999 144.654 -15.6865 148.289 -33.099L153.468 -1.45061C153.468 -1.45061 152.893 15.8121 153.468 21.5664C154.042 27.3206 167.278 67.6003 167.278 67.6003C167.278 67.6003 160.949 78.5334 159.798 81.4105C158.646 84.2877 158.646 100.4 159.222 102.126C159.798 103.852 162.098 102.701 162.675 101.55C163.251 100.4 166.703 89.4665 166.703 89.4665C166.703 89.4665 169.58 96.3716 168.429 99.8241C167.278 103.277 159.222 111.333 159.222 111.333L162.675 113.059C162.675 113.059 175.333 106.154 176.485 104.428C177.636 102.701 181.087 95.7961 181.664 90.6173C182.24 85.4385 179.937 69.3266 179.937 69.3266C180.705 50.913 182.814 22.1418 181.664 12.935C180.513 3.72823 178.403 1.42653 177.06 -3.7523C177.06 -3.7523 178.211 -23.8922 178.211 -30.7973C178.211 -37.7023 173.608 -56.1159 173.608 -56.1159C173.608 -56.1159 175.334 -66.4736 174.759 -70.5015C174.183 -74.5295 171.881 -85.4626 166.127 -88.9151C160.373 -92.3677 139.658 -102.15 139.658 -102.15C139.658 -102.15 116.065 -111.932 115.49 -115.385Z" fill="#F2CDAF"/>
<g filter="url(#filter0_f_956_11388)">
<path d="M39.1939 -60.7194V-64.7473C39.1939 -64.7473 42.071 -64.7473 42.071 -62.4456C42.071 -60.1439 45.14 -50.7303 46.6744 -44.0321C48.2007 -37.3687 56.192 -36.4421 60.9849 -40.515C60.9849 -40.515 62.2109 -41.7304 61.06 -40.5795C61.0351 -40.5579 61.01 -40.5364 60.9849 -40.515C60.9849 -40.515 61.06 -39.4287 59.9092 -38.2778C58.7583 -37.127 59.3337 -38.2778 57.032 -35.9761C54.7303 -33.6744 57.032 12.935 58.1829 15.8121C59.3337 18.6892 69.1159 33.6503 69.1159 33.6503C69.1159 33.6503 54.7303 21.5664 53.0041 22.1418C51.2778 22.7172 48.4007 33.6503 48.4007 33.6503C48.4007 33.6503 51.8532 16.3875 51.8532 13.5104C51.8532 10.6333 44.9481 -31.9481 44.9481 -31.9481L45.6907 -27.3447C45.6907 -27.3447 40.9201 -8.93114 40.3447 -4.90318C39.7693 -0.875202 39.7693 22.1418 39.7693 22.1418C39.7693 22.1418 34.5905 2.57735 34.015 -1.45063C33.4396 -5.4786 30.5625 -9.50657 30.5625 -9.50657C30.5625 -9.50657 34.5905 -4.32775 35.7413 -4.90318C36.8922 -5.4786 41.4956 -21.0151 42.071 -25.6185C42.6464 -30.2219 39.1939 -60.7194 39.1939 -60.7194Z" fill="#DDB8A0"/>
</g>
<g filter="url(#filter1_f_956_11388)">
<path d="M153.705 -64.7473C155.431 -63.021 153.129 -65.3227 153.129 -65.3227C153.129 -65.3227 152.284 -66.1682 153.129 -65.3227C153.124 -65.3213 150.827 -64.7445 150.827 -62.4456C150.827 -60.1439 147.758 -50.7303 146.224 -44.032C144.698 -37.3686 136.706 -36.442 131.914 -40.515C131.914 -40.515 130.688 -41.7303 131.838 -40.5794C131.863 -40.5578 131.888 -40.5363 131.914 -40.515C131.914 -40.515 131.838 -39.4286 132.989 -38.2777C134.14 -37.1269 133.565 -38.2777 135.866 -35.976C138.168 -33.6743 135.866 12.9351 134.716 15.8122C133.565 18.6893 123.782 33.6503 123.782 33.6503C123.782 33.6503 138.168 21.5664 139.894 22.1418C141.621 22.7173 144.498 33.6503 144.498 33.6503C144.498 33.6503 141.045 16.3876 141.045 13.5105C141.045 10.6334 147.95 -31.9481 147.95 -31.9481L147.208 -27.3447C147.208 -27.3447 151.978 -8.93108 152.554 -4.90311C153.129 -0.875137 153.129 22.1418 153.129 22.1418C153.129 22.1418 158.308 2.57741 158.883 -1.45056C159.459 -5.47854 162.336 -9.50651 162.336 -9.50651C162.336 -9.50651 158.308 -4.32769 157.157 -4.90311C156.006 -5.47854 151.403 -21.015 150.827 -25.6184C150.252 -30.2218 153.705 -60.7193 153.705 -60.7193L153.129 -65.3227C153.27 -65.1818 153.458 -64.9939 153.705 -64.7473Z" fill="#DDB8A0"/>
</g>
<path d="M95.5937 8.33153C95.4019 -3.75238 94.5537 -25.2733 95.014 -26.1939C95.81 -29.0838 96.335 -28.5167 97.3176 -26.1939V8.33153C97.3176 8.33153 96.74 18.6893 96.1646 17.5385C95.5892 16.3876 95.5937 8.33153 95.5937 8.33153Z" fill="#DEB9A1"/>
<g filter="url(#filter2_f_956_11388)">
<path d="M23.6602 65.8741L34.5932 39.4045L25.9619 67.6003L27.6881 71.6283L23.6602 65.8741Z" fill="#DEB9A1"/>
</g>
<g filter="url(#filter3_f_956_11388)">
<path d="M18.4793 96.3716C16.753 93.4945 11.5742 92.9191 11.5742 92.9191C11.5742 92.9191 13.8759 101.55 16.753 104.428C19.6302 107.305 30.5632 113.059 30.5632 113.059L31.1387 112.484C28.9576 110.744 22.6575 106.667 21.9319 105.578C20.781 103.852 20.2056 99.2487 18.4793 96.3716Z" fill="#DEB9A1"/>
</g>
<g filter="url(#filter4_f_956_11388)">
<path d="M169.242 65.8741L158.309 39.4045L166.94 67.6003L165.214 71.6283L169.242 65.8741Z" fill="#DEB9A1"/>
</g>
<g filter="url(#filter5_f_956_11388)">
<path d="M174.419 96.3716C176.145 93.4945 181.324 92.9191 181.324 92.9191C181.324 92.9191 179.023 101.55 176.145 104.428C173.268 107.305 162.335 113.059 162.335 113.059L161.76 112.484C163.941 110.744 170.241 106.667 170.967 105.578C172.117 103.852 172.693 99.2487 174.419 96.3716Z" fill="#DEB9A1"/>
</g>
<g filter="url(#filter6_f_956_11388)">
<path d="M46.6758 95.2845C46.6758 95.2845 46.6758 88.8912 47.2512 88.3157C47.8266 87.7403 78.8996 91.2565 83.503 93.5583C88.1064 95.86 92.7098 100.463 92.7098 100.463C92.7998 121.821 91.5589 147.009 90.9835 152.763C90.4081 158.517 85.2292 184.412 85.2292 184.412C85.2292 184.412 81.7767 200.524 81.2013 203.976C80.6823 207.09 82.0356 217.225 82.3061 219.183C82.325 219.3 82.3404 219.409 82.3521 219.513C82.3521 219.513 82.3355 219.396 82.3061 219.183C81.7679 215.879 78.3711 207.48 76.0224 208.004C77.1733 205.127 78.8996 199.948 78.8996 196.496C78.8996 193.043 74.8716 195.408 74.8716 195.408C74.8716 195.408 76.5979 189.59 77.7487 187.864C78.8996 186.138 83.503 179.808 83.503 179.808L86.9555 129.81C86.9555 129.81 88.1064 110.821 85.8047 107.368C83.503 103.916 67.3911 99.8242 63.9385 98.0979C60.486 96.3717 53.0055 92.4074 51.2792 92.4074C49.5529 92.4074 46.6758 95.2845 46.6758 95.2845Z" fill="#DEB9A1"/>
</g>
<g filter="url(#filter7_f_956_11388)">
<path d="M146.801 95.7964C146.801 95.7964 146.801 89.4666 146.225 88.8912C145.65 88.3157 113.431 91.2567 108.828 93.5584C104.224 95.8601 100.288 99.8243 100.288 99.8243C100.198 121.182 101.438 146.37 102.014 152.124C102.589 157.878 107.101 184.412 107.101 184.412C107.101 184.412 110.554 200.524 111.129 203.976C111.648 207.09 110.295 217.225 110.025 219.183C110.006 219.3 109.99 219.41 109.979 219.513C109.979 219.513 109.995 219.396 110.025 219.183C110.563 215.88 113.96 207.48 116.308 208.004C115.157 205.127 113.431 199.948 113.431 196.496C113.431 193.043 117.459 195.409 117.459 195.409C117.459 195.409 115.733 189.591 114.582 187.864C113.431 186.138 108.828 179.808 108.828 179.808L105.375 129.81C105.375 129.81 104.224 110.821 106.526 107.369C108.828 103.916 126.086 101.551 129.539 99.8243C132.991 98.0981 139.325 92.4075 141.052 92.4075C142.778 92.4075 146.801 95.7964 146.801 95.7964Z" fill="#DEB9A1"/>
</g>
<path d="M144.498 39.98C108.21 45.1287 86.4586 41.9731 48.4021 39.98C47.1871 59.7583 46.7194 70.8421 46.6758 90.6173C46.6758 90.6173 53.0082 94.6453 62.7877 96.947C72.5671 99.2487 90.5058 99.303 92.7098 98.6733C96.7377 97.5224 95.5869 97.5224 100.766 98.6733C103.064 99.1841 106.52 101.55 125.509 98.6733C144.498 95.7962 146.8 90.6173 146.8 90.6173C147.05 70.5066 146.748 59.3651 144.498 39.98Z" fill="#5A7EB5"/>
<g filter="url(#filter8_f_956_11388)">
<path d="M96.1641 91.7682C99.6132 99.2487 94.4502 98.8675 89.8345 99.2487C80.0567 98.7132 74.8737 98.6733 69.6948 96.947C69.6948 96.947 89.8326 97.5224 92.1364 95.7962C94.4401 94.0699 96.1641 91.7682 96.1641 91.7682Z" fill="#5073A8"/>
</g>
<g filter="url(#filter9_f_956_11388)">
<path d="M46.6758 91.1928C46.886 64.383 47.4382 56.4496 48.4066 41.1309C48.4066 41.1309 48.4066 52.0639 49.5529 64.1478C48.4066 73.9301 49.5398 84.2746 51.2792 86.014C55.3072 90.0419 57.6088 92.3436 63.9385 93.4945C70.2682 94.6453 77.1733 98.0979 77.1733 98.0979C77.1733 98.0979 69.1173 98.0979 62.2122 96.947C55.3072 95.7962 46.6758 91.1928 46.6758 91.1928Z" fill="#5073A8"/>
</g>
<g filter="url(#filter10_f_956_11388)">
<path d="M96.1599 91.7682C94.4348 98.0979 97.8738 98.8675 102.49 99.2487C112.272 100.057 118.026 100.4 123.205 98.6733C123.205 98.6733 102.491 97.5224 100.188 95.7962C97.8839 94.0699 96.1599 91.7682 96.1599 91.7682Z" fill="#5073A8"/>
</g>
<g filter="url(#filter11_f_956_11388)">
<path d="M146.801 90.6174C146.591 63.8076 145.463 56.4496 144.495 41.1309C144.495 41.1309 144.495 52.0639 143.348 64.1478C144.495 73.9301 143.361 84.2746 141.622 86.014C137.594 90.042 134.141 94.0699 127.812 95.2208C121.482 96.3716 115.728 98.0979 115.728 98.0979C115.728 98.0979 123.208 99.8242 130.689 98.0979C138.169 96.3716 146.801 90.6174 146.801 90.6174Z" fill="#5073A8"/>
</g>
<rect x="47" y="28" width="20.6576" height="21.8727" rx="10.3288" fill="#FF0000" fill-opacity="0.5"/>
<g opacity="0.7">
<rect x="50" y="30.9364" width="15" height="16" rx="7.5" fill="#FF0000"/>
</g>
</g>
<defs>
<filter id="filter0_f_956_11388" x="30.0625" y="-65.2473" width="39.5547" height="99.3976" filterUnits="userSpaceOnUse" color-interpolation-filters="sRGB">
<feFlood flood-opacity="0" result="BackgroundImageFix"/>
<feBlend mode="normal" in="SourceGraphic" in2="BackgroundImageFix" result="shape"/>
<feGaussianBlur stdDeviation="0.25" result="effect1_foregroundBlur_956_11388"/>
</filter>
<filter id="filter1_f_956_11388" x="123.281" y="-66.1985" width="39.5547" height="100.349" filterUnits="userSpaceOnUse" color-interpolation-filters="sRGB">
<feFlood flood-opacity="0" result="BackgroundImageFix"/>
<feBlend mode="normal" in="SourceGraphic" in2="BackgroundImageFix" result="shape"/>
<feGaussianBlur stdDeviation="0.25" result="effect1_foregroundBlur_956_11388"/>
</filter>
<filter id="filter2_f_956_11388" x="23.1602" y="38.9045" width="11.9336" height="33.2238" filterUnits="userSpaceOnUse" color-interpolation-filters="sRGB">
<feFlood flood-opacity="0" result="BackgroundImageFix"/>
<feBlend mode="normal" in="SourceGraphic" in2="BackgroundImageFix" result="shape"/>
<feGaussianBlur stdDeviation="0.25" result="effect1_foregroundBlur_956_11388"/>
</filter>
<filter id="filter3_f_956_11388" x="11.0742" y="92.4191" width="20.5625" height="21.1399" filterUnits="userSpaceOnUse" color-interpolation-filters="sRGB">
<feFlood flood-opacity="0" result="BackgroundImageFix"/>
<feBlend mode="normal" in="SourceGraphic" in2="BackgroundImageFix" result="shape"/>
<feGaussianBlur stdDeviation="0.25" result="effect1_foregroundBlur_956_11388"/>
</filter>
<filter id="filter4_f_956_11388" x="157.809" y="38.9045" width="11.9336" height="33.2238" filterUnits="userSpaceOnUse" color-interpolation-filters="sRGB">
<feFlood flood-opacity="0" result="BackgroundImageFix"/>
<feBlend mode="normal" in="SourceGraphic" in2="BackgroundImageFix" result="shape"/>
<feGaussianBlur stdDeviation="0.25" result="effect1_foregroundBlur_956_11388"/>
</filter>
<filter id="filter5_f_956_11388" x="161.262" y="92.4191" width="20.5625" height="21.1399" filterUnits="userSpaceOnUse" color-interpolation-filters="sRGB">
<feFlood flood-opacity="0" result="BackgroundImageFix"/>
<feBlend mode="normal" in="SourceGraphic" in2="BackgroundImageFix" result="shape"/>
<feGaussianBlur stdDeviation="0.25" result="effect1_foregroundBlur_956_11388"/>
</filter>
<filter id="filter6_f_956_11388" x="46.1758" y="87.7531" width="47.0391" height="132.259" filterUnits="userSpaceOnUse" color-interpolation-filters="sRGB">
<feFlood flood-opacity="0" result="BackgroundImageFix"/>
<feBlend mode="normal" in="SourceGraphic" in2="BackgroundImageFix" result="shape"/>
<feGaussianBlur stdDeviation="0.25" result="effect1_foregroundBlur_956_11388"/>
</filter>
<filter id="filter7_f_956_11388" x="99.7812" y="88.3181" width="47.5195" height="131.695" filterUnits="userSpaceOnUse" color-interpolation-filters="sRGB">
<feFlood flood-opacity="0" result="BackgroundImageFix"/>
<feBlend mode="normal" in="SourceGraphic" in2="BackgroundImageFix" result="shape"/>
<feGaussianBlur stdDeviation="0.25" result="effect1_foregroundBlur_956_11388"/>
</filter>
<filter id="filter8_f_956_11388" x="69.1953" y="91.2682" width="28.5938" height="8.48047" filterUnits="userSpaceOnUse" color-interpolation-filters="sRGB">
<feFlood flood-opacity="0" result="BackgroundImageFix"/>
<feBlend mode="normal" in="SourceGraphic" in2="BackgroundImageFix" result="shape"/>
<feGaussianBlur stdDeviation="0.25" result="effect1_foregroundBlur_956_11388"/>
</filter>
<filter id="filter9_f_956_11388" x="46.1758" y="40.6309" width="31.4961" height="57.967" filterUnits="userSpaceOnUse" color-interpolation-filters="sRGB">
<feFlood flood-opacity="0" result="BackgroundImageFix"/>
<feBlend mode="normal" in="SourceGraphic" in2="BackgroundImageFix" result="shape"/>
<feGaussianBlur stdDeviation="0.25" result="effect1_foregroundBlur_956_11388"/>
</filter>
<filter id="filter10_f_956_11388" x="95.207" y="91.2682" width="28.4961" height="9.14514" filterUnits="userSpaceOnUse" color-interpolation-filters="sRGB">
<feFlood flood-opacity="0" result="BackgroundImageFix"/>
<feBlend mode="normal" in="SourceGraphic" in2="BackgroundImageFix" result="shape"/>
<feGaussianBlur stdDeviation="0.25" result="effect1_foregroundBlur_956_11388"/>
</filter>
<filter id="filter11_f_956_11388" x="115.227" y="40.6309" width="32.0742" height="58.7343" filterUnits="userSpaceOnUse" color-interpolation-filters="sRGB">
<feFlood flood-opacity="0" result="BackgroundImageFix"/>
<feBlend mode="normal" in="SourceGraphic" in2="BackgroundImageFix" result="shape"/>
<feGaussianBlur stdDeviation="0.25" result="effect1_foregroundBlur_956_11388"/>
</filter>
<clipPath id="clip0_956_11388">
<rect width="193" height="153" fill="white"/>
</clipPath>
</defs>
</svg>
