<svg width="193" height="153" viewBox="0 0 193 153" fill="none" xmlns="http://www.w3.org/2000/svg">
<g clip-path="url(#clip0_956_11602)">
<rect width="193" height="153" fill="white"/>
<path d="M77.5102 -307.385C78.0856 -310.837 78.661 -326.949 78.661 -326.949H96.5V-93.9022H92.4712C92.4712 -93.9022 91.3196 -47.8682 90.7449 -40.9631C90.1703 -34.058 84.4153 -3.56049 84.4153 -3.56049L80.9627 13.1268C80.9627 13.1268 84.4145 41.3226 84.4153 50.5294C84.4161 59.7362 78.0856 100.016 78.0856 100.016C79.2104 104.725 79.28 107.482 78.0856 112.675L80.9627 131.089C81.206 141.024 79.1154 143.043 73.4822 143.748C63.1774 143.543 65.6653 142.597 53.3424 139.145C41.0194 135.692 37.7324 135.311 39.1958 131.089C39.478 130.275 42.1378 127.528 45.5255 126.485C49.2079 125.352 53.7503 125.869 57.034 123.608C61.4037 120.599 61.6261 114.636 62.5491 112.675C62.1074 108.887 60.22 103.289 62.5491 98.8651C62.5491 98.8651 63.1254 95.4125 62.5491 91.96C61.9729 88.5074 52.1915 50.5294 52.1915 41.3226C52.1915 32.1158 53.3424 13.1268 53.3424 13.1268L52.1915 -3.56049C52.1915 -3.56049 47.0127 -40.9631 45.8618 -49.019C44.711 -57.075 47.0127 -104.835 47.0127 -104.835C47.0127 -104.835 48.1643 -150.294 48.739 -156.623C49.3136 -162.953 51.6161 -177.339 51.6161 -177.339C50.3406 -197.22 48.3457 -207.686 44.711 -225.099L39.5322 -193.451C39.5322 -193.451 40.1068 -176.188 39.5322 -170.434C38.9575 -164.679 25.722 -124.4 25.722 -124.4C25.722 -124.4 32.0508 -113.467 33.2025 -110.589C34.3541 -107.712 34.3541 -91.6004 33.7779 -89.8742C33.2017 -88.1479 30.9016 -89.2988 30.3254 -90.4496C29.7491 -91.6004 26.2974 -102.534 26.2974 -102.534C26.2974 -102.534 23.4203 -95.6284 24.5711 -92.1759C25.722 -88.7233 33.7779 -80.6674 33.7779 -80.6674L30.3254 -78.9411C30.3254 -78.9411 17.6668 -85.8462 16.5152 -87.5725C15.3635 -89.2988 11.9126 -96.2039 11.3363 -101.383C10.7601 -106.561 13.0626 -122.673 13.0626 -122.673C12.2954 -141.087 10.1855 -169.858 11.3363 -179.065C12.4872 -188.272 14.5971 -190.573 15.9397 -195.752C15.9397 -195.752 14.7889 -215.892 14.7889 -222.797C14.7889 -229.702 19.3923 -248.116 19.3923 -248.116C19.3923 -248.116 17.666 -258.474 18.2414 -262.502C18.8168 -266.53 21.1185 -277.463 26.8728 -280.915C32.6271 -284.368 53.3423 -294.15 53.3423 -294.15C53.3423 -294.15 76.9348 -303.932 77.5102 -307.385Z" fill="#F2CDAF"/>
<path d="M115.49 -307.385C114.914 -310.837 114.339 -326.949 114.339 -326.949H96.5V-93.9022H100.529C100.529 -93.9022 101.68 -47.8682 102.255 -40.9631C102.83 -34.058 108.585 -3.56049 108.585 -3.56049L111.699 13.7022C111.699 13.7022 108.586 41.3226 108.585 50.5294C108.584 59.7362 114.914 100.016 114.914 100.016C113.79 104.725 113.72 107.482 114.914 112.675L112.037 131.089C111.794 141.024 113.885 143.043 119.518 143.748C129.823 143.543 127.236 143.173 134.141 140.296C141.046 137.419 154.291 132.406 153.13 128.787C152.533 126.927 147.376 125.335 143.923 125.335C139.32 124.184 136.675 124.275 134.141 122.728C131.134 120.893 132.106 114.465 131.264 112.675C131.705 108.887 132.78 103.289 130.451 98.8651C130.451 98.8651 129.875 95.4125 130.451 91.96C131.027 88.5074 139.32 50.5294 139.32 41.3226V13.1268L139.895 -3.56049C139.895 -3.56049 144.836 -40.9631 145.987 -49.019C147.138 -57.075 146.8 -104.835 146.8 -104.835C146.8 -104.835 144.836 -150.294 144.261 -156.623C143.686 -162.953 141.384 -177.339 141.384 -177.339C142.659 -197.22 144.654 -207.686 148.289 -225.099L153.468 -193.451C153.468 -193.451 152.893 -176.188 153.468 -170.434C154.042 -164.679 167.278 -124.4 167.278 -124.4C167.278 -124.4 160.949 -113.467 159.798 -110.589C158.646 -107.712 158.646 -91.6004 159.222 -89.8742C159.798 -88.1479 162.098 -89.2988 162.675 -90.4496C163.251 -91.6004 166.703 -102.534 166.703 -102.534C166.703 -102.534 169.58 -95.6284 168.429 -92.1759C167.278 -88.7233 159.222 -80.6674 159.222 -80.6674L162.675 -78.9411C162.675 -78.9411 175.333 -85.8462 176.485 -87.5725C177.636 -89.2988 181.087 -96.2039 181.664 -101.383C182.24 -106.561 179.937 -122.673 179.937 -122.673C180.705 -141.087 182.814 -169.858 181.664 -179.065C180.513 -188.272 178.403 -190.573 177.06 -195.752C177.06 -195.752 178.211 -215.892 178.211 -222.797C178.211 -229.702 173.608 -248.116 173.608 -248.116C173.608 -248.116 175.334 -258.474 174.759 -262.502C174.183 -266.53 171.881 -277.463 166.127 -280.915C160.373 -284.368 139.658 -294.15 139.658 -294.15C139.658 -294.15 116.065 -303.932 115.49 -307.385Z" fill="#F2CDAF"/>
<g filter="url(#filter0_f_956_11602)">
<path d="M46.6758 -96.7155C46.6758 -96.7155 46.6758 -103.109 47.2512 -103.684C47.8266 -104.26 78.8996 -100.743 83.503 -98.4417C88.1064 -96.14 92.7098 -91.5367 92.7098 -91.5367C92.7998 -70.1789 91.5589 -44.9909 90.9835 -39.2367C90.4081 -33.4825 85.2292 -7.58837 85.2292 -7.58837C85.2292 -7.58837 81.7767 8.52354 81.2013 11.976C80.6823 15.0899 82.0356 25.2252 82.3061 27.1833C82.325 27.2996 82.3404 27.4095 82.3521 27.5125C82.3521 27.5125 82.3355 27.3963 82.3061 27.1833C81.7679 23.8794 78.3711 15.4797 76.0224 16.004C77.1733 13.127 78.8996 7.94804 78.8996 4.49554C78.8996 1.04304 74.8716 3.40839 74.8716 3.40839C74.8716 3.40839 76.5979 -2.4096 77.7487 -4.13583C78.8996 -5.86206 83.503 -12.1918 83.503 -12.1918L86.9555 -62.19C86.9555 -62.19 88.1064 -81.179 85.8047 -84.6316C83.503 -88.0841 67.3911 -92.1758 63.9385 -93.9021C60.486 -95.6283 53.0055 -99.5926 51.2792 -99.5926C49.5529 -99.5926 46.6758 -96.7155 46.6758 -96.7155Z" fill="#DEB9A1"/>
</g>
<g filter="url(#filter1_f_956_11602)">
<path d="M146.801 -96.2036C146.801 -96.2036 146.801 -102.533 146.225 -103.109C145.65 -103.684 113.431 -100.743 108.828 -98.4416C104.224 -96.1399 100.288 -92.1757 100.288 -92.1757C100.198 -70.8179 101.438 -45.63 102.014 -39.8758C102.589 -34.1216 107.101 -7.58823 107.101 -7.58823C107.101 -7.58823 110.554 8.52368 111.129 11.9762C111.648 15.0901 110.295 25.2253 110.025 27.1835C110.006 27.2997 109.99 27.4096 109.979 27.5126C109.979 27.5126 109.995 27.3964 110.025 27.1835C110.563 23.8796 113.96 15.4799 116.308 16.0042C115.157 13.1271 113.431 7.94818 113.431 4.49568C113.431 1.04317 117.459 3.40853 117.459 3.40853C117.459 3.40853 115.733 -2.40945 114.582 -4.13569C113.431 -5.86192 108.828 -12.1916 108.828 -12.1916L105.375 -62.1899C105.375 -62.1899 104.224 -81.1789 106.526 -84.6314C108.828 -88.084 126.086 -90.4494 129.539 -92.1757C132.991 -93.9019 139.325 -99.5925 141.052 -99.5925C142.778 -99.5925 146.801 -96.2036 146.801 -96.2036Z" fill="#DEB9A1"/>
</g>
<g filter="url(#filter2_f_956_11602)">
<path d="M57.6109 1.61831C55.0196 -1.08745 53.0057 -1.83424 51.2812 -11.6165L53.0075 9.67425V25.7861C53.0075 25.7861 53.5829 21.1827 54.7338 19.4565C55.8846 17.7302 61.0635 18.881 61.0635 18.881C61.0635 18.881 55.3092 17.1548 54.7338 12.5514C54.1584 7.94798 53.5829 3.34458 54.7338 2.19373C55.8846 1.04288 56.8437 1.61831 57.6109 1.61831Z" fill="#DEB9A1"/>
</g>
<g filter="url(#filter3_f_956_11602)">
<path d="M134.721 1.61831C137.312 -1.08745 139.326 -1.83424 141.051 -11.6165L139.325 9.67425V25.7861C139.325 25.7861 138.749 21.1827 137.598 19.4565C136.447 17.7302 131.269 18.881 131.269 18.881C131.269 18.881 137.023 17.1548 137.598 12.5514C138.174 7.94798 138.749 3.34458 137.598 2.19373C136.447 1.04288 135.488 1.61831 134.721 1.61831Z" fill="#DEB9A1"/>
</g>
<g filter="url(#filter4_f_956_11602)">
<path d="M76.0231 98.8651C77.856 98.2761 78.2421 96.8583 78.9003 94.2617L78.3248 100.016C78.3248 100.016 78.9003 104.044 78.9003 106.346C78.9003 108.647 78.3248 112.675 78.3248 112.675C78.3248 112.675 80.0511 127.636 80.6265 129.938C81.202 132.24 80.6265 136.268 80.6265 136.268V132.24C80.6265 131.089 79.4757 127.636 78.3248 124.184C77.174 120.731 74.2969 114.402 74.2969 114.402C74.2969 114.402 76.5986 113.826 77.174 112.675C77.7494 111.524 77.7494 109.223 77.7494 106.921C77.7494 104.619 77.174 100.591 77.174 100.591L76.0231 98.8651Z" fill="#DEB9A1"/>
</g>
<g filter="url(#filter5_f_956_11602)">
<path d="M117.133 98.8651C115.3 98.2761 114.914 96.8583 114.256 94.2617L114.831 100.016C114.831 100.016 114.256 104.044 114.256 106.346C114.256 108.647 114.831 112.675 114.831 112.675C114.831 112.675 113.105 127.636 112.53 129.938C111.954 132.24 112.53 136.268 112.53 136.268V132.24C112.53 131.089 113.681 127.636 114.831 124.184C115.982 120.731 118.859 114.402 118.859 114.402C118.859 114.402 116.558 113.826 115.982 112.675C115.407 111.524 115.407 109.223 115.407 106.921C115.407 104.619 115.982 100.591 115.982 100.591L117.133 98.8651Z" fill="#DEB9A1"/>
</g>
<rect x="112" y="36" width="20.6576" height="21.8727" rx="10.3288" fill="#FF0000" fill-opacity="0.5"/>
<g opacity="0.7">
<rect x="115" y="38.9364" width="15" height="16" rx="7.5" fill="#FF0000"/>
</g>
</g>
<defs>
<filter id="filter0_f_956_11602" x="46.1758" y="-104.247" width="47.0391" height="132.259" filterUnits="userSpaceOnUse" color-interpolation-filters="sRGB">
<feFlood flood-opacity="0" result="BackgroundImageFix"/>
<feBlend mode="normal" in="SourceGraphic" in2="BackgroundImageFix" result="shape"/>
<feGaussianBlur stdDeviation="0.25" result="effect1_foregroundBlur_956_11602"/>
</filter>
<filter id="filter1_f_956_11602" x="99.7812" y="-103.682" width="47.5195" height="131.695" filterUnits="userSpaceOnUse" color-interpolation-filters="sRGB">
<feFlood flood-opacity="0" result="BackgroundImageFix"/>
<feBlend mode="normal" in="SourceGraphic" in2="BackgroundImageFix" result="shape"/>
<feGaussianBlur stdDeviation="0.25" result="effect1_foregroundBlur_956_11602"/>
</filter>
<filter id="filter2_f_956_11602" x="50.7812" y="-12.1165" width="10.7812" height="38.4026" filterUnits="userSpaceOnUse" color-interpolation-filters="sRGB">
<feFlood flood-opacity="0" result="BackgroundImageFix"/>
<feBlend mode="normal" in="SourceGraphic" in2="BackgroundImageFix" result="shape"/>
<feGaussianBlur stdDeviation="0.25" result="effect1_foregroundBlur_956_11602"/>
</filter>
<filter id="filter3_f_956_11602" x="130.77" y="-12.1165" width="10.7812" height="38.4026" filterUnits="userSpaceOnUse" color-interpolation-filters="sRGB">
<feFlood flood-opacity="0" result="BackgroundImageFix"/>
<feBlend mode="normal" in="SourceGraphic" in2="BackgroundImageFix" result="shape"/>
<feGaussianBlur stdDeviation="0.25" result="effect1_foregroundBlur_956_11602"/>
</filter>
<filter id="filter4_f_956_11602" x="73.7969" y="93.7617" width="7.58594" height="43.006" filterUnits="userSpaceOnUse" color-interpolation-filters="sRGB">
<feFlood flood-opacity="0" result="BackgroundImageFix"/>
<feBlend mode="normal" in="SourceGraphic" in2="BackgroundImageFix" result="shape"/>
<feGaussianBlur stdDeviation="0.25" result="effect1_foregroundBlur_956_11602"/>
</filter>
<filter id="filter5_f_956_11602" x="111.773" y="93.7617" width="7.58594" height="43.006" filterUnits="userSpaceOnUse" color-interpolation-filters="sRGB">
<feFlood flood-opacity="0" result="BackgroundImageFix"/>
<feBlend mode="normal" in="SourceGraphic" in2="BackgroundImageFix" result="shape"/>
<feGaussianBlur stdDeviation="0.25" result="effect1_foregroundBlur_956_11602"/>
</filter>
<clipPath id="clip0_956_11602">
<rect width="193" height="153" fill="white"/>
</clipPath>
</defs>
</svg>
