<svg width="393" height="835" viewBox="0 0 393 835" fill="none" xmlns="http://www.w3.org/2000/svg">
<g clip-path="url(#clip0_812_7630)">
<rect width="393" height="835" rx="40" fill="white"/>
<path d="M174.142 13.5428C190.154 -19.558 151.182 -63.2285 106.226 -30.1025L74.5867 -50.4351C107.063 -88.695 199.923 -103.31 216.356 -15.8681C227.222 41.9466 151.924 113.589 126.031 119.099C100.137 124.609 99.2484 132.13 85.8907 140.639C72.5329 149.148 57.2075 162.766 22.581 140.514C-12.0454 118.262 2.44301 61.8267 2.44301 61.8267L33.1518 81.5613C27.9851 99.3055 50.9287 123.43 65.4153 109.072C79.9018 94.7141 87.8104 90.5923 113.464 83.4103C139.117 76.2283 158.13 46.6436 174.142 13.5428Z" fill="#F8FCFF"/>
<path d="M64.4533 -38.7548L95.1621 -19.0202C69.0358 10.8151 56.7605 29.3958 40.1444 66.592L9.43572 46.8574C26.0778 9.23458 38.4009 -9.96583 64.4533 -38.7548Z" fill="#F8FCFF"/>
<path d="M98.1734 23.8609L77.5026 56.0264C48.5605 34.1927 31.6378 22.9318 -0.665102 5.79291L20.0057 -26.3726C51.7743 -8.55406 69.2691 2.85455 98.1734 23.8609Z" fill="#F8FCFF"/>
<path d="M380.142 636.543C396.154 603.442 357.182 559.771 312.226 592.897L280.587 572.565C313.063 534.305 405.923 519.69 422.356 607.132C433.222 664.947 357.924 736.589 332.031 742.099C306.137 747.609 305.248 755.13 291.891 763.639C278.533 772.148 263.207 785.766 228.581 763.514C193.955 741.262 208.443 684.827 208.443 684.827L239.152 704.561C233.985 722.306 256.929 746.43 271.415 732.072C285.902 717.714 293.81 713.592 319.464 706.41C345.117 699.228 364.13 669.644 380.142 636.543Z" fill="#F8FCFF"/>
<path d="M270.453 584.245L301.162 603.98C275.036 633.815 262.76 652.396 246.144 689.592L215.436 669.857C232.078 632.235 244.401 613.034 270.453 584.245Z" fill="#F8FCFF"/>
<path d="M304.173 646.861L283.503 679.026C254.561 657.193 237.638 645.932 205.335 628.793L226.006 596.627C257.774 614.446 275.269 625.855 304.173 646.861Z" fill="#F8FCFF"/>
</g>
<defs>
<clipPath id="clip0_812_7630">
<rect width="393" height="835" rx="40" fill="white"/>
</clipPath>
</defs>
</svg>
