<svg width="193" height="153" viewBox="0 0 193 153" fill="none" xmlns="http://www.w3.org/2000/svg">
<g clip-path="url(#clip0_956_10573)">
<rect width="193" height="153" fill="white"/>
<path d="M76.6786 54.5075C77.2468 51.0981 77.8151 35.1876 77.8151 35.1876H95.431V265.321H91.4526C91.4526 265.321 90.3154 310.779 89.7479 317.598C89.1805 324.417 83.4974 354.533 83.4974 354.533L80.088 371.012C80.088 371.012 83.4966 398.855 83.4974 407.947C83.4982 417.038 77.2469 456.814 77.2469 456.814C78.3576 461.464 78.4263 464.187 77.2469 469.316L80.088 487.499C80.3283 497.31 78.2638 499.304 72.701 500C62.5251 499.798 50.5408 500 51.6765 491.477C52.8122 482.953 55.7131 475.436 60.2 465.906C59.7638 462.165 59.6047 460.046 61.9047 455.678C61.9047 455.678 62.4737 452.269 61.9047 448.859C61.3356 445.45 51.6765 407.947 51.6765 398.855C51.6765 389.763 52.813 371.012 52.813 371.012L51.6765 354.533C51.6765 354.533 46.5624 317.598 45.426 309.643C44.2895 301.688 46.5624 254.525 46.5624 254.525C46.5624 254.525 47.6997 209.634 48.2671 203.384C48.8346 197.133 51.1083 182.927 51.1083 182.927C49.8487 163.295 47.8788 152.959 44.2895 135.764L39.1754 167.017C39.1754 167.017 39.7429 184.064 39.1754 189.746C38.608 195.429 25.5379 235.205 25.5379 235.205C25.5379 235.205 31.7877 246.001 32.9249 248.842C34.0622 251.683 34.0622 267.594 33.4931 269.298C32.9241 271.003 30.6528 269.867 30.0838 268.73C29.5147 267.594 26.1061 256.797 26.1061 256.797C26.1061 256.797 23.265 263.616 24.4015 267.026C25.5379 270.435 33.4931 278.39 33.4931 278.39L30.0838 280.095C30.0838 280.095 17.5835 273.276 16.4462 271.571C15.309 269.867 11.9012 263.048 11.3321 257.934C10.7631 252.82 13.0368 236.909 13.0368 236.909C12.2792 218.726 10.1957 190.314 11.3321 181.223C12.4686 172.131 14.5521 169.858 15.878 164.744C15.878 164.744 14.7415 144.856 14.7415 138.037C14.7415 131.219 19.2874 113.035 19.2874 113.035C19.2874 113.035 17.5827 102.807 18.1509 98.8294C18.7191 94.8518 20.992 84.0554 26.6744 80.646C32.3567 77.2367 52.813 67.5767 52.813 67.5767C52.813 67.5767 76.1104 57.9168 76.6786 54.5075Z" fill="#F2CDAF"/>
<path d="M114.185 54.5075C113.616 51.0981 113.048 35.1876 113.048 35.1876H95.4323V265.321H99.4107C99.4107 265.321 100.548 310.779 101.115 317.598C101.683 324.417 107.366 354.533 107.366 354.533L110.442 371.58C110.442 371.58 107.367 398.855 107.366 407.947C107.365 417.038 113.616 456.814 113.616 456.814C112.506 461.464 112.437 464.187 113.616 469.316L110.775 487.499C110.535 497.31 112.599 499.304 118.162 500C128.338 499.798 140.322 500 139.187 491.477C138.051 482.953 135.15 475.436 130.663 465.906C131.1 462.165 131.259 460.046 128.959 455.678C128.959 455.678 128.39 452.269 128.959 448.859C129.528 445.45 137.717 407.947 137.717 398.855V371.012L138.285 354.533C138.285 354.533 143.164 317.598 144.301 309.643C145.437 301.688 145.104 254.525 145.104 254.525C145.104 254.525 143.164 209.634 142.596 203.384C142.029 197.133 139.755 182.927 139.755 182.927C141.015 163.295 142.984 152.959 146.574 135.764L151.688 167.017C151.688 167.017 151.12 184.064 151.688 189.746C152.255 195.429 165.325 235.205 165.325 235.205C165.325 235.205 159.076 246.001 157.938 248.842C156.801 251.683 156.801 267.594 157.37 269.298C157.939 271.003 160.211 269.867 160.78 268.73C161.349 267.594 164.757 256.797 164.757 256.797C164.757 256.797 167.598 263.616 166.462 267.026C165.325 270.435 157.37 278.39 157.37 278.39L160.78 280.095C160.78 280.095 173.28 273.276 174.417 271.571C175.554 269.867 178.962 263.048 179.531 257.934C180.1 252.82 177.826 236.909 177.826 236.909C178.584 218.726 180.668 190.314 179.531 181.223C178.395 172.131 176.311 169.858 174.985 164.744C174.985 164.744 176.122 144.856 176.122 138.037C176.122 131.219 171.576 113.035 171.576 113.035C171.576 113.035 173.281 102.807 172.712 98.8294C172.144 94.8518 169.871 84.0554 164.189 80.646C158.507 77.2367 138.05 67.5767 138.05 67.5767C138.05 67.5767 114.753 57.9168 114.185 54.5075Z" fill="#F2CDAF"/>
<g filter="url(#filter0_f_956_10573)">
<path d="M133.285 121.71C131.58 122.278 130.32 122.278 129.752 123.414C129.184 124.551 131.133 125.119 133.285 125.119C135.437 125.119 137.831 124.551 137.263 123.414C136.694 122.278 134.99 121.142 133.285 121.71Z" fill="#DEB9A1"/>
</g>
<g filter="url(#filter1_f_956_10573)">
<path d="M55.9767 121.71C57.6813 122.278 58.9414 122.278 59.5096 123.414C60.0778 124.551 58.1283 125.119 55.9767 125.119C53.825 125.119 51.4308 124.551 51.999 123.414C52.5673 122.278 54.272 121.142 55.9767 121.71Z" fill="#DEB9A1"/>
</g>
<g filter="url(#filter2_f_956_10573)">
<path d="M32.025 108.489C32.025 108.489 37.1391 106.216 38.8438 104.512C40.5485 102.807 47.5236 93.6619 47.5236 93.6619C47.5236 93.6619 41.6849 104.512 41.6849 106.785C41.6849 109.058 43.6358 122.373 46.2308 124.968C48.8257 127.563 56.4589 128.377 60.4365 128.377C64.4141 128.377 91.121 125.536 92.2574 124.4C93.3939 123.263 95.6668 118.717 95.6668 118.717C95.6668 118.717 96.8033 126.673 95.6668 127.809C94.5303 128.946 60.4365 131.219 56.4589 132.923C52.4813 134.628 56.4589 181.223 57.5954 184.064C58.7318 186.905 68.3917 201.679 68.3917 201.679C68.3917 201.679 54.186 189.746 52.4813 190.314C50.7766 190.883 47.9355 201.679 47.9355 201.679C47.9355 201.679 51.3448 184.632 51.3448 181.791C51.3448 178.95 44.5261 136.901 44.5261 136.901L45.2593 141.447C45.2593 141.447 40.5485 159.63 39.9802 163.608C39.412 167.585 39.412 190.314 39.412 190.314C39.412 190.314 34.2979 170.995 33.7297 167.017C33.1615 163.039 30.3203 159.062 30.3203 159.062C30.3203 159.062 34.2979 164.176 35.4344 163.608C36.5708 163.039 41.1167 147.697 41.6849 143.151C42.2531 138.606 38.8438 108.489 38.8438 108.489H32.025Z" fill="#DDB8A0"/>
</g>
<g filter="url(#filter3_f_956_10573)">
<path d="M159.245 108.489C159.245 108.489 154.13 106.216 152.426 104.512C150.721 102.807 143.746 93.6619 143.746 93.6619C143.746 93.6619 149.585 104.512 149.585 106.785C149.585 109.058 147.634 122.373 145.039 124.968C142.444 127.563 134.811 128.377 130.833 128.377C126.855 128.377 100.149 125.536 99.0121 124.4C97.8757 123.263 95.6649 118.717 95.6649 118.717C95.6649 118.717 94.5284 126.673 95.6649 127.809C96.8013 128.946 130.833 131.219 134.811 132.923C138.788 134.628 134.811 181.223 133.674 184.064C132.538 186.905 122.878 201.679 122.878 201.679C122.878 201.679 137.084 189.746 138.788 190.314C140.493 190.883 142.26 201.679 142.26 201.679C142.26 201.679 139.925 184.632 139.925 181.791C139.925 178.95 146.743 136.901 146.743 136.901L146.01 141.447C146.01 141.447 150.721 159.63 151.289 163.608C151.858 167.585 151.858 190.314 151.858 190.314C151.858 190.314 156.972 170.995 157.54 167.017C158.108 163.039 160.949 159.062 160.949 159.062C160.949 159.062 156.972 164.176 155.835 163.608C154.699 163.039 150.153 147.697 149.585 143.151C149.016 138.606 152.426 108.489 152.426 108.489H159.245Z" fill="#DDB8A0"/>
</g>
<path d="M64.6092 -10.3047C64.1258 -4.71327 64.0885 -0.332764 65.0052 7.20459L72.9605 31.0703H116.714L124.669 8.90927C125.42 2.41454 125.483 -2.02324 125.075 -8.13341C124.849 -11.5172 123.98 -14.876 122.089 -17.6912C107.836 -38.9084 78.2728 -37.1673 66.8676 -18.0462C65.4745 -15.7107 64.8434 -13.014 64.6092 -10.3047Z" fill="#262626"/>
<path d="M69.4924 0.300188L69.0128 20.4137C68.6942 9.95963 66.4176 5.34942 62.174 7.91262C61.9557 17.0071 64.2968 20.699 71.2341 28.3689C74.6813 36.8943 75.6058 44.2579 81.427 51.8509C83.7895 54.9325 87.639 56.3518 91.522 56.3518H98.2801C102.761 56.3518 107.11 54.412 109.548 50.6517C114.145 43.5595 116.49 36.5352 120.154 26.6642C127.929 15.8373 127.175 14.1979 124.677 9.61731C121.957 8.4526 120.26 12.1225 120.154 20.9819V0.16851C120.154 -2.17085 119.334 -4.43618 117.837 -6.23333L117.47 -6.6726C115.571 -8.95252 112.756 -10.2708 109.788 -10.2708H80.2314C77.4283 -10.2708 74.7539 -9.09429 72.8598 -7.028L72.118 -6.21871C70.4829 -4.43498 69.55 -2.11888 69.4924 0.300188Z" fill="#DEB9A1"/>
<path d="M70.0294 -1.97276L69.5499 18.1407C69.2312 7.68668 66.4072 5.91763 62.1636 8.48082C61.9454 17.5753 63.1816 21.2672 70.1189 28.9371C73.557 37.4401 75.6348 42.8114 81.7966 49.727C84.3798 52.6261 88.176 54.0788 92.0591 54.0788H98.8172C103.298 54.0788 107.62 52.1292 110.236 48.491C114.734 42.2354 117.067 36.9948 120.691 27.2324C128.466 16.4055 128.303 13.0614 125.805 8.48082C123.085 7.31611 120.797 9.8496 120.691 18.709V-2.10444C120.691 -4.4438 119.871 -6.70913 118.374 -8.50628L118.008 -8.94554C116.108 -11.2255 113.293 -12.5437 110.325 -12.5437H80.7684C77.9653 -12.5437 75.291 -11.3672 73.3969 -9.30095L72.655 -8.49165C71.0199 -6.70793 70.0871 -4.39182 70.0294 -1.97276Z" fill="#F2CDAF"/>
<path d="M109.923 9.04907C108.219 9.04907 101.402 10.1855 100.265 10.7538C99.1287 11.322 99.6924 12.4585 100.83 12.4585C101.967 12.4585 107.082 10.7538 109.355 10.7538C111.628 10.7538 113.333 11.8902 113.901 11.8902C114.469 11.8902 114.839 11.4939 114.469 10.7538C114.098 10.0136 111.628 9.04907 109.923 9.04907Z" fill="#262626"/>
<path d="M80.4752 9.04907C82.1799 9.04907 88.9968 10.1855 90.1333 10.7538C91.2697 11.322 90.7061 12.4585 89.5686 12.4585C88.4312 12.4585 83.3164 10.7538 81.0435 10.7538C78.7705 10.7538 77.0655 11.8902 76.4976 11.8902C75.9298 11.8902 75.5595 11.4939 75.9298 10.7538C76.3001 10.0136 78.7705 9.04907 80.4752 9.04907Z" fill="#262626"/>
<path d="M93.0753 28.6215C93.0753 28.6215 92.5085 28.0532 91.9403 28.6214C91.372 29.1897 91.9394 29.758 91.9394 29.758C91.9394 29.758 94.2129 31.4628 95.3488 31.4627C96.4847 31.4626 98.1911 30.3262 98.1911 30.3262C98.1911 30.3262 99.8958 29.1898 99.3275 28.6215C98.7593 28.0533 97.6228 28.6215 97.6228 28.6215C97.6228 28.6215 95.9165 29.1411 95.3488 29.1411C94.7811 29.1411 93.0753 28.6215 93.0753 28.6215Z" fill="#DFBAA2"/>
<path d="M92.8268 39.1653L87.1445 40.3017H102.487L97.3727 39.1653L95.0998 39.7335L92.8268 39.1653Z" fill="#DFBAA2"/>
<path d="M92.8258 43.1428L91.1211 42.0064H99.6445L97.3716 43.1428L95.0987 43.7111L92.8258 43.1428Z" fill="#DFBAA2"/>
<g filter="url(#filter4_f_956_10573)">
<path d="M52.4792 70.4179C53.6157 69.4708 58.0479 65.0765 59.8662 64.1674L38.2734 74.3955C44.3346 74.0167 56.5705 73.259 57.025 73.259H75.2084C76.1176 73.259 68.7685 71.3649 64.9803 70.4179H52.4792Z" fill="#DEB9A1"/>
</g>
<g filter="url(#filter5_f_956_10573)">
<path d="M138.365 70.4179C137.228 69.4708 132.796 65.0765 130.978 64.1674L152.57 74.3955C146.509 74.0167 134.273 73.259 133.819 73.259H115.635C114.726 73.259 122.075 71.3649 125.863 70.4179H138.365Z" fill="#DEB9A1"/>
</g>
<g filter="url(#filter6_f_956_10573)">
<path d="M88.4433 70.3305C87.7939 68.9318 87.1445 64.7356 87.1445 64.7356L89.7422 69.6311L91.6904 73.8273C91.6904 73.8273 89.0927 71.7292 88.4433 70.3305Z" fill="#DEB9A1"/>
</g>
<g filter="url(#filter7_f_956_10573)">
<path d="M100.619 70.3305C101.269 68.9318 101.918 64.7356 101.918 64.7356L99.3203 69.6311L97.3721 73.8273C97.3721 73.8273 99.9698 71.7292 100.619 70.3305Z" fill="#DEB9A1"/>
</g>
<path d="M94.5331 176.677C94.3437 164.744 93.5061 143.492 93.9606 142.583C94.7467 139.729 95.2651 140.289 96.2354 142.583V176.677C96.2354 176.677 95.6651 186.905 95.0969 185.769C94.5287 184.632 94.5331 176.677 94.5331 176.677Z" fill="#DEB9A1"/>
<path d="M93.3922 189.746C91.6875 190.315 91.6875 193.724 91.6875 193.724C91.6875 193.724 92.8284 191.451 93.9604 191.451C95.0924 191.451 99.0745 193.156 99.0745 193.156C99.0745 193.156 95.0969 189.178 93.3922 189.746Z" fill="#DEB9A1"/>
<path d="M102.484 15.2996V15.8678C105.519 16.6348 111.663 16.7079 112.144 15.8678C112.37 15.4733 112.334 14.3525 112.144 13.5949C110.12 12.3524 109.014 12.8712 107.03 13.0267L107.009 13.0313C104.633 13.5443 103.288 13.8348 102.484 15.2996Z" fill="#F0F0F0" fill-opacity="0.4"/>
<path d="M102.067 14.504C101.536 15.1859 102.594 15.8678 102.594 15.8678C102.594 15.8678 102.598 15.8678 102.598 15.1859C102.598 14.504 106.839 13.1403 107.37 13.1403C107.901 13.1403 112.217 13.1403 112.221 13.8221C112.225 14.504 112.221 15.8678 112.221 15.8678C112.221 15.8678 113.283 13.8221 113.283 13.1403C113.283 12.4584 108.962 12.4584 107.901 12.4584C106.839 12.4584 102.598 13.8221 102.067 14.504Z" fill="#DBBA9F"/>
<path d="M107.598 16.436C105.319 16.436 105.008 15.7462 105.329 14.7313C105.651 13.7164 105.894 13.0266 107.601 13.0266C109.307 13.0266 109.874 13.4495 109.874 14.6097V14.6164C109.873 15.7724 109.873 16.436 107.598 16.436Z" fill="#313131"/>
<path d="M87.8633 14.9716V15.5398C84.8289 16.3068 78.6844 16.3799 78.2034 15.5398C77.9775 15.1453 78.014 14.0245 78.2034 13.2669C80.2279 12.0244 81.3337 12.5432 83.3174 12.6987L83.3388 12.7033C85.7146 13.2163 87.06 13.5068 87.8633 14.9716Z" fill="#F0F0F0" fill-opacity="0.4"/>
<path d="M88.1283 14.504C88.659 15.1859 87.6016 15.8678 87.6016 15.8678C87.6016 15.8678 87.5976 15.8678 87.5976 15.1859C87.5976 14.504 83.3561 13.1403 82.8254 13.1403C82.2947 13.1403 77.9781 13.1403 77.9741 13.8221C77.9701 14.504 77.9741 15.8678 77.9741 15.8678C77.9741 15.8678 76.9127 13.8221 76.9127 13.1403C76.9127 12.4584 81.2333 12.4584 82.2947 12.4584C83.3561 12.4584 87.5976 13.8221 88.1283 14.504Z" fill="#DBBA9F"/>
<path d="M82.5969 16.436C84.8763 16.436 85.1877 15.7462 84.8661 14.7313C84.5445 13.7164 84.3009 13.0266 82.5947 13.0266C80.8885 13.0266 80.3217 13.4495 80.3218 14.6097V14.6164C80.3219 15.7724 80.3219 16.436 82.5969 16.436Z" fill="#313131"/>
<rect x="83" y="47" width="20.6576" height="21.8727" rx="10.3288" fill="#FF4F42" fill-opacity="0.5"/>
<g opacity="0.7">
<rect x="86" y="49.9364" width="15" height="16" rx="7.5" fill="#FF0200"/>
</g>
</g>
<defs>
<filter id="filter0_f_956_10573" x="129.152" y="121.059" width="8.69531" height="4.56055" filterUnits="userSpaceOnUse" color-interpolation-filters="sRGB">
<feFlood flood-opacity="0" result="BackgroundImageFix"/>
<feBlend mode="normal" in="SourceGraphic" in2="BackgroundImageFix" result="shape"/>
<feGaussianBlur stdDeviation="0.25" result="effect1_foregroundBlur_956_10573"/>
</filter>
<filter id="filter1_f_956_10573" x="51.4141" y="121.059" width="8.69531" height="4.56055" filterUnits="userSpaceOnUse" color-interpolation-filters="sRGB">
<feFlood flood-opacity="0" result="BackgroundImageFix"/>
<feBlend mode="normal" in="SourceGraphic" in2="BackgroundImageFix" result="shape"/>
<feGaussianBlur stdDeviation="0.25" result="effect1_foregroundBlur_956_10573"/>
</filter>
<filter id="filter2_f_956_10573" x="29.8203" y="93.162" width="66.8516" height="109.017" filterUnits="userSpaceOnUse" color-interpolation-filters="sRGB">
<feFlood flood-opacity="0" result="BackgroundImageFix"/>
<feBlend mode="normal" in="SourceGraphic" in2="BackgroundImageFix" result="shape"/>
<feGaussianBlur stdDeviation="0.25" result="effect1_foregroundBlur_956_10573"/>
</filter>
<filter id="filter3_f_956_10573" x="94.6602" y="93.162" width="66.7891" height="109.017" filterUnits="userSpaceOnUse" color-interpolation-filters="sRGB">
<feFlood flood-opacity="0" result="BackgroundImageFix"/>
<feBlend mode="normal" in="SourceGraphic" in2="BackgroundImageFix" result="shape"/>
<feGaussianBlur stdDeviation="0.25" result="effect1_foregroundBlur_956_10573"/>
</filter>
<filter id="filter4_f_956_10573" x="37.7734" y="63.6674" width="38.0117" height="11.2281" filterUnits="userSpaceOnUse" color-interpolation-filters="sRGB">
<feFlood flood-opacity="0" result="BackgroundImageFix"/>
<feBlend mode="normal" in="SourceGraphic" in2="BackgroundImageFix" result="shape"/>
<feGaussianBlur stdDeviation="0.25" result="effect1_foregroundBlur_956_10573"/>
</filter>
<filter id="filter5_f_956_10573" x="115.059" y="63.6674" width="38.0117" height="11.2281" filterUnits="userSpaceOnUse" color-interpolation-filters="sRGB">
<feFlood flood-opacity="0" result="BackgroundImageFix"/>
<feBlend mode="normal" in="SourceGraphic" in2="BackgroundImageFix" result="shape"/>
<feGaussianBlur stdDeviation="0.25" result="effect1_foregroundBlur_956_10573"/>
</filter>
<filter id="filter6_f_956_10573" x="86.6445" y="64.2356" width="5.54688" height="10.0917" filterUnits="userSpaceOnUse" color-interpolation-filters="sRGB">
<feFlood flood-opacity="0" result="BackgroundImageFix"/>
<feBlend mode="normal" in="SourceGraphic" in2="BackgroundImageFix" result="shape"/>
<feGaussianBlur stdDeviation="0.25" result="effect1_foregroundBlur_956_10573"/>
</filter>
<filter id="filter7_f_956_10573" x="96.8711" y="64.2356" width="5.54688" height="10.0917" filterUnits="userSpaceOnUse" color-interpolation-filters="sRGB">
<feFlood flood-opacity="0" result="BackgroundImageFix"/>
<feBlend mode="normal" in="SourceGraphic" in2="BackgroundImageFix" result="shape"/>
<feGaussianBlur stdDeviation="0.25" result="effect1_foregroundBlur_956_10573"/>
</filter>
<clipPath id="clip0_956_10573">
<rect width="193" height="153" fill="white"/>
</clipPath>
</defs>
</svg>
