<svg width="193" height="153" viewBox="0 0 193 153" fill="none" xmlns="http://www.w3.org/2000/svg">
<g clip-path="url(#clip0_956_11071)">
<rect width="193" height="153" fill="white"/>
<path d="M76.6786 -170.493C77.2468 -173.902 77.8151 -189.812 77.8151 -189.812H95.431V40.3209H91.4526C91.4526 40.3209 90.3154 85.7793 89.7479 92.5981C89.1805 99.4168 83.4974 129.533 83.4974 129.533L80.088 146.012C80.088 146.012 83.4966 173.855 83.4974 182.947C83.4982 192.038 77.2469 231.814 77.2469 231.814C78.3576 236.464 78.4263 239.187 77.2469 244.316L80.088 262.499C80.3283 272.31 78.2638 274.304 72.701 275C62.5251 274.798 50.5408 275 51.6765 266.477C52.8122 257.953 55.7131 250.436 60.2 240.906C59.7638 237.165 59.6047 235.046 61.9047 230.678C61.9047 230.678 62.4737 227.269 61.9047 223.859C61.3356 220.45 51.6765 182.947 51.6765 173.855C51.6765 164.763 52.813 146.012 52.813 146.012L51.6765 129.533C51.6765 129.533 46.5624 92.5981 45.426 84.6429C44.2895 76.6876 46.5624 29.5245 46.5624 29.5245C46.5624 29.5245 47.6997 -15.3657 48.2671 -21.6162C48.8346 -27.8667 51.1083 -42.0725 51.1083 -42.0725C49.8487 -61.7052 47.8788 -72.0409 44.2895 -89.2356L39.1754 -57.983C39.1754 -57.983 39.7429 -40.9361 39.1754 -35.2537C38.608 -29.5714 25.5379 10.2047 25.5379 10.2047C25.5379 10.2047 31.7877 21.0011 32.9249 23.8422C34.0622 26.6833 34.0622 42.5938 33.4931 44.2985C32.9241 46.0032 30.6528 44.8667 30.0838 43.7303C29.5147 42.5938 26.1061 31.7974 26.1061 31.7974C26.1061 31.7974 23.265 38.6162 24.4015 42.0256C25.5379 45.435 33.4931 53.3902 33.4931 53.3902L30.0838 55.0949C30.0838 55.0949 17.5835 48.2761 16.4462 46.5714C15.309 44.8667 11.9012 38.048 11.3321 32.9339C10.7631 27.8198 13.0368 11.9094 13.0368 11.9094C12.2792 -6.274 10.1957 -34.6855 11.3321 -43.7772C12.4686 -52.8689 14.5521 -55.1418 15.878 -60.2559C15.878 -60.2559 14.7415 -80.1439 14.7415 -86.9627C14.7415 -93.7815 19.2874 -111.965 19.2874 -111.965C19.2874 -111.965 17.5827 -122.193 18.1509 -126.171C18.7191 -130.148 20.992 -140.945 26.6744 -144.354C32.3567 -147.763 52.813 -157.423 52.813 -157.423C52.813 -157.423 76.1104 -167.083 76.6786 -170.493Z" fill="#F2CDAF"/>
<path d="M114.185 -170.493C113.616 -173.902 113.048 -189.812 113.048 -189.812H95.4323V40.3209H99.4107C99.4107 40.3209 100.548 85.7793 101.115 92.5981C101.683 99.4168 107.366 129.533 107.366 129.533L110.442 146.58C110.442 146.58 107.367 173.855 107.366 182.947C107.365 192.038 113.616 231.814 113.616 231.814C112.506 236.464 112.437 239.187 113.616 244.316L110.775 262.499C110.535 272.31 112.599 274.304 118.162 275C128.338 274.798 140.322 275 139.187 266.477C138.051 257.953 135.15 250.436 130.663 240.906C131.1 237.165 131.259 235.046 128.959 230.678C128.959 230.678 128.39 227.269 128.959 223.859C129.528 220.45 137.717 182.947 137.717 173.855V146.012L138.285 129.533C138.285 129.533 143.164 92.5981 144.301 84.6429C145.437 76.6876 145.104 29.5245 145.104 29.5245C145.104 29.5245 143.164 -15.3657 142.596 -21.6162C142.029 -27.8667 139.755 -42.0725 139.755 -42.0725C141.015 -61.7052 142.984 -72.0409 146.574 -89.2356L151.688 -57.983C151.688 -57.983 151.12 -40.9361 151.688 -35.2537C152.255 -29.5714 165.325 10.2047 165.325 10.2047C165.325 10.2047 159.076 21.0011 157.938 23.8422C156.801 26.6833 156.801 42.5938 157.37 44.2985C157.939 46.0032 160.211 44.8667 160.78 43.7303C161.349 42.5938 164.757 31.7974 164.757 31.7974C164.757 31.7974 167.598 38.6162 166.462 42.0256C165.325 45.435 157.37 53.3902 157.37 53.3902L160.78 55.0949C160.78 55.0949 173.28 48.2761 174.417 46.5714C175.554 44.8667 178.962 38.048 179.531 32.9339C180.1 27.8198 177.826 11.9094 177.826 11.9094C178.584 -6.274 180.668 -34.6855 179.531 -43.7772C178.395 -52.8689 176.311 -55.1418 174.985 -60.2559C174.985 -60.2559 176.122 -80.1439 176.122 -86.9627C176.122 -93.7815 171.576 -111.965 171.576 -111.965C171.576 -111.965 173.281 -122.193 172.712 -126.171C172.144 -130.148 169.871 -140.945 164.189 -144.354C158.507 -147.763 138.05 -157.423 138.05 -157.423C138.05 -157.423 114.753 -167.083 114.185 -170.493Z" fill="#F2CDAF"/>
<g filter="url(#filter0_f_956_11071)">
<path d="M23.5 8.50004L34.2964 -17.6385L25.7729 10.2047L27.4776 14.1823L23.5 8.50004Z" fill="#DEB9A1"/>
</g>
<g filter="url(#filter1_f_956_11071)">
<path d="M18.3852 38.6162C16.6805 35.775 11.5664 35.2068 11.5664 35.2068C11.5664 35.2068 13.8393 43.7302 16.6805 46.5714C19.5216 49.4125 30.318 55.0948 30.318 55.0948L30.8862 54.5266C28.7324 52.8084 22.5112 48.7828 21.7946 47.7079C20.6581 46.0032 20.0899 41.4573 18.3852 38.6162Z" fill="#DEB9A1"/>
</g>
<g filter="url(#filter2_f_956_11071)">
<path d="M167.262 8.50004L156.465 -17.6385L164.989 10.2047L163.284 14.1823L167.262 8.50004Z" fill="#DEB9A1"/>
</g>
<g filter="url(#filter3_f_956_11071)">
<path d="M172.377 38.6162C174.081 35.775 179.195 35.2068 179.195 35.2068C179.195 35.2068 176.922 43.7302 174.081 46.5714C171.24 49.4125 160.444 55.0948 160.444 55.0948L159.875 54.5266C162.029 52.8084 168.251 48.7828 168.967 47.7079C170.104 46.0032 170.672 41.4573 172.377 38.6162Z" fill="#DEB9A1"/>
</g>
<g filter="url(#filter4_f_956_11071)">
<path d="M46.2305 37.5427C46.2305 37.5427 46.2305 31.2292 46.7987 30.661C47.3669 30.0928 78.0514 33.5651 82.5972 35.838C87.143 38.1109 91.6889 42.6568 91.6889 42.6568C91.7778 63.7475 90.5524 88.6205 89.9842 94.3028C89.416 99.985 84.3019 125.555 84.3019 125.555C84.3019 125.555 80.8925 141.466 80.3243 144.875C79.8118 147.95 81.1482 157.959 81.4153 159.892C81.434 160.007 81.4492 160.116 81.4607 160.217C81.4607 160.217 81.4444 160.103 81.4153 159.892C80.8839 156.63 77.5295 148.335 75.2102 148.853C76.3467 146.012 78.0514 140.898 78.0514 137.488C78.0514 134.079 74.0738 136.415 74.0738 136.415C74.0738 136.415 75.7784 130.669 76.9149 128.965C78.0514 127.26 82.5972 121.01 82.5972 121.01L86.0066 71.6365C86.0066 71.6365 87.143 52.8849 84.8701 49.4755C82.5972 46.0661 68.9597 38.6791 65.5503 36.9745C62.1409 35.2698 52.481 34.7015 50.7763 34.7015C49.0716 34.7015 46.2305 37.5427 46.2305 37.5427Z" fill="#DEB9A1"/>
</g>
<g filter="url(#filter5_f_956_11071)">
<path d="M145.672 37.5427C145.672 37.5427 145.672 31.2292 145.104 30.661C144.535 30.0928 112.151 33.5651 107.605 35.838C103.059 38.1109 99.1715 42.0256 99.1715 42.0256C99.0826 63.1163 100.308 87.9894 100.876 93.6716C101.444 99.3539 105.9 125.555 105.9 125.555C105.9 125.555 109.31 141.466 109.878 144.875C110.39 147.95 109.054 157.959 108.787 159.892C108.768 160.007 108.753 160.116 108.741 160.217C108.741 160.217 108.758 160.103 108.787 159.892C109.318 156.63 112.673 148.335 114.992 148.853C113.855 146.012 112.151 140.898 112.151 137.488C112.151 134.079 116.128 136.415 116.128 136.415C116.128 136.415 114.424 130.669 113.287 128.965C112.151 127.26 107.605 121.01 107.605 121.01L104.196 71.6365C104.196 71.6365 103.059 52.8849 105.332 49.4755C107.605 46.0661 121.242 38.6791 124.652 36.9745C128.061 35.2698 137.721 34.7015 139.426 34.7015C141.13 34.7015 145.672 37.5427 145.672 37.5427Z" fill="#DEB9A1"/>
</g>
<path d="M142.83 -17.0703C106.668 -7.59278 85.2353 -10.4618 47.9352 -17.0703C46.7353 2.46077 46.2735 13.406 46.2305 32.934C46.2305 32.934 80.0463 31.2775 84.8701 38.6163C89.694 45.955 102.132 45.228 106.463 38.6163C110.793 32.0045 145.103 32.934 145.103 32.934C145.35 13.0747 145.052 2.07241 142.83 -17.0703Z" fill="#5A7EB5"/>
<g filter="url(#filter6_f_956_11071)">
<path d="M57.0279 134.647C54.469 131.975 52.4803 131.238 50.7773 121.578L52.482 142.602V158.513C52.482 158.513 53.0503 153.967 54.1867 152.262C55.3232 150.558 60.4373 151.694 60.4373 151.694C60.4373 151.694 54.755 149.989 54.1867 145.444C53.6185 140.898 53.0503 136.352 54.1867 135.215C55.3232 134.079 56.2702 134.647 57.0279 134.647Z" fill="#DEB9A1"/>
</g>
<g filter="url(#filter7_f_956_11071)">
<path d="M109.302 27.2517C109.395 31.811 108.169 34.6928 106.461 38.6163C109.341 36.1968 114.111 34.7086 124.076 33.5022C124.076 33.5022 113.28 34.6387 111.575 32.3658C109.87 30.0929 109.302 27.2517 109.302 27.2517Z" fill="#5073A8"/>
</g>
<g filter="url(#filter8_f_956_11071)">
<path d="M82.5963 27.2517C82.5035 31.811 83.7291 34.6928 85.4375 38.6163C82.5574 36.1968 77.7873 34.7086 67.8224 33.5022C67.8224 33.5022 78.6187 34.6387 80.3234 32.3658C82.0281 30.0929 82.5963 27.2517 82.5963 27.2517Z" fill="#5073A8"/>
</g>
<g filter="url(#filter9_f_956_11071)">
<path d="M46.2344 32.934C46.442 6.45938 46.9829 -1.94314 47.9391 -17.0703C47.9391 -17.0703 47.9391 -6.27394 49.0711 5.6589C47.9391 15.3188 49.0582 25.534 50.7758 27.2516C54.7534 31.2293 58.1628 30.0928 64.4133 31.2293C70.6638 32.3657 84.3058 36.9116 84.3058 36.9116L67.2589 32.934H46.2344Z" fill="#5073A8"/>
</g>
<g filter="url(#filter10_f_956_11071)">
<path d="M144.535 32.934C144.328 6.45938 143.787 -1.94314 142.83 -17.0703C142.83 -17.0703 142.83 -6.27394 141.698 5.6589C142.83 15.3188 141.711 25.534 139.994 27.2516C136.016 31.2293 132.607 30.0928 126.356 31.2293C120.106 32.3657 106.464 36.9116 106.464 36.9116L123.511 32.934H144.535Z" fill="#5073A8"/>
</g>
<g filter="url(#filter11_f_956_11071)">
<path d="M133.175 134.647C135.734 131.975 137.723 131.238 139.426 121.578L137.721 142.602V158.513C137.721 158.513 137.153 153.967 136.016 152.262C134.88 150.558 129.766 151.694 129.766 151.694C129.766 151.694 135.448 149.989 136.016 145.444C136.585 140.898 137.153 136.352 136.016 135.215C134.88 134.079 133.933 134.647 133.175 134.647Z" fill="#DEB9A1"/>
</g>
<rect x="114" y="127" width="20.6576" height="21.8727" rx="10.3288" fill="#FF4F42" fill-opacity="0.5"/>
<g opacity="0.7">
<rect x="117" y="129.936" width="15" height="16" rx="7.5" fill="#FF0200"/>
</g>
</g>
<defs>
<filter id="filter0_f_956_11071" x="23" y="-18.1385" width="11.7969" height="32.8209" filterUnits="userSpaceOnUse" color-interpolation-filters="sRGB">
<feFlood flood-opacity="0" result="BackgroundImageFix"/>
<feBlend mode="normal" in="SourceGraphic" in2="BackgroundImageFix" result="shape"/>
<feGaussianBlur stdDeviation="0.25" result="effect1_foregroundBlur_956_11071"/>
</filter>
<filter id="filter1_f_956_11071" x="11.0664" y="34.7068" width="20.3203" height="20.8881" filterUnits="userSpaceOnUse" color-interpolation-filters="sRGB">
<feFlood flood-opacity="0" result="BackgroundImageFix"/>
<feBlend mode="normal" in="SourceGraphic" in2="BackgroundImageFix" result="shape"/>
<feGaussianBlur stdDeviation="0.25" result="effect1_foregroundBlur_956_11071"/>
</filter>
<filter id="filter2_f_956_11071" x="155.965" y="-18.1385" width="11.7969" height="32.8209" filterUnits="userSpaceOnUse" color-interpolation-filters="sRGB">
<feFlood flood-opacity="0" result="BackgroundImageFix"/>
<feBlend mode="normal" in="SourceGraphic" in2="BackgroundImageFix" result="shape"/>
<feGaussianBlur stdDeviation="0.25" result="effect1_foregroundBlur_956_11071"/>
</filter>
<filter id="filter3_f_956_11071" x="159.375" y="34.7068" width="20.3203" height="20.8881" filterUnits="userSpaceOnUse" color-interpolation-filters="sRGB">
<feFlood flood-opacity="0" result="BackgroundImageFix"/>
<feBlend mode="normal" in="SourceGraphic" in2="BackgroundImageFix" result="shape"/>
<feGaussianBlur stdDeviation="0.25" result="effect1_foregroundBlur_956_11071"/>
</filter>
<filter id="filter4_f_956_11071" x="45.7305" y="30.0991" width="46.4648" height="130.618" filterUnits="userSpaceOnUse" color-interpolation-filters="sRGB">
<feFlood flood-opacity="0" result="BackgroundImageFix"/>
<feBlend mode="normal" in="SourceGraphic" in2="BackgroundImageFix" result="shape"/>
<feGaussianBlur stdDeviation="0.25" result="effect1_foregroundBlur_956_11071"/>
</filter>
<filter id="filter5_f_956_11071" x="98.668" y="30.0991" width="47.5039" height="130.618" filterUnits="userSpaceOnUse" color-interpolation-filters="sRGB">
<feFlood flood-opacity="0" result="BackgroundImageFix"/>
<feBlend mode="normal" in="SourceGraphic" in2="BackgroundImageFix" result="shape"/>
<feGaussianBlur stdDeviation="0.25" result="effect1_foregroundBlur_956_11071"/>
</filter>
<filter id="filter6_f_956_11071" x="50.2773" y="121.078" width="10.6602" height="37.9349" filterUnits="userSpaceOnUse" color-interpolation-filters="sRGB">
<feFlood flood-opacity="0" result="BackgroundImageFix"/>
<feBlend mode="normal" in="SourceGraphic" in2="BackgroundImageFix" result="shape"/>
<feGaussianBlur stdDeviation="0.25" result="effect1_foregroundBlur_956_11071"/>
</filter>
<filter id="filter7_f_956_11071" x="105.961" y="26.7517" width="18.6133" height="12.3646" filterUnits="userSpaceOnUse" color-interpolation-filters="sRGB">
<feFlood flood-opacity="0" result="BackgroundImageFix"/>
<feBlend mode="normal" in="SourceGraphic" in2="BackgroundImageFix" result="shape"/>
<feGaussianBlur stdDeviation="0.25" result="effect1_foregroundBlur_956_11071"/>
</filter>
<filter id="filter8_f_956_11071" x="67.3242" y="26.7517" width="18.6133" height="12.3646" filterUnits="userSpaceOnUse" color-interpolation-filters="sRGB">
<feFlood flood-opacity="0" result="BackgroundImageFix"/>
<feBlend mode="normal" in="SourceGraphic" in2="BackgroundImageFix" result="shape"/>
<feGaussianBlur stdDeviation="0.25" result="effect1_foregroundBlur_956_11071"/>
</filter>
<filter id="filter9_f_956_11071" x="45.7344" y="-17.5703" width="39.0703" height="54.9819" filterUnits="userSpaceOnUse" color-interpolation-filters="sRGB">
<feFlood flood-opacity="0" result="BackgroundImageFix"/>
<feBlend mode="normal" in="SourceGraphic" in2="BackgroundImageFix" result="shape"/>
<feGaussianBlur stdDeviation="0.25" result="effect1_foregroundBlur_956_11071"/>
</filter>
<filter id="filter10_f_956_11071" x="105.965" y="-17.5703" width="39.0703" height="54.9819" filterUnits="userSpaceOnUse" color-interpolation-filters="sRGB">
<feFlood flood-opacity="0" result="BackgroundImageFix"/>
<feBlend mode="normal" in="SourceGraphic" in2="BackgroundImageFix" result="shape"/>
<feGaussianBlur stdDeviation="0.25" result="effect1_foregroundBlur_956_11071"/>
</filter>
<filter id="filter11_f_956_11071" x="129.266" y="121.078" width="10.6602" height="37.9349" filterUnits="userSpaceOnUse" color-interpolation-filters="sRGB">
<feFlood flood-opacity="0" result="BackgroundImageFix"/>
<feBlend mode="normal" in="SourceGraphic" in2="BackgroundImageFix" result="shape"/>
<feGaussianBlur stdDeviation="0.25" result="effect1_foregroundBlur_956_11071"/>
</filter>
<clipPath id="clip0_956_11071">
<rect width="193" height="153" fill="white"/>
</clipPath>
</defs>
</svg>
