<svg width="244" height="206" viewBox="0 0 244 206" fill="none" xmlns="http://www.w3.org/2000/svg">
<path d="M104.246 140.936C78.9058 150.369 83.3497 175.257 46.3399 164.661C9.3301 154.065 30.0006 86.0136 40.5374 75.6486C51.0741 65.2838 55.2059 62.2469 63.4688 56.1736L63.4693 56.1732C71.7325 50.0997 97.2575 36.9536 103.04 37.9446C108.821 38.9355 105.397 43.6985 105.397 43.6985C105.397 43.6985 113.113 41.2091 115.339 45.0011C117.564 48.7931 114.687 49.9719 114.687 49.9719L117.28 56.3012C117.28 56.3012 117.676 62.187 111.479 66.7422C105.281 71.2973 87.1522 71.3333 78.3135 77.6426C69.4749 83.9519 69.1632 88.1115 67.7287 96.0911C66.2942 104.071 80.5631 125.776 84.0155 124.361C87.4678 122.947 99.8605 118.317 109.095 113.19C118.329 108.063 134.518 101.653 131.753 116.226C128.988 130.799 104.246 140.936 104.246 140.936Z" fill="#BED5E9" fill-opacity="0.2"/>
<path d="M69.9343 134.426C72.1265 129.21 78.3113 124.035 84.2376 121.864" stroke="#5A7EB5" stroke-width="3.7309"/>
<path d="M46.2979 65.0943C46.2979 65.0943 60.3983 58.3929 67.3674 54.6725C73.0502 51.6388 83.4641 48.2593 86.1215 48.7778C92.038 49.9322 85.4256 57.4127 81.183 60.3438C76.9404 63.2749 67.1107 70.2844 61.0058 74.575C54.9008 78.8655 52.0651 98.5162 52.0651 98.5162" stroke="#5A7EB5" stroke-width="3.73089"/>
<path d="M174.77 142.627C197.779 133.207 210.29 152.8 228.701 122.566C247.112 92.3329 190.718 59.2196 177.134 58.782C163.551 58.3444 158.865 58.8673 149.494 59.9131L149.493 59.9132C140.121 60.959 114.673 67.985 111.382 72.2592C108.092 76.5334 113.376 77.6182 113.376 77.6182C113.376 77.6182 106.608 80.7455 107.468 84.6961C108.327 88.6467 111.007 87.65 111.007 87.65L113.2 93.5448C113.2 93.5448 116.601 97.7699 123.63 96.9855C130.659 96.2011 142.935 84.9241 152.843 83.6789C162.75 82.4337 165.554 85.0511 171.498 89.5506C177.442 94.0501 181.328 117.616 178.112 118.812C174.897 120.009 163.634 124.605 154.196 126.895C144.758 129.186 129.82 134.946 140.773 143.072C151.727 151.199 174.77 142.627 174.77 142.627Z" fill="#BED5E9" fill-opacity="0.2"/>
<path d="M194.859 116.76C190.126 114.602 182.719 114.959 177.36 117.186" stroke="#5A7EB5" stroke-width="3.43061"/>
<path d="M163.093 52.3299C163.093 52.3299 149.385 56.5901 142.355 58.4198C136.622 59.9118 127.476 64.1193 126.003 66.1264C122.724 70.5949 131.856 71.5293 136.551 70.8657C141.246 70.2022 152.26 68.8125 159.062 67.9069C165.863 67.0014 180.03 78.5163 180.03 78.5163" stroke="#5A7EB5" stroke-width="3.43061"/>
<path d="M118.467 67.3905L99.4791 75.1702C103.079 81.219 106.031 86.5068 108.554 91.6117C108.554 91.6117 96.8621 97.074 93.4097 98.4885C93.869 99.6372 100.992 116.876 101.425 118.052C107.755 115.459 116.496 111.205 116.496 111.205C118.122 116.247 119.624 121.737 121.168 128.106L140.156 120.327C138.638 113.962 137.161 108.449 135.563 103.393L149.994 98.8242C149.173 96.6802 142.669 80.768 141.743 78.6855L127.698 83.7678C125.145 78.6169 122.146 73.3485 118.467 67.3905Z" fill="#6488B5"/>
</svg>
