<svg width="323" height="193" viewBox="0 0 323 193" fill="none" xmlns="http://www.w3.org/2000/svg">
<path d="M212.987 146.545C253.727 145.221 261.752 182.478 307.323 146.545C352.894 110.612 285.166 27.4967 264.543 19.0602C243.921 10.6239 236.422 8.74902 221.424 4.9996L221.423 4.9994C206.425 1.24984 163.305 -2.4997 155.806 2.18724C148.307 6.87418 155.806 11.5611 155.806 11.5611C155.806 11.5611 143.62 12.4985 142.683 19.0602C141.745 25.6219 146.432 25.6219 146.432 25.6219V35.9332C146.432 35.9332 149.244 44.3697 160.493 47.1818C171.742 49.994 197.051 39.6827 212.987 43.4323C228.922 47.1818 231.734 52.8062 238.296 63.1174C244.858 73.4287 237.359 111.862 231.734 111.862C226.11 111.862 206.177 112.487 190.365 110.612C174.554 108.737 148.307 109.049 160.493 127.797C172.679 146.545 212.987 146.545 212.987 146.545Z" fill="white"/>
<path d="M261.287 120.812C252.913 112.955 236.899 108.097 223.777 108.502" stroke="#D1E1EF" stroke-width="5.62433"/>
<path d="M253.073 11.2476C253.073 11.2476 226.965 9.79496 213.801 8.43544C203.068 7.32687 184.782 8.72138 180.993 11.2476C172.556 16.8719 187.554 24.371 195.991 26.2458C204.427 28.1206 224.113 32.8075 236.299 35.6197C248.485 38.4319 265.357 67.4909 265.357 67.4909" stroke="#D1E1EF" stroke-width="5.62433"/>
<path d="M95.5279 183.728C55.3608 176.793 46.9153 183.724 15.4496 158.414C-16.0162 133.105 34.5339 64.8646 56.1235 59.3555C77.7131 53.8465 82.0239 55.3063 98.34 55.3063C114.656 55.3063 144.053 57.1281 150.833 62.8054C157.614 68.4826 152.868 72.1792 152.868 72.1792C152.868 72.1792 160.345 73.05 160.367 79.6783C160.39 86.3066 155.296 89.0522 155.296 89.0522C155.296 89.0522 156.786 94.6766 155.296 96.5514C153.806 98.4262 154.864 99.0684 143.335 100.301C131.806 101.533 127.764 90.8568 111.463 92.3707C95.1625 93.8847 93.1384 96.6184 85.2162 105.925C77.294 115.232 81.4667 136.859 87.091 139.671C92.7153 142.483 103.981 153.406 119.9 153.732C135.819 154.058 165.491 162.155 150.833 179.041C136.176 195.928 95.5279 183.728 95.5279 183.728Z" fill="white"/>
<path d="M77.2961 52.0825C77.2961 52.0825 100.114 54.8367 113.339 55.3072C124.122 55.6909 136.549 60.1278 139.954 63.1529C147.533 69.8879 131.643 75.2449 123.029 75.9372C114.414 76.6295 94.2705 78.5543 81.8129 79.6574C76.7801 80.103 64.949 79.999 59.1296 85.3036C54.8658 89.1902 54.1229 89.2584 52.5679 93.7401C54.2744 101.374 42.2566 109.676 42.2566 109.676" stroke="#D1E1EF" stroke-width="5.62433"/>
<path d="M89.2265 137.799C80.2723 130.611 69.3635 131.695 56.3125 133.11" stroke="#D1E1EF" stroke-width="5.62433"/>
<path d="M151.117 52.0811L182.05 52.0811C180.485 62.5767 179.391 71.6396 178.789 80.2027C178.789 80.2027 198.22 81.1401 203.844 81.1401C203.86 83.0049 203.777 111.123 203.844 113.011C193.533 113.011 178.908 112.074 178.908 112.074C179.522 120.036 180.564 128.554 182.05 138.321L151.117 138.321C149.597 128.575 148.506 120.039 147.845 112.074L125.104 113.949C125.024 110.488 125.001 84.5748 125.104 81.1401L147.6 80.2027C148.218 71.5582 149.389 62.4952 151.117 52.0811Z" fill="#5A7EB5"/>
</svg>
