<svg width="193" height="153" viewBox="0 0 193 153" fill="none" xmlns="http://www.w3.org/2000/svg">
<g clip-path="url(#clip0_956_11288)">
<rect width="193" height="153" fill="white"/>
<path d="M77.5102 55.6153C78.0856 52.1628 78.661 36.0509 78.661 36.0509H96.5V269.098H92.4712C92.4712 269.098 91.3196 315.132 90.7449 322.037C90.1703 328.942 84.4153 359.44 84.4153 359.44L80.9627 376.127C80.9627 376.127 84.4145 404.323 84.4153 413.529C84.4161 422.736 78.0856 463.016 78.0856 463.016C79.2104 467.725 79.28 470.482 78.0856 475.675L80.9627 494.089C81.206 504.024 79.1154 506.043 73.4822 506.748C63.1774 506.543 65.6653 505.597 53.3424 502.145C41.0194 498.692 37.7324 498.311 39.1958 494.089C39.478 493.275 42.1378 490.528 45.5255 489.485C49.2079 488.352 53.7503 488.869 57.034 486.608C61.4037 483.599 61.6261 477.636 62.5491 475.675C62.1074 471.887 60.22 466.289 62.5491 461.865C62.5491 461.865 63.1254 458.413 62.5491 454.96C61.9729 451.507 52.1915 413.529 52.1915 404.323C52.1915 395.116 53.3424 376.127 53.3424 376.127L52.1915 359.44C52.1915 359.44 47.0127 322.037 45.8618 313.981C44.711 305.925 47.0127 258.165 47.0127 258.165C47.0127 258.165 48.1643 212.706 48.739 206.377C49.3136 200.047 51.6161 185.661 51.6161 185.661C50.3406 165.78 48.3457 155.314 44.711 137.901L39.5322 169.549C39.5322 169.549 40.1068 186.812 39.5322 192.566C38.9575 198.321 25.722 238.6 25.722 238.6C25.722 238.6 32.0508 249.533 33.2025 252.411C34.3541 255.288 34.3541 271.4 33.7779 273.126C33.2017 274.852 30.9016 273.701 30.3254 272.55C29.7491 271.4 26.2974 260.466 26.2974 260.466C26.2974 260.466 23.4203 267.372 24.5711 270.824C25.722 274.277 33.7779 282.333 33.7779 282.333L30.3254 284.059C30.3254 284.059 17.6668 277.154 16.5152 275.428C15.3635 273.701 11.9126 266.796 11.3363 261.617C10.7601 256.439 13.0626 240.327 13.0626 240.327C12.2954 221.913 10.1855 193.142 11.3363 183.935C12.4872 174.728 14.5971 172.427 15.9397 167.248C15.9397 167.248 14.7889 147.108 14.7889 140.203C14.7889 133.298 19.3923 114.884 19.3923 114.884C19.3923 114.884 17.666 104.526 18.2414 100.498C18.8168 96.4705 21.1185 85.5374 26.8728 82.0849C32.6271 78.6323 53.3423 68.8501 53.3423 68.8501C53.3423 68.8501 76.9348 59.0679 77.5102 55.6153Z" fill="#F2CDAF"/>
<path d="M115.49 55.6153C114.914 52.1628 114.339 36.0509 114.339 36.0509H96.5V269.098H100.529C100.529 269.098 101.68 315.132 102.255 322.037C102.83 328.942 108.585 359.44 108.585 359.44L111.699 376.702C111.699 376.702 108.586 404.323 108.585 413.529C108.584 422.736 114.914 463.016 114.914 463.016C113.79 467.725 113.72 470.482 114.914 475.675L112.037 494.089C111.794 504.024 113.885 506.043 119.518 506.748C129.823 506.543 127.236 506.173 134.141 503.296C141.046 500.419 154.291 495.406 153.13 491.787C152.533 489.927 147.376 488.335 143.923 488.335C139.32 487.184 136.675 487.275 134.141 485.728C131.134 483.893 132.106 477.465 131.264 475.675C131.705 471.887 132.78 466.289 130.451 461.865C130.451 461.865 129.875 458.413 130.451 454.96C131.027 451.507 139.32 413.529 139.32 404.323V376.127L139.895 359.44C139.895 359.44 144.836 322.037 145.987 313.981C147.138 305.925 146.8 258.165 146.8 258.165C146.8 258.165 144.836 212.706 144.261 206.377C143.686 200.047 141.384 185.661 141.384 185.661C142.659 165.78 144.654 155.314 148.289 137.901L153.468 169.549C153.468 169.549 152.893 186.812 153.468 192.566C154.042 198.321 167.278 238.6 167.278 238.6C167.278 238.6 160.949 249.533 159.798 252.411C158.646 255.288 158.646 271.4 159.222 273.126C159.798 274.852 162.098 273.701 162.675 272.55C163.251 271.4 166.703 260.466 166.703 260.466C166.703 260.466 169.58 267.372 168.429 270.824C167.278 274.277 159.222 282.333 159.222 282.333L162.675 284.059C162.675 284.059 175.333 277.154 176.485 275.428C177.636 273.701 181.087 266.796 181.664 261.617C182.24 256.439 179.937 240.327 179.937 240.327C180.705 221.913 182.814 193.142 181.664 183.935C180.513 174.728 178.403 172.427 177.06 167.248C177.06 167.248 178.211 147.108 178.211 140.203C178.211 133.298 173.608 114.884 173.608 114.884C173.608 114.884 175.334 104.526 174.759 100.498C174.183 96.4705 171.881 85.5374 166.127 82.0849C160.373 78.6323 139.658 68.8501 139.658 68.8501C139.658 68.8501 116.065 59.0679 115.49 55.6153Z" fill="#F2CDAF"/>
<g filter="url(#filter0_f_956_11288)">
<path d="M39.1939 110.281V106.253C39.1939 106.253 42.071 106.253 42.071 108.554C42.071 110.856 45.14 120.27 46.6744 126.968C48.2007 133.631 56.192 134.558 60.9849 130.485C60.9849 130.485 62.2109 129.27 61.06 130.42C61.0351 130.442 61.01 130.464 60.9849 130.485C60.9849 130.485 61.06 131.571 59.9092 132.722C58.7583 133.873 59.3337 132.722 57.032 135.024C54.7303 137.326 57.032 183.935 58.1829 186.812C59.3337 189.689 69.1159 204.65 69.1159 204.65C69.1159 204.65 54.7303 192.566 53.0041 193.142C51.2778 193.717 48.4007 204.65 48.4007 204.65C48.4007 204.65 51.8532 187.388 51.8532 184.51C51.8532 181.633 44.9481 139.052 44.9481 139.052L45.6907 143.655C45.6907 143.655 40.9201 162.069 40.3447 166.097C39.7693 170.125 39.7693 193.142 39.7693 193.142C39.7693 193.142 34.5905 173.577 34.015 169.549C33.4396 165.521 30.5625 161.493 30.5625 161.493C30.5625 161.493 34.5905 166.672 35.7413 166.097C36.8922 165.521 41.4956 149.985 42.071 145.382C42.6464 140.778 39.1939 110.281 39.1939 110.281Z" fill="#DDB8A0"/>
</g>
<g filter="url(#filter1_f_956_11288)">
<path d="M153.705 106.253C155.431 107.979 153.129 105.677 153.129 105.677C153.129 105.677 152.284 104.832 153.129 105.677C153.124 105.679 150.827 106.256 150.827 108.554C150.827 110.856 147.758 120.27 146.224 126.968C144.698 133.631 136.706 134.558 131.914 130.485C131.914 130.485 130.688 129.27 131.838 130.421C131.863 130.442 131.888 130.464 131.914 130.485C131.914 130.485 131.838 131.571 132.989 132.722C134.14 133.873 133.565 132.722 135.866 135.024C138.168 137.326 135.866 183.935 134.716 186.812C133.565 189.689 123.782 204.65 123.782 204.65C123.782 204.65 138.168 192.566 139.894 193.142C141.621 193.717 144.498 204.65 144.498 204.65C144.498 204.65 141.045 187.388 141.045 184.51C141.045 181.633 147.95 139.052 147.95 139.052L147.208 143.655C147.208 143.655 151.978 162.069 152.554 166.097C153.129 170.125 153.129 193.142 153.129 193.142C153.129 193.142 158.308 173.577 158.883 169.549C159.459 165.521 162.336 161.493 162.336 161.493C162.336 161.493 158.308 166.672 157.157 166.097C156.006 165.521 151.403 149.985 150.827 145.382C150.252 140.778 153.705 110.281 153.705 110.281L153.129 105.677C153.27 105.818 153.458 106.006 153.705 106.253Z" fill="#DDB8A0"/>
</g>
<g filter="url(#filter2_f_956_11288)">
<path d="M53.0067 71.7273C54.1576 70.7682 58.6459 66.3183 60.4872 65.3976L38.6211 75.7552C44.759 75.3716 57.1498 74.6044 57.6101 74.6044H76.0237C76.9444 74.6044 69.5022 72.6863 65.666 71.7273H53.0067Z" fill="#DEB9A1"/>
</g>
<g filter="url(#filter3_f_956_11288)">
<path d="M139.978 71.7273C138.827 70.7682 134.339 66.3183 132.497 65.3976L154.363 75.7552C148.225 75.3716 135.835 74.6044 135.374 74.6044H116.961C116.04 74.6044 123.482 72.6863 127.318 71.7273H139.978Z" fill="#DEB9A1"/>
</g>
<path d="M95.5937 179.332C95.4019 167.248 94.5537 145.727 95.014 144.806C95.81 141.916 96.335 142.483 97.3176 144.806V179.332C97.3176 179.332 96.74 189.689 96.1646 188.538C95.5892 187.388 95.5937 179.332 95.5937 179.332Z" fill="#DEB9A1"/>
<path d="M80.6279 59.6435C77.1753 62.5206 58.7617 66.5486 58.7617 66.5486C58.7617 66.5486 76.0245 57.9172 77.1753 56.1909C78.3262 54.4646 78.3262 46.9841 78.3262 45.2579C78.3262 44.3622 77.5904 44.2469 76.0245 41.2299C74.5724 38.4322 72.345 32.8168 70.8456 29.7214C63.3651 22.8162 61.0634 10.7323 62.7897 9.00605C64.516 7.27978 65.6668 7.85525 65.6668 7.85525L86.9575 40.6545C86.9575 40.6545 84.0804 56.7663 80.6279 59.6435Z" fill="#DFBAA2"/>
<path d="M112.849 59.6435C116.301 62.5206 134.715 66.5486 134.715 66.5486C134.715 66.5486 117.452 57.9172 116.301 56.1909C115.15 54.4646 115.15 46.9841 115.15 45.2579C115.15 44.3622 115.886 44.2469 117.452 41.2299C118.904 38.4322 121.132 32.8168 122.631 29.7214C130.111 22.8162 132.413 10.7323 130.687 9.00605C128.961 7.27978 127.81 7.85525 127.81 7.85525L106.519 40.6545C106.519 40.6545 109.396 56.7663 112.849 59.6435Z" fill="#DFBAA2"/>
<path d="M126.425 -10.0687C126.919 -4.38192 126.96 0.0577698 126.028 7.71361C126.028 7.71361 122.634 29.1459 116.879 36.6264C111.125 44.1069 80.0522 41.8052 75.4488 36.6264C70.8455 31.4475 65.6089 9.43988 65.6089 9.43988C64.8463 2.83997 64.7846 -1.66237 65.2026 -7.88339C65.43 -11.267 66.3001 -14.6257 68.1865 -17.4439C82.6164 -39.0026 112.629 -37.2334 124.169 -17.8124C125.558 -15.4746 126.19 -12.7779 126.425 -10.0687Z" fill="#262626"/>
<rect x="123" y="98" width="20.6576" height="21.8727" rx="10.3288" fill="#FF0000" fill-opacity="0.5"/>
<g opacity="0.7">
<rect x="126" y="100.936" width="15" height="16" rx="7.5" fill="#FF0000"/>
</g>
</g>
<defs>
<filter id="filter0_f_956_11288" x="30.0625" y="105.753" width="39.5547" height="99.3976" filterUnits="userSpaceOnUse" color-interpolation-filters="sRGB">
<feFlood flood-opacity="0" result="BackgroundImageFix"/>
<feBlend mode="normal" in="SourceGraphic" in2="BackgroundImageFix" result="shape"/>
<feGaussianBlur stdDeviation="0.25" result="effect1_foregroundBlur_956_11288"/>
</filter>
<filter id="filter1_f_956_11288" x="123.281" y="104.802" width="39.5547" height="100.349" filterUnits="userSpaceOnUse" color-interpolation-filters="sRGB">
<feFlood flood-opacity="0" result="BackgroundImageFix"/>
<feBlend mode="normal" in="SourceGraphic" in2="BackgroundImageFix" result="shape"/>
<feGaussianBlur stdDeviation="0.25" result="effect1_foregroundBlur_956_11288"/>
</filter>
<filter id="filter2_f_956_11288" x="38.1211" y="64.8976" width="38.4805" height="11.3577" filterUnits="userSpaceOnUse" color-interpolation-filters="sRGB">
<feFlood flood-opacity="0" result="BackgroundImageFix"/>
<feBlend mode="normal" in="SourceGraphic" in2="BackgroundImageFix" result="shape"/>
<feGaussianBlur stdDeviation="0.25" result="effect1_foregroundBlur_956_11288"/>
</filter>
<filter id="filter3_f_956_11288" x="116.383" y="64.8976" width="38.4805" height="11.3577" filterUnits="userSpaceOnUse" color-interpolation-filters="sRGB">
<feFlood flood-opacity="0" result="BackgroundImageFix"/>
<feBlend mode="normal" in="SourceGraphic" in2="BackgroundImageFix" result="shape"/>
<feGaussianBlur stdDeviation="0.25" result="effect1_foregroundBlur_956_11288"/>
</filter>
<clipPath id="clip0_956_11288">
<rect width="193" height="153" fill="white"/>
</clipPath>
</defs>
</svg>
