<svg width="193" height="153" viewBox="0 0 193 153" fill="none" xmlns="http://www.w3.org/2000/svg">
<g clip-path="url(#clip0_956_11126)">
<rect width="193" height="153" fill="white"/>
<path d="M71.6786 -306.493C72.2468 -309.902 72.8151 -325.812 72.8151 -325.812H90.431V-95.6791H86.4526C86.4526 -95.6791 85.3154 -50.2207 84.7479 -43.4019C84.1805 -36.5832 78.4974 -6.46698 78.4974 -6.46698L75.088 10.0117C75.088 10.0117 78.4966 37.855 78.4974 46.9467C78.4982 56.0384 72.2469 95.8145 72.2469 95.8145C73.3576 100.464 73.4263 103.187 72.2469 108.316L75.088 126.499C75.3283 136.31 73.2638 138.304 67.701 139C57.5251 138.798 45.5408 139 46.6765 130.477C47.8122 121.953 50.7131 114.436 55.2 104.906C54.7638 101.165 54.6047 99.0463 56.9047 94.678C56.9047 94.678 57.4737 91.2686 56.9047 87.8593C56.3356 84.4499 46.6765 46.9467 46.6765 37.855C46.6765 28.7633 47.813 10.0117 47.813 10.0117L46.6765 -6.46698C46.6765 -6.46698 41.5624 -43.4019 40.426 -51.3571C39.2895 -59.3124 41.5624 -106.475 41.5624 -106.475C41.5624 -106.475 42.6997 -151.366 43.2671 -157.616C43.8346 -163.867 46.1083 -178.073 46.1083 -178.073C44.8487 -197.705 42.8788 -208.041 39.2895 -225.236L34.1754 -193.983C34.1754 -193.983 34.7429 -176.936 34.1754 -171.254C33.608 -165.571 20.5379 -125.795 20.5379 -125.795C20.5379 -125.795 26.7877 -114.999 27.9249 -112.158C29.0622 -109.317 29.0622 -93.4062 28.4931 -91.7015C27.9241 -89.9968 25.6528 -91.1333 25.0838 -92.2697C24.5147 -93.4062 21.1061 -104.203 21.1061 -104.203C21.1061 -104.203 18.265 -97.3838 19.4015 -93.9744C20.5379 -90.565 28.4931 -82.6098 28.4931 -82.6098L25.0838 -80.9051C25.0838 -80.9051 12.5835 -87.7239 11.4462 -89.4286C10.309 -91.1333 6.90118 -97.952 6.33214 -103.066C5.7631 -108.18 8.03683 -124.091 8.03683 -124.091C7.27919 -142.274 5.1957 -170.686 6.33214 -179.777C7.46858 -188.869 9.55211 -191.142 10.878 -196.256C10.878 -196.256 9.74154 -216.144 9.74152 -222.963C9.74151 -229.781 14.2874 -247.965 14.2874 -247.965C14.2874 -247.965 12.5827 -258.193 13.1509 -262.171C13.7191 -266.148 15.992 -276.945 21.6744 -280.354C27.3567 -283.763 47.813 -293.423 47.813 -293.423C47.813 -293.423 71.1104 -303.083 71.6786 -306.493Z" fill="#F2CDAF"/>
<path d="M109.185 -306.493C108.616 -309.902 108.048 -325.812 108.048 -325.812H90.4323V-95.6791H94.4107C94.4107 -95.6791 95.5479 -50.2207 96.1153 -43.4019C96.6828 -36.5832 102.366 -6.46698 102.366 -6.46698L105.442 10.58C105.442 10.58 102.367 37.855 102.366 46.9467C102.365 56.0384 108.616 95.8145 108.616 95.8145C107.506 100.464 107.437 103.187 108.616 108.316L105.775 126.499C105.535 136.31 107.599 138.304 113.162 139C123.338 138.798 135.322 139 134.187 130.477C133.051 121.953 130.15 114.436 125.663 104.906C126.1 101.165 126.259 99.0463 123.959 94.678C123.959 94.678 123.39 91.2686 123.959 87.8593C124.528 84.4499 132.717 46.9467 132.717 37.855V10.0117L133.285 -6.46698C133.285 -6.46698 138.164 -43.4019 139.301 -51.3571C140.437 -59.3124 140.104 -106.475 140.104 -106.475C140.104 -106.475 138.164 -151.366 137.596 -157.616C137.029 -163.867 134.755 -178.073 134.755 -178.073C136.015 -197.705 137.984 -208.041 141.574 -225.236L146.688 -193.983C146.688 -193.983 146.12 -176.936 146.688 -171.254C147.255 -165.571 160.325 -125.795 160.325 -125.795C160.325 -125.795 154.076 -114.999 152.938 -112.158C151.801 -109.317 151.801 -93.4062 152.37 -91.7015C152.939 -89.9968 155.211 -91.1333 155.78 -92.2697C156.349 -93.4062 159.757 -104.203 159.757 -104.203C159.757 -104.203 162.598 -97.3838 161.462 -93.9744C160.325 -90.565 152.37 -82.6098 152.37 -82.6098L155.78 -80.9051C155.78 -80.9051 168.28 -87.7239 169.417 -89.4286C170.554 -91.1333 173.962 -97.952 174.531 -103.066C175.1 -108.18 172.826 -124.091 172.826 -124.091C173.584 -142.274 175.668 -170.686 174.531 -179.777C173.395 -188.869 171.311 -191.142 169.985 -196.256C169.985 -196.256 171.122 -216.144 171.122 -222.963C171.122 -229.781 166.576 -247.965 166.576 -247.965C166.576 -247.965 168.281 -258.193 167.712 -262.171C167.144 -266.148 164.871 -276.945 159.189 -280.354C153.507 -283.763 133.05 -293.423 133.05 -293.423C133.05 -293.423 109.753 -303.083 109.185 -306.493Z" fill="#F2CDAF"/>
<g filter="url(#filter0_f_956_11126)">
<path d="M41.2305 -98.4573C41.2305 -98.4573 41.2305 -104.771 41.7987 -105.339C42.3669 -105.907 73.0514 -102.435 77.5972 -100.162C82.143 -97.8891 86.6889 -93.3432 86.6889 -93.3432C86.7778 -72.2525 85.5524 -47.3795 84.9842 -41.6972C84.416 -36.015 79.3019 -10.4445 79.3019 -10.4445C79.3019 -10.4445 75.8925 5.46594 75.3243 8.87527C74.8118 11.9502 76.1482 21.9588 76.4153 23.8924C76.434 24.0072 76.4492 24.1158 76.4607 24.2175C76.4607 24.2175 76.4444 24.1027 76.4153 23.8924C75.8839 20.6299 72.5295 12.3352 70.2102 12.8529C71.3467 10.0118 73.0514 4.89764 73.0514 1.4883C73.0514 -1.92104 69.0738 0.414749 69.0738 0.414749C69.0738 0.414749 70.7784 -5.33051 71.9149 -7.03515C73.0514 -8.7398 77.5972 -14.9904 77.5972 -14.9904L81.0066 -64.3635C81.0066 -64.3635 82.143 -83.1151 79.8701 -86.5245C77.5972 -89.9339 63.9597 -97.3209 60.5503 -99.0255C57.1409 -100.73 47.481 -101.298 45.7763 -101.298C44.0716 -101.298 41.2305 -98.4573 41.2305 -98.4573Z" fill="#DEB9A1"/>
</g>
<g filter="url(#filter1_f_956_11126)">
<path d="M140.672 -98.4573C140.672 -98.4573 140.672 -104.771 140.104 -105.339C139.535 -105.907 107.151 -102.435 102.605 -100.162C98.059 -97.8891 94.1715 -93.9744 94.1715 -93.9744C94.0826 -72.8837 95.308 -48.0106 95.8762 -42.3284C96.4444 -36.6461 100.9 -10.4445 100.9 -10.4445C100.9 -10.4445 104.31 5.46594 104.878 8.87527C105.39 11.9502 104.054 21.9587 103.787 23.8924C103.768 24.0072 103.753 24.1158 103.741 24.2175C103.741 24.2175 103.758 24.1027 103.787 23.8924C104.318 20.6298 107.673 12.3352 109.992 12.8529C108.855 10.0118 107.151 4.89764 107.151 1.4883C107.151 -1.92104 111.128 0.414749 111.128 0.414749C111.128 0.414749 109.424 -5.33051 108.287 -7.03515C107.151 -8.7398 102.605 -14.9904 102.605 -14.9904L99.1955 -64.3635C99.1955 -64.3635 98.059 -83.1151 100.332 -86.5245C102.605 -89.9339 116.242 -97.3209 119.652 -99.0255C123.061 -100.73 132.721 -101.298 134.426 -101.298C136.13 -101.298 140.672 -98.4573 140.672 -98.4573Z" fill="#DEB9A1"/>
</g>
<g filter="url(#filter2_f_956_11126)">
<path d="M52.0279 -1.35282C49.469 -4.02475 47.4803 -4.7622 45.7773 -14.4221L47.482 6.6024V22.5128C47.482 22.5128 48.0503 17.967 49.1867 16.2623C50.3232 14.5576 55.4373 15.6941 55.4373 15.6941C55.4373 15.6941 49.755 13.9894 49.1867 9.44355C48.6185 4.89771 48.0503 0.351868 49.1867 -0.784593C50.3232 -1.92105 51.2702 -1.35282 52.0279 -1.35282Z" fill="#DEB9A1"/>
</g>
<g filter="url(#filter3_f_956_11126)">
<path d="M128.175 -1.35282C130.734 -4.02475 132.723 -4.7622 134.426 -14.4221L132.721 6.6024V22.5128C132.721 22.5128 132.153 17.967 131.016 16.2623C129.88 14.5576 124.766 15.6941 124.766 15.6941C124.766 15.6941 130.448 13.9894 131.016 9.44355C131.585 4.89771 132.153 0.351868 131.016 -0.784593C129.88 -1.92105 128.933 -1.35282 128.175 -1.35282Z" fill="#DEB9A1"/>
</g>
<g filter="url(#filter4_f_956_11126)">
<path d="M70.2086 94.678C72.0185 94.0964 72.3998 92.6963 73.0497 90.1322L72.4815 95.8145C72.4815 95.8145 73.0497 99.7921 73.0497 102.065C73.0497 104.338 72.4815 108.316 72.4815 108.316C72.4815 108.316 74.1862 123.09 74.7544 125.362C75.3227 127.635 74.7544 131.613 74.7544 131.613V127.635C74.7544 126.499 73.618 123.09 72.4815 119.68C71.3451 116.271 68.5039 110.02 68.5039 110.02C68.5039 110.02 70.7768 109.452 71.3451 108.316C71.9133 107.179 71.9133 104.906 71.9133 102.633C71.9133 100.36 71.3451 96.3827 71.3451 96.3827L70.2086 94.678Z" fill="#DEB9A1"/>
</g>
<g filter="url(#filter5_f_956_11126)">
<path d="M110.807 94.678C108.997 94.0964 108.616 92.6963 107.966 90.1322L108.534 95.8145C108.534 95.8145 107.966 99.7921 107.966 102.065C107.966 104.338 108.534 108.316 108.534 108.316C108.534 108.316 106.829 123.09 106.261 125.362C105.693 127.635 106.261 131.613 106.261 131.613V127.635C106.261 126.499 107.398 123.09 108.534 119.68C109.671 116.271 112.512 110.02 112.512 110.02C112.512 110.02 110.239 109.452 109.671 108.316C109.102 107.179 109.102 104.906 109.102 102.633C109.102 100.36 109.671 96.3827 109.671 96.3827L110.807 94.678Z" fill="#DEB9A1"/>
</g>
<rect x="48" y="116" width="20.6576" height="21.8727" rx="10.3288" fill="#FF4F42" fill-opacity="0.5"/>
<g opacity="0.7">
<rect x="51" y="118.936" width="15" height="16" rx="7.5" fill="#FF0200"/>
</g>
</g>
<defs>
<filter id="filter0_f_956_11126" x="40.7305" y="-105.901" width="46.4648" height="130.618" filterUnits="userSpaceOnUse" color-interpolation-filters="sRGB">
<feFlood flood-opacity="0" result="BackgroundImageFix"/>
<feBlend mode="normal" in="SourceGraphic" in2="BackgroundImageFix" result="shape"/>
<feGaussianBlur stdDeviation="0.25" result="effect1_foregroundBlur_956_11126"/>
</filter>
<filter id="filter1_f_956_11126" x="93.668" y="-105.901" width="47.5039" height="130.618" filterUnits="userSpaceOnUse" color-interpolation-filters="sRGB">
<feFlood flood-opacity="0" result="BackgroundImageFix"/>
<feBlend mode="normal" in="SourceGraphic" in2="BackgroundImageFix" result="shape"/>
<feGaussianBlur stdDeviation="0.25" result="effect1_foregroundBlur_956_11126"/>
</filter>
<filter id="filter2_f_956_11126" x="45.2773" y="-14.9221" width="10.6602" height="37.9349" filterUnits="userSpaceOnUse" color-interpolation-filters="sRGB">
<feFlood flood-opacity="0" result="BackgroundImageFix"/>
<feBlend mode="normal" in="SourceGraphic" in2="BackgroundImageFix" result="shape"/>
<feGaussianBlur stdDeviation="0.25" result="effect1_foregroundBlur_956_11126"/>
</filter>
<filter id="filter3_f_956_11126" x="124.266" y="-14.9221" width="10.6602" height="37.9349" filterUnits="userSpaceOnUse" color-interpolation-filters="sRGB">
<feFlood flood-opacity="0" result="BackgroundImageFix"/>
<feBlend mode="normal" in="SourceGraphic" in2="BackgroundImageFix" result="shape"/>
<feGaussianBlur stdDeviation="0.25" result="effect1_foregroundBlur_956_11126"/>
</filter>
<filter id="filter4_f_956_11126" x="68.0039" y="89.6322" width="7.50391" height="42.4808" filterUnits="userSpaceOnUse" color-interpolation-filters="sRGB">
<feFlood flood-opacity="0" result="BackgroundImageFix"/>
<feBlend mode="normal" in="SourceGraphic" in2="BackgroundImageFix" result="shape"/>
<feGaussianBlur stdDeviation="0.25" result="effect1_foregroundBlur_956_11126"/>
</filter>
<filter id="filter5_f_956_11126" x="105.508" y="89.6322" width="7.50391" height="42.4808" filterUnits="userSpaceOnUse" color-interpolation-filters="sRGB">
<feFlood flood-opacity="0" result="BackgroundImageFix"/>
<feBlend mode="normal" in="SourceGraphic" in2="BackgroundImageFix" result="shape"/>
<feGaussianBlur stdDeviation="0.25" result="effect1_foregroundBlur_956_11126"/>
</filter>
<clipPath id="clip0_956_11126">
<rect width="193" height="153" fill="white"/>
</clipPath>
</defs>
</svg>
