<svg width="393" height="852" viewBox="0 0 393 852" fill="none" xmlns="http://www.w3.org/2000/svg">
<g clip-path="url(#clip0_942_7782)">
<rect width="393" height="852" rx="40" fill="#D1E1EF"/>
<path d="M62.2304 141.572C101.412 151.883 98.4734 189.651 152.088 168.369C205.703 147.086 164.799 48.6783 147.552 34.7843C130.306 20.8905 123.695 16.9744 110.475 9.14281L110.474 9.14238C97.2528 1.31046 57.2453 -14.5097 48.7707 -12.1755C40.2961 -9.84129 46.108 -3.24663 46.108 -3.24663C46.108 -3.24663 34.2341 -5.81536 31.4773 0.168557C28.7205 6.15248 33.185 7.48389 33.185 7.48389L30.256 17.3056C30.256 17.3056 30.5382 26.1404 40.454 32.0144C50.3698 37.8883 77.4067 35.256 91.5206 43.3542C105.635 51.4524 106.716 57.6085 110.037 69.2942C113.358 80.9798 95.2975 115.458 89.9402 113.86C84.5829 112.263 65.4185 107.196 50.8902 100.918C36.3618 94.6412 11.2724 87.4832 17.5544 108.802C23.8364 130.122 62.2304 141.572 62.2304 141.572Z" fill="#BED5E9" fill-opacity="0.7"/>
<path d="M115.541 130.78C109.798 120.917 95.9232 111.741 83.3099 108.399" stroke="#D1E1EF" stroke-width="5.59046"/>
<path d="M138.843 24.0852C138.843 24.0852 114.387 15.2852 102.235 10.251C92.3257 6.1461 74.512 2.28017 70.185 3.61007C60.5514 6.57091 72.7073 17.9744 80.2107 22.1566C87.7141 26.3388 105.133 36.395 115.942 42.5353C126.751 48.6755 134.568 81.1478 134.568 81.1478" stroke="#D1E1EF" stroke-width="5.59046"/>
<path d="M30.1324 34.0162L59.5976 42.8032C55.1253 52.3559 51.5081 60.6776 48.5025 68.6632C48.5025 68.6632 66.7449 75.0757 72.1022 76.6734C71.5876 78.4542 63.521 105.214 63.0488 107.031C53.2271 104.102 39.563 99.0553 39.563 99.0553C37.8857 106.814 36.4586 115.223 35.1003 124.949L5.63515 116.162C6.95566 106.447 8.3413 98.0066 9.97446 90.2314L-12.2198 85.5573C-11.3126 82.2388 -3.97349 57.5488 -2.90016 54.3063L18.7942 59.8037C21.8382 51.7451 25.5289 43.4452 30.1324 34.0162Z" fill="#B4C5D4" fill-opacity="0.7"/>
<path d="M88.4883 829.78C124.296 810.823 147.718 840.597 172.741 788.622C197.764 736.648 101.013 691.966 78.9137 693.429C56.8152 694.891 49.2995 696.489 34.2692 699.684L34.2684 699.684C19.2375 702.878 -20.9091 718.342 -25.5619 725.8C-30.2147 733.258 -21.4722 734.172 -21.4722 734.172C-21.4722 734.172 -31.9468 740.326 -29.9212 746.595C-27.8956 752.865 -23.7095 750.82 -23.7095 750.82L-19.2108 760.029C-19.2108 760.029 -13.0185 766.337 -1.74531 763.94C9.52789 761.544 27.6333 741.293 43.5015 737.689C59.3696 734.086 64.3349 737.882 74.694 744.228C85.053 750.574 95.1233 788.171 90.1002 790.625C85.077 793.079 67.5471 802.333 52.6077 807.557C37.6683 812.781 14.3633 824.512 33.4262 835.939C52.4892 847.366 88.4883 829.78 88.4883 829.78Z" fill="#BED5E9" fill-opacity="0.7"/>
<path d="M120.396 785.728C109.49 782.364 93.0672 785.012 81.525 791.098" stroke="#D1E1EF" stroke-width="5.59046"/>
<path d="M65.2584 691.458C65.2584 691.458 41.3069 701.551 28.9574 706.08C18.8876 709.773 3.16484 718.996 0.882705 722.906C-4.19817 731.61 12.4685 731.764 20.8212 729.757C29.1739 727.751 48.7998 723.348 60.9102 720.543C73.0206 717.738 100.768 736.33 100.768 736.33" stroke="#D1E1EF" stroke-width="5.59046"/>
<path d="M-7.98367 772.407L19.6436 758.911C22.8249 768.967 25.8012 777.539 28.9997 785.449C28.9997 785.449 46.7628 777.809 51.786 775.355C52.6138 777.014 64.8071 802.163 65.691 803.82C56.4819 808.318 43.0115 813.862 43.0115 813.862C47.0333 820.705 51.6798 827.858 57.269 835.932L29.6417 849.428C24.0324 841.387 19.3342 834.24 15.2686 827.414L-4.22401 839.01C-5.80469 835.955 -17.1311 812.821 -18.538 809.709L1.14453 799.057C-2.07527 791.067 -4.98272 782.461 -7.98367 772.407Z" fill="#B4C5D4" fill-opacity="0.7"/>
<path d="M349.961 498.835C305.355 476.691 293.047 481.856 265.044 441.237C237.041 400.619 320.051 338.374 347.251 339.462C374.452 340.55 378.989 343.764 398.092 349.461C417.195 355.158 450.976 367.554 456.932 376.569C462.889 385.583 456.042 388.254 456.042 388.254C456.042 388.254 464.491 391.884 462.204 399.652C459.916 407.421 452.993 408.856 452.993 408.856C452.993 408.856 452.773 415.962 450.374 417.636C447.975 419.311 448.99 420.432 435.062 417.85C421.133 415.268 420.129 401.356 400.515 397.437C380.902 393.519 377.578 396.013 365.053 404.143C352.528 412.273 349.863 439.051 355.466 444.307C361.069 449.563 370.444 466.285 388.968 472.224C407.492 478.164 439.405 498.005 416.349 512.657C393.292 527.31 349.961 498.835 349.961 498.835Z" fill="#BED5E9" fill-opacity="0.7"/>
<path d="M374.57 338.334C374.57 338.334 400.322 349.526 415.642 354.694C428.134 358.908 441.134 368.442 444.063 373.172C450.586 383.704 430.112 384.428 419.784 382.231C409.457 380.034 385.2 375.254 370.23 372.196C364.182 370.96 350.367 366.708 341.701 370.886C335.352 373.948 334.459 373.769 331.073 378.473C330.406 388.007 313.437 393.53 313.437 393.53" stroke="#D1E1EF" stroke-width="6.8715"/>
<path d="M358.619 442.861C350.646 431.318 337.495 428.779 321.721 425.879" stroke="#D1E1EF" stroke-width="6.8715"/>
</g>
<defs>
<clipPath id="clip0_942_7782">
<rect width="393" height="852" rx="40" fill="white"/>
</clipPath>
</defs>
</svg>
