<svg width="193" height="153" viewBox="0 0 193 153" fill="none" xmlns="http://www.w3.org/2000/svg">
<g clip-path="url(#clip0_956_10776)">
<rect width="193" height="153" fill="white"/>
<path d="M76.6786 -6.49255C77.2468 -9.90193 77.8151 -25.8124 77.8151 -25.8124H95.431V204.321H91.4526C91.4526 204.321 90.3154 249.779 89.7479 256.598C89.1805 263.417 83.4974 293.533 83.4974 293.533L80.088 310.012C80.088 310.012 83.4966 337.855 83.4974 346.947C83.4982 356.038 77.2469 395.814 77.2469 395.814C78.3576 400.464 78.4263 403.187 77.2469 408.316L80.088 426.499C80.3283 436.31 78.2638 438.304 72.701 439C62.5251 438.798 50.5408 439 51.6765 430.477C52.8122 421.953 55.7131 414.436 60.2 404.906C59.7638 401.165 59.6047 399.046 61.9047 394.678C61.9047 394.678 62.4737 391.269 61.9047 387.859C61.3356 384.45 51.6765 346.947 51.6765 337.855C51.6765 328.763 52.813 310.012 52.813 310.012L51.6765 293.533C51.6765 293.533 46.5624 256.598 45.426 248.643C44.2895 240.688 46.5624 193.525 46.5624 193.525C46.5624 193.525 47.6997 148.634 48.2671 142.384C48.8346 136.133 51.1083 121.927 51.1083 121.927C49.8487 102.295 47.8788 91.9591 44.2895 74.7644L39.1754 106.017C39.1754 106.017 39.7429 123.064 39.1754 128.746C38.608 134.429 25.5379 174.205 25.5379 174.205C25.5379 174.205 31.7877 185.001 32.9249 187.842C34.0622 190.683 34.0622 206.594 33.4931 208.298C32.9241 210.003 30.6528 208.867 30.0838 207.73C29.5147 206.594 26.1061 195.797 26.1061 195.797C26.1061 195.797 23.265 202.616 24.4015 206.026C25.5379 209.435 33.4931 217.39 33.4931 217.39L30.0838 219.095C30.0838 219.095 17.5835 212.276 16.4462 210.571C15.309 208.867 11.9012 202.048 11.3321 196.934C10.7631 191.82 13.0368 175.909 13.0368 175.909C12.2792 157.726 10.1957 129.314 11.3321 120.223C12.4686 111.131 14.5521 108.858 15.878 103.744C15.878 103.744 14.7415 83.8561 14.7415 77.0373C14.7415 70.2185 19.2874 52.0352 19.2874 52.0352C19.2874 52.0352 17.5827 41.807 18.1509 37.8294C18.7191 33.8518 20.992 23.0554 26.6744 19.646C32.3567 16.2367 52.813 6.57675 52.813 6.57675C52.813 6.57675 76.1104 -3.08317 76.6786 -6.49255Z" fill="#F2CDAF"/>
<path d="M114.185 -6.49255C113.616 -9.90193 113.048 -25.8124 113.048 -25.8124H95.4323V204.321H99.4107C99.4107 204.321 100.548 249.779 101.115 256.598C101.683 263.417 107.366 293.533 107.366 293.533L110.442 310.58C110.442 310.58 107.367 337.855 107.366 346.947C107.365 356.038 113.616 395.814 113.616 395.814C112.506 400.464 112.437 403.187 113.616 408.316L110.775 426.499C110.535 436.31 112.599 438.304 118.162 439C128.338 438.798 140.322 439 139.187 430.477C138.051 421.953 135.15 414.436 130.663 404.906C131.1 401.165 131.259 399.046 128.959 394.678C128.959 394.678 128.39 391.269 128.959 387.859C129.528 384.45 137.717 346.947 137.717 337.855V310.012L138.285 293.533C138.285 293.533 143.164 256.598 144.301 248.643C145.437 240.688 145.104 193.525 145.104 193.525C145.104 193.525 143.164 148.634 142.596 142.384C142.029 136.133 139.755 121.927 139.755 121.927C141.015 102.295 142.984 91.9591 146.574 74.7644L151.688 106.017C151.688 106.017 151.12 123.064 151.688 128.746C152.255 134.429 165.325 174.205 165.325 174.205C165.325 174.205 159.076 185.001 157.938 187.842C156.801 190.683 156.801 206.594 157.37 208.298C157.939 210.003 160.211 208.867 160.78 207.73C161.349 206.594 164.757 195.797 164.757 195.797C164.757 195.797 167.598 202.616 166.462 206.026C165.325 209.435 157.37 217.39 157.37 217.39L160.78 219.095C160.78 219.095 173.28 212.276 174.417 210.571C175.554 208.867 178.962 202.048 179.531 196.934C180.1 191.82 177.826 175.909 177.826 175.909C178.584 157.726 180.668 129.314 179.531 120.223C178.395 111.131 176.311 108.858 174.985 103.744C174.985 103.744 176.122 83.8561 176.122 77.0373C176.122 70.2185 171.576 52.0352 171.576 52.0352C171.576 52.0352 173.281 41.807 172.712 37.8294C172.144 33.8518 169.871 23.0554 164.189 19.646C158.507 16.2367 138.05 6.57675 138.05 6.57675C138.05 6.57675 114.753 -3.08317 114.185 -6.49255Z" fill="#F2CDAF"/>
<g filter="url(#filter0_f_956_10776)">
<path d="M133.285 60.7097C131.58 61.278 130.32 61.278 129.752 62.4144C129.184 63.5508 131.133 64.1192 133.285 64.1191C135.437 64.1191 137.831 63.5508 137.263 62.4144C136.694 61.278 134.99 60.1415 133.285 60.7097Z" fill="#DEB9A1"/>
</g>
<g filter="url(#filter1_f_956_10776)">
<path d="M55.9767 60.7097C57.6813 61.278 58.9414 61.278 59.5096 62.4144C60.0778 63.5508 58.1283 64.1192 55.9767 64.1191C53.825 64.1191 51.4308 63.5508 51.999 62.4144C52.5673 61.278 54.272 60.1415 55.9767 60.7097Z" fill="#DEB9A1"/>
</g>
<g filter="url(#filter2_f_956_10776)">
<path d="M32.025 47.4893C32.025 47.4893 37.1391 45.2164 38.8438 43.5117C40.5485 41.807 47.5236 32.6619 47.5236 32.6619C47.5236 32.6619 41.6849 43.5117 41.6849 45.7846C41.6849 48.0575 43.6358 61.3731 46.2308 63.968C48.8257 66.5629 56.4589 67.3774 60.4365 67.3774C64.4141 67.3774 91.121 64.5362 92.2574 63.3998C93.3939 62.2633 95.6668 57.7175 95.6668 57.7175C95.6668 57.7175 96.8033 65.6727 95.6668 66.8091C94.5303 67.9456 60.4365 70.2185 56.4589 71.9232C52.4813 73.6279 56.4589 120.223 57.5954 123.064C58.7318 125.905 68.3917 140.679 68.3917 140.679C68.3917 140.679 54.186 128.746 52.4813 129.314C50.7766 129.883 47.9355 140.679 47.9355 140.679C47.9355 140.679 51.3448 123.632 51.3448 120.791C51.3448 117.95 44.5261 75.9008 44.5261 75.9008L45.2593 80.4467C45.2593 80.4467 40.5485 98.63 39.9802 102.608C39.412 106.585 39.412 129.314 39.412 129.314C39.412 129.314 34.2979 109.995 33.7297 106.017C33.1615 102.039 30.3203 98.0618 30.3203 98.0618C30.3203 98.0618 34.2979 103.176 35.4344 102.608C36.5708 102.039 41.1167 86.6972 41.6849 82.1514C42.2531 77.6055 38.8438 47.4893 38.8438 47.4893H32.025Z" fill="#DDB8A0"/>
</g>
<g filter="url(#filter3_f_956_10776)">
<path d="M159.245 47.4893C159.245 47.4893 154.13 45.2164 152.426 43.5117C150.721 41.807 143.746 32.6619 143.746 32.6619C143.746 32.6619 149.585 43.5117 149.585 45.7846C149.585 48.0575 147.634 61.3731 145.039 63.968C142.444 66.5629 134.811 67.3774 130.833 67.3774C126.855 67.3774 100.149 64.5362 99.0121 63.3998C97.8757 62.2633 95.6649 57.7175 95.6649 57.7175C95.6649 57.7175 94.5284 65.6727 95.6649 66.8091C96.8013 67.9456 130.833 70.2185 134.811 71.9232C138.788 73.6279 134.811 120.223 133.674 123.064C132.538 125.905 122.878 140.679 122.878 140.679C122.878 140.679 137.084 128.746 138.788 129.314C140.493 129.883 142.26 140.679 142.26 140.679C142.26 140.679 139.925 123.632 139.925 120.791C139.925 117.95 146.743 75.9008 146.743 75.9008L146.01 80.4467C146.01 80.4467 150.721 98.63 151.289 102.608C151.858 106.585 151.858 129.314 151.858 129.314C151.858 129.314 156.972 109.995 157.54 106.017C158.108 102.039 160.949 98.0618 160.949 98.0618C160.949 98.0618 156.972 103.176 155.835 102.608C154.699 102.039 150.153 86.6972 149.585 82.1514C149.016 77.6055 152.426 47.4893 152.426 47.4893H159.245Z" fill="#DDB8A0"/>
</g>
<g filter="url(#filter4_f_956_10776)">
<path d="M52.4792 9.41789C53.6157 8.47084 58.0479 4.07653 59.8662 3.16736L38.2734 13.3955C44.3346 13.0167 56.5705 12.259 57.025 12.259H75.2084C76.1176 12.259 68.7685 10.3649 64.9803 9.41789H52.4792Z" fill="#DEB9A1"/>
</g>
<g filter="url(#filter5_f_956_10776)">
<path d="M138.365 9.41789C137.228 8.47084 132.796 4.07653 130.978 3.16736L152.57 13.3955C146.509 13.0167 134.273 12.259 133.819 12.259H115.635C114.726 12.259 122.075 10.3649 125.863 9.41789H138.365Z" fill="#DEB9A1"/>
</g>
<g filter="url(#filter6_f_956_10776)">
<path d="M88.4433 9.33048C87.7939 7.93176 87.1445 3.7356 87.1445 3.7356L89.7422 8.63112L91.6904 12.8273C91.6904 12.8273 89.0927 10.7292 88.4433 9.33048Z" fill="#DEB9A1"/>
</g>
<g filter="url(#filter7_f_956_10776)">
<path d="M100.619 9.33048C101.269 7.93176 101.918 3.7356 101.918 3.7356L99.3203 8.63112L97.3721 12.8273C97.3721 12.8273 99.9698 10.7292 100.619 9.33048Z" fill="#DEB9A1"/>
</g>
<path d="M94.5331 115.677C94.3437 103.744 93.5061 82.4922 93.9606 81.5831C94.7467 78.7293 95.2651 79.2894 96.2354 81.5831V115.677C96.2354 115.677 95.6651 125.905 95.0969 124.769C94.5287 123.632 94.5331 115.677 94.5331 115.677Z" fill="#DEB9A1"/>
<path d="M93.3922 128.746C91.6875 129.315 91.6875 132.724 91.6875 132.724C91.6875 132.724 92.8284 130.451 93.9604 130.451C95.0924 130.451 99.0745 132.156 99.0745 132.156C99.0745 132.156 95.0969 128.178 93.3922 128.746Z" fill="#DEB9A1"/>
<g filter="url(#filter8_f_956_10776)">
<path d="M23.5 172.5L34.2964 146.361L25.7729 174.205L27.4776 178.182L23.5 172.5Z" fill="#DEB9A1"/>
</g>
<g filter="url(#filter9_f_956_10776)">
<path d="M167.262 172.5L156.465 146.361L164.989 174.205L163.284 178.182L167.262 172.5Z" fill="#DEB9A1"/>
</g>
<path d="M142.83 146.93C106.668 156.407 85.2353 153.538 47.9352 146.93C46.7353 166.461 46.2735 177.406 46.2305 196.934C46.2305 196.934 80.0463 195.277 84.8701 202.616C89.694 209.955 102.132 209.228 106.463 202.616C110.793 196.004 145.103 196.934 145.103 196.934C145.35 177.075 145.052 166.072 142.83 146.93Z" fill="#5A7EB5"/>
<g filter="url(#filter10_f_956_10776)">
<path d="M46.2344 196.934C46.442 170.459 46.9829 162.057 47.9391 146.93C47.9391 146.93 47.9391 157.726 49.0711 169.659C47.9391 179.319 49.0582 189.534 50.7758 191.252C54.7534 195.229 58.1628 194.093 64.4133 195.229C70.6638 196.366 84.3058 200.912 84.3058 200.912L67.2589 196.934H46.2344Z" fill="#5073A8"/>
</g>
<g filter="url(#filter11_f_956_10776)">
<path d="M144.535 196.934C144.328 170.459 143.787 162.057 142.83 146.93C142.83 146.93 142.83 157.726 141.698 169.659C142.83 179.319 141.711 189.534 139.994 191.252C136.016 195.229 132.607 194.093 126.356 195.229C120.106 196.366 106.464 200.912 106.464 200.912L123.511 196.934H144.535Z" fill="#5073A8"/>
</g>
<rect x="17" y="92" width="20.6576" height="21.8727" rx="10.3288" fill="#FF4F42" fill-opacity="0.5"/>
<g opacity="0.7">
<rect x="20" y="94.9364" width="15" height="16" rx="7.5" fill="#FF0200"/>
</g>
</g>
<defs>
<filter id="filter0_f_956_10776" x="129.152" y="60.0586" width="8.69531" height="4.56055" filterUnits="userSpaceOnUse" color-interpolation-filters="sRGB">
<feFlood flood-opacity="0" result="BackgroundImageFix"/>
<feBlend mode="normal" in="SourceGraphic" in2="BackgroundImageFix" result="shape"/>
<feGaussianBlur stdDeviation="0.25" result="effect1_foregroundBlur_956_10776"/>
</filter>
<filter id="filter1_f_956_10776" x="51.4141" y="60.0586" width="8.69531" height="4.56055" filterUnits="userSpaceOnUse" color-interpolation-filters="sRGB">
<feFlood flood-opacity="0" result="BackgroundImageFix"/>
<feBlend mode="normal" in="SourceGraphic" in2="BackgroundImageFix" result="shape"/>
<feGaussianBlur stdDeviation="0.25" result="effect1_foregroundBlur_956_10776"/>
</filter>
<filter id="filter2_f_956_10776" x="29.8203" y="32.162" width="66.8516" height="109.017" filterUnits="userSpaceOnUse" color-interpolation-filters="sRGB">
<feFlood flood-opacity="0" result="BackgroundImageFix"/>
<feBlend mode="normal" in="SourceGraphic" in2="BackgroundImageFix" result="shape"/>
<feGaussianBlur stdDeviation="0.25" result="effect1_foregroundBlur_956_10776"/>
</filter>
<filter id="filter3_f_956_10776" x="94.6602" y="32.162" width="66.7891" height="109.017" filterUnits="userSpaceOnUse" color-interpolation-filters="sRGB">
<feFlood flood-opacity="0" result="BackgroundImageFix"/>
<feBlend mode="normal" in="SourceGraphic" in2="BackgroundImageFix" result="shape"/>
<feGaussianBlur stdDeviation="0.25" result="effect1_foregroundBlur_956_10776"/>
</filter>
<filter id="filter4_f_956_10776" x="37.7734" y="2.66736" width="38.0117" height="11.2281" filterUnits="userSpaceOnUse" color-interpolation-filters="sRGB">
<feFlood flood-opacity="0" result="BackgroundImageFix"/>
<feBlend mode="normal" in="SourceGraphic" in2="BackgroundImageFix" result="shape"/>
<feGaussianBlur stdDeviation="0.25" result="effect1_foregroundBlur_956_10776"/>
</filter>
<filter id="filter5_f_956_10776" x="115.059" y="2.66736" width="38.0117" height="11.2281" filterUnits="userSpaceOnUse" color-interpolation-filters="sRGB">
<feFlood flood-opacity="0" result="BackgroundImageFix"/>
<feBlend mode="normal" in="SourceGraphic" in2="BackgroundImageFix" result="shape"/>
<feGaussianBlur stdDeviation="0.25" result="effect1_foregroundBlur_956_10776"/>
</filter>
<filter id="filter6_f_956_10776" x="86.6445" y="3.2356" width="5.54688" height="10.0917" filterUnits="userSpaceOnUse" color-interpolation-filters="sRGB">
<feFlood flood-opacity="0" result="BackgroundImageFix"/>
<feBlend mode="normal" in="SourceGraphic" in2="BackgroundImageFix" result="shape"/>
<feGaussianBlur stdDeviation="0.25" result="effect1_foregroundBlur_956_10776"/>
</filter>
<filter id="filter7_f_956_10776" x="96.8711" y="3.2356" width="5.54688" height="10.0917" filterUnits="userSpaceOnUse" color-interpolation-filters="sRGB">
<feFlood flood-opacity="0" result="BackgroundImageFix"/>
<feBlend mode="normal" in="SourceGraphic" in2="BackgroundImageFix" result="shape"/>
<feGaussianBlur stdDeviation="0.25" result="effect1_foregroundBlur_956_10776"/>
</filter>
<filter id="filter8_f_956_10776" x="23" y="145.861" width="11.7969" height="32.8209" filterUnits="userSpaceOnUse" color-interpolation-filters="sRGB">
<feFlood flood-opacity="0" result="BackgroundImageFix"/>
<feBlend mode="normal" in="SourceGraphic" in2="BackgroundImageFix" result="shape"/>
<feGaussianBlur stdDeviation="0.25" result="effect1_foregroundBlur_956_10776"/>
</filter>
<filter id="filter9_f_956_10776" x="155.965" y="145.861" width="11.7969" height="32.8209" filterUnits="userSpaceOnUse" color-interpolation-filters="sRGB">
<feFlood flood-opacity="0" result="BackgroundImageFix"/>
<feBlend mode="normal" in="SourceGraphic" in2="BackgroundImageFix" result="shape"/>
<feGaussianBlur stdDeviation="0.25" result="effect1_foregroundBlur_956_10776"/>
</filter>
<filter id="filter10_f_956_10776" x="45.7344" y="146.43" width="39.0703" height="54.9819" filterUnits="userSpaceOnUse" color-interpolation-filters="sRGB">
<feFlood flood-opacity="0" result="BackgroundImageFix"/>
<feBlend mode="normal" in="SourceGraphic" in2="BackgroundImageFix" result="shape"/>
<feGaussianBlur stdDeviation="0.25" result="effect1_foregroundBlur_956_10776"/>
</filter>
<filter id="filter11_f_956_10776" x="105.965" y="146.43" width="39.0703" height="54.9819" filterUnits="userSpaceOnUse" color-interpolation-filters="sRGB">
<feFlood flood-opacity="0" result="BackgroundImageFix"/>
<feBlend mode="normal" in="SourceGraphic" in2="BackgroundImageFix" result="shape"/>
<feGaussianBlur stdDeviation="0.25" result="effect1_foregroundBlur_956_10776"/>
</filter>
<clipPath id="clip0_956_10776">
<rect width="193" height="153" fill="white"/>
</clipPath>
</defs>
</svg>
