<svg width="393" height="852" viewBox="0 0 393 852" fill="none" xmlns="http://www.w3.org/2000/svg">
<g clip-path="url(#clip0_737_7332)">
<rect width="393" height="852" rx="40" fill="#D1E1EF"/>
<path d="M174.144 67.5428C190.156 34.442 151.184 -9.22852 106.228 23.8975L74.5886 3.56492C107.065 -34.695 199.925 -49.3097 216.358 38.1319C227.224 95.9466 151.926 167.589 126.033 173.099C100.139 178.609 99.2504 186.13 85.8926 194.639C72.5349 203.148 57.2095 216.766 22.583 194.514C-12.0435 172.262 2.44496 115.827 2.44496 115.827L33.1538 135.561C27.987 153.306 50.9306 177.43 65.4172 163.072C79.9038 148.714 87.8123 144.592 113.466 137.41C139.119 130.228 158.131 100.644 174.144 67.5428Z" fill="#BED5E9"/>
<path d="M64.4572 15.2452L95.166 34.9798C69.0397 64.8151 56.7644 83.3958 40.1483 120.592L9.43963 100.857C26.0817 63.2346 38.4048 44.0342 64.4572 15.2452Z" fill="#BED5E9"/>
<path d="M98.1773 77.8609L77.5065 110.026C48.5644 88.1927 31.6417 76.9318 -0.661196 59.7929L20.0096 27.6274C51.7782 45.4459 69.273 56.8546 98.1773 77.8609Z" fill="#BED5E9"/>
<path d="M254.057 659.995C256.439 623.301 311.872 604.511 334.663 655.491L372.213 653.393C362.812 604.097 289.217 545.614 231.821 613.598C193.873 658.548 224.08 757.996 243.895 775.552C263.71 793.108 260.776 800.09 268.205 814.077C275.634 828.065 282.257 847.467 323.353 845.171C364.449 842.875 379.657 786.63 379.657 786.63L343.21 788.666C338.961 806.652 307.107 816.335 301.579 796.702C296.05 777.069 291.201 769.585 272.419 750.693C253.637 731.8 251.676 696.688 254.057 659.995Z" fill="#BED5E9"/>
<path d="M375.273 668.55L338.827 670.586C346.855 709.423 348.378 731.64 344.503 772.194L380.95 770.158C385.012 729.22 383.753 706.44 375.273 668.55Z" fill="#BED5E9"/>
<path d="M315.071 706.413L317.204 744.589C353.147 739.855 373.422 738.398 409.976 739.406L407.843 701.23C371.419 701.077 350.574 702.381 315.071 706.413Z" fill="#BED5E9"/>
</g>
<defs>
<clipPath id="clip0_737_7332">
<rect width="393" height="852" rx="40" fill="white"/>
</clipPath>
</defs>
</svg>
